<?xml version="1.0" encoding="UTF-8"?>
<svg width="38px" height="30px" viewBox="0 0 38 30" version="1.1" xmlns="http://www.w3.org/2000/svg" xmlns:xlink="http://www.w3.org/1999/xlink">
    <!-- Generator: Sketch 64 (93537) - https://sketch.com -->
    <title>Group 3</title>
    <desc>Created with Sketch.</desc>
    <g id="Page-1" stroke="none" stroke-width="1" fill="none" fill-rule="evenodd">
        <g id="Home" transform="translate(-1383.000000, -18.000000)" fill="#1C1C1C">
            <g id="Group-3" transform="translate(1383.000000, 18.000000)">
                <path d="M9.47091386,0.561277779 C11.0114278,0.187092593 12.00297,0 12.4455404,0 C13.1093961,0 16.9155018,0 17.406755,0 C17.8980082,0 17.9433717,0.280638889 19.3287278,0.280638889 C20.7140839,0.280638889 24.1480985,0.918544627 24.4933035,0.918544627 C24.8385084,0.918544627 25.3812104,0.764187733 26.609454,0.918544627 C27.8376976,1.07290152 29.9152339,1.25632419 31.5607108,1.16461286 C33.2061877,1.07290152 32.1820797,0.457785995 33.807309,1.16461286 C35.4325383,1.87143972 36.7653391,2.44835136 37.0043272,2.44835136 C37.2433152,2.44835136 38,3.07073333 38,3.27551495 C38,3.48029656 37.768425,4.16708565 37.5327563,4.38507898 C37.2970875,4.60307231 36.9899436,5.28347574 36.828848,5.28347574 C36.6677523,5.28347574 35.91837,5.67079924 35.2519695,5.67079924 C34.5855691,5.67079924 33.8537789,6.18517543 32.4158675,5.92798733 C30.9779562,5.67079924 30.9740837,5.72375621 29.0797716,5.28347574 C27.1854595,4.84319527 26.9003888,4.87270144 25.3179228,4.85794835 C23.7354569,4.84319527 22.7091914,4.87270144 21.8549198,4.85794835 C21.0006482,4.84319527 20.3091319,4.85794835 19.3287278,4.85794835 C18.3483236,4.85794835 18.6826856,5.06427133 16.5014772,5.06427133 C14.3202688,5.06427133 15.9627583,4.84506693 13.5259655,5.06427133 C11.0891727,5.28347574 14.1256484,5.62235628 9.71089768,5.45291601 C5.29614693,5.28347574 7.34192878,6.00857881 4.02873585,5.28347574 C0.715542913,4.55837267 0.716759982,4.91145581 0.453873142,4.38507898 C0.190986303,3.85870215 -0.291415473,4.44133888 0.237456199,3.59193557 C0.766327871,2.74253226 -0.221931915,3.23687067 1.30847666,2.20074176 C2.83888523,1.16461286 2.38735274,1.27581147 3.48271457,0.918544627 C4.5780764,0.561277779 4.19458912,0.561277779 5.06269103,0.561277779 C5.93079294,0.561277779 6.56344738,0.561277779 7.19411025,0.561277779 C7.61455217,0.561277779 8.3734867,0.561277779 9.47091386,0.561277779 Z" id="Path-4"></path>
                <path d="M5.47617232,11.2912593 C6.39712243,10.9608005 6.98922826,10.7955711 7.25248983,10.7955711 C7.64738217,10.7955711 8.5798666,10.4506038 9.5196306,10.4506038 C10.4593946,10.4506038 10.3599735,10.6875365 11.8570742,10.4506038 C13.3541749,10.2136711 16.787345,10 17.5808193,10 C18.3742937,10 18.671161,10 20.1805273,10 C21.6898936,10 22.3220205,10 23.5817869,10 C24.8415533,10 24.8878235,10 27.2127023,10 C29.5375811,10 29.1202517,10 30.5847439,10 C32.0492361,10 32.7478764,10.4506038 33.5542147,10.4506038 C34.3605529,10.4506038 34.0733585,10.4724266 34.8677303,10.919673 C35.6621021,11.3669195 35.5962868,11.3741138 36.1228099,11.6067299 C36.649333,11.839346 37.0576876,12.1768792 37.1952019,12.536475 C37.3327161,12.8960707 37.8460762,13.8704205 37.8460762,14.0790556 C37.8460762,14.2876907 38.1924048,14.7409324 37.8460762,15.0646765 C37.4997476,15.3884206 37.8968338,15.4723542 37.0098218,15.6546102 C36.1228099,15.8368661 37.2104591,15.5289495 35.2741902,15.8512547 C33.3379214,16.1735599 33.7028976,16.5860339 32.4547985,16.5860339 C31.2066993,16.5860339 33.1586243,16.7539012 30.3807162,16.7539012 C27.6028081,16.7539012 27.7888862,16.7539012 26.1108929,16.7539012 C24.4328996,16.7539012 24.5527633,16.9217685 23.0218575,16.7539012 C21.4909516,16.5860339 21.8243456,16.7729661 20.1805273,16.5860339 C18.536709,16.3991017 19.0808119,16.3727225 16.9521826,16.3727225 C14.8235533,16.3727225 14.7689066,16.5860339 13.0513244,16.5860339 C11.3337421,16.5860339 11.4822256,16.5860339 9.81021552,16.5860339 C8.13820544,16.5860339 10.1137641,17.5174576 7.7340391,16.5860339 C5.35431413,15.6546102 6.14313035,15.6793106 4.81469215,15.3719936 C3.48625395,15.0646765 3.82939147,15.2748703 3.00380719,15.0646765 C2.17822292,14.8544826 2.70295108,15.4701959 1.74703239,14.7746258 C0.791113698,14.0790556 0.539220247,14.5608348 0.381063869,13.733249 C0.22290749,12.9056631 -0.483810198,13.1566248 0.557967662,12.3816773 C1.59974552,11.6067299 3.64344862,11.2912593 4.22907038,11.2912593 C4.61948489,11.2912593 5.03518554,11.2912593 5.47617232,11.2912593 Z" id="Path-9"></path>
                <path d="M3.10946113,23.3282856 C3.34669432,23.1531947 4.12571844,22.9794214 5.4465335,22.806966 C7.42775608,22.5482827 7.42614833,22.3506212 8.79964089,22.3506212 C10.1731334,22.3506212 10.845741,22.3506212 12.0560941,22.3506212 C13.2664471,22.3506212 14.7016963,22.5273002 16.2725639,22.5273002 C17.8434316,22.5273002 17.2585884,22.7039792 18.5130128,22.5273002 C19.7674372,22.3506212 20.4011373,22.6291719 21.1881504,22.3506212 C21.9751636,22.0720704 21.57228,22 22.729861,22 C23.887442,22 25.6526584,22.1325853 26.462776,22.1325853 C27.2728936,22.1325853 29.8568338,22.1739422 30.3435096,22.3506212 C30.8301854,22.5273002 31.0717264,22.1488037 33.0134172,22.5273002 C34.955108,22.9057967 35.9068023,22.8449778 36.602864,23.3282856 C37.2989258,23.8115935 38,24.0810214 38,24.7743573 C38,25.4676932 37.9579147,26.412414 37.6188683,26.9820847 C37.2798219,27.5517555 36.5033726,28.6931242 36.1698115,29.0337103 C35.8362503,29.3742963 35.1747079,29.6104765 34.5505221,29.7645512 C33.9263363,29.9186258 34.1601222,30.1010827 33.0134172,29.9328169 C31.8667122,29.7645512 31.9069059,29.6874125 30.9752613,29.4940083 C30.0436166,29.3006041 29.914902,29.2695864 29.2736929,29.2695864 C28.6324838,29.2695864 28.636645,29.0033008 27.3803292,28.773608 C26.1240133,28.5439151 26.1004645,28.5439151 25.1482028,28.5439151 C24.1959411,28.5439151 24.1565039,28.5439151 23.6184746,28.5439151 C23.0804454,28.5439151 24.211262,28.5439151 22.3080627,28.5439151 C20.4048633,28.5439151 19.5815055,28.5439151 18.5130128,28.5439151 C17.4445201,28.5439151 17.2513668,28.3913609 15.6742913,28.3913609 C14.0972157,28.3913609 14.1582763,28.2388067 12.9850906,28.3913609 C11.811905,28.5439151 11.6077206,28.3142222 11.0922944,28.5439151 C10.5768682,28.773608 8.57710918,29.0337103 7.91443189,29.0337103 C7.25175459,29.0337103 7.0567438,29.0337103 5.4465335,29.0337103 C3.83632319,29.0337103 2.53253138,29.155855 1.80544946,28.773608 C1.07836753,28.3913609 1.18901866,28.8161812 0.698938205,27.7993899 C0.20885775,26.7825986 -0.181731265,26.8157231 0.0883709693,26 C0.358473203,25.1842769 0.347218944,24.565951 0.829449788,24.2759461 C1.31168063,23.9859411 1.85075022,23.8115935 2.05502922,23.8115935 C2.19121522,23.8115935 2.54269252,23.6504908 3.10946113,23.3282856 Z" id="Path-10"></path>
            </g>
        </g>
    </g>
</svg>