<?xml version="1.0" encoding="UTF-8"?>
<svg width="30px" height="29px" viewBox="0 0 30 29" version="1.1" xmlns="http://www.w3.org/2000/svg" xmlns:xlink="http://www.w3.org/1999/xlink">
    <!-- Generator: Sketch 64 (93537) - https://sketch.com -->
    <title>Group</title>
    <desc>Created with Sketch.</desc>
    <g id="Page-1" stroke="none" stroke-width="1" fill="none" fill-rule="evenodd">
        <g id="Home" transform="translate(-389.000000, -852.000000)" fill="#1C1C1C">
            <g id="Group" transform="translate(388.000000, 850.000000)">
                <path d="M6.47091386,13.5612778 C8.01142779,13.1870926 9.00296997,13 9.44554041,13 C10.1093961,13 13.9155018,13 14.406755,13 C14.8980082,13 14.9433717,13.2806389 16.3287278,13.2806389 C17.7140839,13.2806389 21.1480985,13.9185446 21.4933035,13.9185446 C21.8385084,13.9185446 22.3812104,13.7641877 23.609454,13.9185446 C24.8376976,14.0729015 26.9152339,14.2563242 28.5607108,14.1646129 C30.2061877,14.0729015 29.1820797,13.457786 30.807309,14.1646129 C32.4325383,14.8714397 33.7653391,15.4483514 34.0043272,15.4483514 C34.2433152,15.4483514 35,16.0707333 35,16.2755149 C35,16.4802966 34.768425,17.1670856 34.5327563,17.385079 C34.2970875,17.6030723 33.9899436,18.2834757 33.828848,18.2834757 C33.6677523,18.2834757 32.91837,18.6707992 32.2519695,18.6707992 C31.5855691,18.6707992 30.8537789,19.1851754 29.4158675,18.9279873 C27.9779562,18.6707992 27.9740837,18.7237562 26.0797716,18.2834757 C24.1854595,17.8431953 23.9003888,17.8727014 22.3179228,17.8579484 C20.7354569,17.8431953 19.7091914,17.8727014 18.8549198,17.8579484 C18.0006482,17.8431953 17.3091319,17.8579484 16.3287278,17.8579484 C15.3483236,17.8579484 15.6826856,18.0642713 13.5014772,18.0642713 C11.3202688,18.0642713 12.9627583,17.8450669 10.5259655,18.0642713 C8.08917267,18.2834757 11.1256484,18.6223563 6.71089768,18.452916 C2.29614693,18.2834757 4.34192878,19.0085788 1.02873585,18.2834757 C-2.28445709,17.5583727 -2.28324002,17.9114558 -2.54612686,17.385079 C-2.8090137,16.8587022 -3.29141547,17.4413389 -2.7625438,16.5919356 C-2.23367213,15.7425323 -3.22193191,16.2368707 -1.69152334,15.2007418 C-0.161114774,14.1646129 -0.612647262,14.2758115 0.482714569,13.9185446 C1.5780764,13.5612778 1.19458912,13.5612778 2.06269103,13.5612778 C2.93079294,13.5612778 3.56344738,13.5612778 4.19411025,13.5612778 C4.61455217,13.5612778 5.3734867,13.5612778 6.47091386,13.5612778 Z" id="Path-4" transform="translate(16.000000, 16.000000) rotate(-315.000000) translate(-16.000000, -16.000000) "></path>
                <path d="M2.47617232,14.2912593 C3.39712243,13.9608005 3.98922826,13.7955711 4.25248983,13.7955711 C4.64738217,13.7955711 5.5798666,13.4506038 6.5196306,13.4506038 C7.4593946,13.4506038 7.35997348,13.6875365 8.85707418,13.4506038 C10.3541749,13.2136711 13.787345,13 14.5808193,13 C15.3742937,13 15.671161,13 17.1805273,13 C18.6898936,13 19.3220205,13 20.5817869,13 C21.8415533,13 21.8878235,13 24.2127023,13 C26.5375811,13 26.1202517,13 27.5847439,13 C29.0492361,13 29.7478764,13.4506038 30.5542147,13.4506038 C31.3605529,13.4506038 31.0733585,13.4724266 31.8677303,13.919673 C32.6621021,14.3669195 32.5962868,14.3741138 33.1228099,14.6067299 C33.649333,14.839346 34.0576876,15.1768792 34.1952019,15.536475 C34.3327161,15.8960707 34.8460762,16.8704205 34.8460762,17.0790556 C34.8460762,17.2876907 35.1924048,17.7409324 34.8460762,18.0646765 C34.4997476,18.3884206 34.8968338,18.4723542 34.0098218,18.6546102 C33.1228099,18.8368661 34.2104591,18.5289495 32.2741902,18.8512547 C30.3379214,19.1735599 30.7028976,19.5860339 29.4547985,19.5860339 C28.2066993,19.5860339 30.1586243,19.7539012 27.3807162,19.7539012 C24.6028081,19.7539012 24.7888862,19.7539012 23.1108929,19.7539012 C21.4328996,19.7539012 21.5527633,19.9217685 20.0218575,19.7539012 C18.4909516,19.5860339 18.8243456,19.7729661 17.1805273,19.5860339 C15.536709,19.3991017 16.0808119,19.3727225 13.9521826,19.3727225 C11.8235533,19.3727225 11.7689066,19.5860339 10.0513244,19.5860339 C8.3337421,19.5860339 8.48222561,19.5860339 6.81021552,19.5860339 C5.13820544,19.5860339 7.11376408,20.5174576 4.7340391,19.5860339 C2.35431413,18.6546102 3.14313035,18.6793106 1.81469215,18.3719936 C0.48625395,18.0646765 0.829391465,18.2748703 0.00380719179,18.0646765 C-0.821777081,17.8544826 -0.29704892,18.4701959 -1.25296761,17.7746258 C-2.2088863,17.0790556 -2.46077975,17.5608348 -2.61893613,16.733249 C-2.77709251,15.9056631 -3.4838102,16.1566248 -2.44203234,15.3816773 C-1.40025448,14.6067299 0.643448617,14.2912593 1.22907038,14.2912593 C1.61948489,14.2912593 2.03518554,14.2912593 2.47617232,14.2912593 Z" id="Path-9" transform="translate(16.000000, 16.500000) rotate(-45.000000) translate(-16.000000, -16.500000) "></path>
            </g>
        </g>
    </g>
</svg>