<?xml version="1.0" encoding="UTF-8"?>
<svg width="1440px" height="350px" viewBox="0 0 1440 350" version="1.1" xmlns="http://www.w3.org/2000/svg" xmlns:xlink="http://www.w3.org/1999/xlink">
    <!-- Generator: Sketch 64 (93537) - https://sketch.com -->
    <title>Path 3 Copy 2</title>
    <desc>Created with Sketch.</desc>
    <g id="Page-1" stroke="none" stroke-width="1" fill="none" fill-rule="evenodd">
        <g id="Home" transform="translate(0.000000, -25059.000000)" fill="#F8F1EB">
            <path d="M-272.707986,25805.9916 C-270.389538,25725.6195 -255.511348,25658.3752 -228.073413,25604.2587 C-186.916512,25523.0839 -136.356523,25507.7533 -73.7584408,25455.7281 C-11.1603588,25403.7029 -4.60628616,25395.1146 82.0679812,25308.0136 C168.742248,25220.9126 260.900536,25262.7173 375.663686,25195.0404 C490.426836,25127.3636 683.932488,25068.6363 784.249927,25068.6363 C884.567366,25068.6363 1032.99705,25000.3039 1231.30456,25132.6477 C1429.61208,25264.9915 1423.74848,25382.93 1516.82137,25402.9538 C1609.89426,25422.9776 1763.52202,25604.2587 1832.50029,25604.2587 C1901.47856,25604.2587 2089.04542,25756.8025 2046.89872,25844.2914 C2004.75202,25931.7804 2022.88941,26088.0298 1927.69485,26137.6737 C1832.50029,26187.3177 1644.90341,26231.3297 1609.89426,26249.7907 C1574.8851,26268.2517 1483.56948,26437.2766 1416.24979,26437.2766 C1348.9301,26437.2766 1268.12775,26564.9516 1145.87423,26582.6099 C1023.62071,26600.2682 953.960283,26617.9266 821.126618,26582.6099 C688.292953,26547.2933 726.629134,26558.0354 623.135442,26454.6674 C519.641751,26351.2993 434.382827,26249.7907 331.430383,26249.7907 C228.47794,26249.7907 265.956535,26291.5152 110.290621,26249.7907 C-45.3752934,26208.0662 -140.288966,26282.579 -201.067959,26210.1264 C-261.846951,26137.6737 -306,26123.0521 -306,26051.7633 C-306,26004.2375 -294.902662,25922.3136 -272.707986,25805.9916 Z" id="Path-3-Copy-2" transform="translate(873.500000, 25827.000000) rotate(9.000000) translate(-873.500000, -25827.000000) "></path>
        </g>
    </g>
</svg>