<?xml version="1.0" encoding="UTF-8"?>
<svg width="30px" height="30px" viewBox="0 0 30 30" version="1.1" xmlns="http://www.w3.org/2000/svg" xmlns:xlink="http://www.w3.org/1999/xlink">
    <!-- Generator: Sketch 64 (93537) - https://sketch.com -->
    <title>Combined Shape</title>
    <desc>Created with Sketch.</desc>
    <g id="Page-1" stroke="none" stroke-width="1" fill="none" fill-rule="evenodd">
        <g id="Home" transform="translate(-773.000000, -25007.000000)" fill="#1C1C1C" fill-rule="nonzero">
            <path d="M801.344068,25007 C802.25836,25007 802.999775,25007.7412 802.999775,25008.6558 L802.999775,25008.6558 L802.999775,25035.3443 C802.999775,25036.2586 802.25836,25037 801.344068,25037 L801.344068,25037 L793.699297,25037 L793.699297,25025.3825 L797.598921,25025.3825 L798.182746,25020.8549 L793.699297,25020.8549 L793.699297,25017.9642 C793.699297,25016.6533 794.063261,25015.7601 795.943101,25015.7601 L798.340673,25015.759 L798.340673,25011.7095 C797.925903,25011.6544 796.50276,25011.5311 794.847052,25011.5311 C791.3903,25011.5311 789.023863,25013.641 789.023863,25017.5159 L789.023863,25020.8549 L785.114348,25020.8549 L785.114348,25025.3825 L789.023863,25025.3825 L789.023863,25037 L774.655707,25037 C773.741078,25037 773,25036.2586 773,25035.3443 L773,25035.3443 L773,25008.6558 C773,25007.7412 773.741078,25007 774.655707,25007 L774.655707,25007 Z" id="Combined-Shape"></path>
        </g>
    </g>
</svg>