<?xml version="1.0" encoding="UTF-8"?>
<svg width="84px" height="26px" viewBox="0 0 84 26" version="1.1" xmlns="http://www.w3.org/2000/svg" xmlns:xlink="http://www.w3.org/1999/xlink">
    <!-- Generator: Sketch 64 (93537) - https://sketch.com -->
    <title>Spotify_logo_with_text</title>
    <desc>Created with Sketch.</desc>
    <g id="Page-1" stroke="none" stroke-width="1" fill="none" fill-rule="evenodd">
        <g id="Home" transform="translate(-980.000000, -24971.000000)" fill="#1C1C1C" fill-rule="nonzero">
            <g id="Spotify_logo_with_text" transform="translate(980.000000, 24971.000000)">
                <path d="M13.0217563,0 C5.83019155,0 0,5.82039968 0,13.0000776 C0,20.180066 5.83019155,26 13.0217563,26 C20.2140986,26 26.0436681,20.180066 26.0436681,13.0000776 C26.0436681,5.8208654 20.2140986,0.000620958545 13.0216008,0.000620958545 L13.0217563,0 Z M18.9553091,18.6414668 C18.7236937,19.0358095 18.2264925,19.160845 17.8466432,18.9187891 C14.810628,16.9935631 10.9886644,16.5575418 6.48760427,17.6251526 C6.05386576,17.7277458 5.62151693,17.4456145 5.52269434,16.9951661 C5.42340852,16.5447177 5.69408977,16.0958723 6.12890916,15.9932791 C11.0545976,14.8249987 15.2797264,15.3280261 18.6881793,17.490499 C19.0680286,17.7325549 19.1884686,18.2471241 18.9553091,18.6414668 L18.9553091,18.6414668 Z M20.3918235,15.2566662 C20.0990498,15.7392441 19.476325,15.8916206 19.0007615,15.5947221 C15.5138123,13.4212362 10.1984997,12.7917799 6.07410951,14.0613746 C5.53921677,14.2252186 4.97427213,13.9195231 4.81192994,13.3780367 C4.650827,12.8356078 4.95243029,12.2638032 5.48639359,12.0988595 C10.1975702,10.6492406 16.0544366,11.3514292 20.0587741,13.8467908 C20.5343376,14.1436893 20.6845971,14.7751878 20.3918235,15.2568232 L20.3918235,15.2566662 Z M20.8854514,11.5497025 C16.6506946,9.09103333 9.66389512,8.86496644 5.62071444,10.0644706 C4.97145829,10.2569495 4.28485972,9.89867799 4.08810592,9.26403431 C3.89135213,8.62908389 4.25755895,7.95839834 4.9072858,7.7654593 C9.54857292,6.3881997 17.2641773,6.65429607 22.1397176,9.48350631 C22.7249581,9.8222999 22.9163773,10.5595479 22.5696262,11.1296229 C22.2244441,11.7004648 21.4681815,11.8886494 20.886079,11.5497025 L20.8854514,11.5497025 Z M35.4511315,11.9419339 C33.236791,11.4140108 32.8432326,11.0434848 32.8432326,10.2649209 C32.8432326,9.52938078 33.5354054,9.03437639 34.5660079,9.03437639 C35.5644519,9.03437639 36.5537077,9.41026126 37.591967,10.1840788 C37.6225941,10.2075046 37.6624094,10.2168443 37.7006932,10.2107199 C37.7405085,10.2049018 37.7741983,10.1836195 37.7971687,10.1516195 L38.8783059,8.62786954 C38.9227152,8.56509447 38.9104643,8.47858736 38.8507415,8.43066396 C37.6149373,7.43958341 36.2244662,6.95774648 34.5981664,6.95774648 C32.2077199,6.95774648 30.5370107,8.39223337 30.5370107,10.4446719 C30.5370107,12.6456271 31.9780165,13.4249566 34.4680011,14.0265255 C36.5858662,14.5144868 36.9442035,14.9232903 36.9442035,15.6539309 C36.9442035,16.4638824 36.2214035,16.967614 35.0575731,16.967614 C33.7651088,16.967614 32.7100046,16.5312508 31.5308606,15.5115387 C31.5017649,15.48551 31.4619496,15.4747923 31.4251971,15.4763234 C31.3853818,15.4793856 31.3501607,15.4977588 31.325659,15.5268496 L30.1128252,16.9691451 C30.0622904,17.0303891 30.0684158,17.1191929 30.1266074,17.1712502 C31.4987022,18.3961296 33.1862563,19.0422535 35.0085697,19.0422535 C37.5843102,19.0422535 39.2489083,17.6351733 39.2489083,15.4564191 C39.2534881,13.6180282 38.1524432,12.5998472 35.4557256,11.9439243 L35.4511315,11.9419339 Z M45.2073091,9.52128435 C44.0545058,9.52128435 43.1088593,9.97387226 42.327673,10.9012678 L42.327673,9.85741597 C42.327673,9.77499832 42.2612563,9.70786655 42.1790262,9.70786655 L40.1311795,9.70786655 C40.0489494,9.70786655 39.9825328,9.77499832 39.9825328,9.85741597 L39.9825328,21.4559268 C39.9825328,21.5378717 40.0489494,21.6056338 40.1311795,21.6056338 L42.1790262,21.6056338 C42.2612563,21.6056338 42.327673,21.5378717 42.327673,21.4559268 L42.327673,17.7951966 C43.1088593,18.6666489 44.0545058,19.0937078 45.2073091,19.0937078 C47.3500367,19.0937078 49.5196507,17.4500825 49.5196507,14.3079689 C49.5228099,11.1652248 47.3531994,9.52112676 45.2088904,9.52112676 L45.2073091,9.52128435 Z M47.3187773,14.4647091 C47.3187773,16.0816719 46.3492427,17.2112676 44.9593179,17.2112676 C43.5864569,17.2112676 42.5502183,16.0306888 42.5502183,14.4647091 C42.5502183,12.8985701 43.5864569,11.7183099 44.9593179,11.7183099 C46.3259739,11.7181505 47.3187773,12.8729192 47.3187773,14.4645497 L47.3187773,14.4647091 Z M55.0302767,9.88732394 C52.351656,9.88732394 50.2532751,11.9895006 50.2532751,14.673703 C50.2532751,17.329117 52.3378407,19.4084507 54.9980412,19.4084507 C57.6858721,19.4084507 59.790393,17.3134711 59.790393,14.6397515 C59.790393,11.9751064 57.6996873,9.88763686 55.0302767,9.88763686 L55.0302767,9.88732394 L55.0302767,9.88732394 Z M55.0305381,17.2112676 C53.5619327,17.2112676 52.4541485,16.0227571 52.4541485,14.4480604 C52.4541485,12.8661943 53.5239515,11.7183099 54.9973046,11.7183099 C56.4754052,11.7183099 57.5895197,12.9063424 57.5895197,14.4826323 C57.5895197,16.0641797 56.5133864,17.2112676 55.0305381,17.2112676 L55.0305381,17.2112676 Z M65.5109407,10.1185158 L63.2621737,10.1185158 L63.2621737,7.83852936 C63.2621737,7.75682176 63.1958942,7.69014085 63.113834,7.69014085 L61.0702176,7.69014085 C60.9881573,7.69014085 60.9202998,7.75682176 60.9202998,7.83852936 L60.9202998,10.1185158 L59.9387327,10.1185158 C59.8566725,10.1185158 59.790393,10.1851967 59.790393,10.2670608 L59.790393,12.0087475 C59.790393,12.0904551 59.8566725,12.1572925 59.9387327,12.1572925 L60.9202998,12.1572925 L60.9202998,16.6645154 C60.9202998,18.4849357 61.8340094,19.4084507 63.6377572,19.4084507 C64.3699873,19.4084507 64.977549,19.2581839 65.5503928,18.9357362 C65.5977352,18.9106918 65.6261407,18.8606028 65.6261407,18.8073833 L65.6261407,17.1481868 C65.6261407,17.0980979 65.5993133,17.0495742 65.555127,17.0229645 C65.5109407,16.9947894 65.4557078,16.9932241 65.4099435,17.0167033 C65.017001,17.2123633 64.6366832,17.3031495 64.210601,17.3031495 C63.555697,17.3031495 63.2621737,17.0073117 63.2621737,16.3467636 L63.2621737,12.1580752 L65.5109407,12.1580752 C65.593001,12.1580752 65.6592804,12.0913943 65.6592804,12.0095301 L65.6592804,10.268 C65.6624366,10.1861358 65.5961571,10.1194549 65.5125188,10.1194549 L65.5109407,10.1185158 L65.5109407,10.1185158 Z M73.473511,10.0911659 L73.473511,9.81066344 C73.473511,8.98546263 73.7897036,8.6174698 74.4972237,8.6174698 C74.9198573,8.6174698 75.2595296,8.70151077 75.6398999,8.82851298 C75.6868592,8.84325151 75.7353838,8.83588225 75.7729512,8.80781632 C75.812084,8.7797504 75.8339983,8.73475085 75.8339983,8.68708583 L75.8339983,6.97647576 C75.8339983,6.91109314 75.7933003,6.85323657 75.7291226,6.83395105 C75.3284032,6.7143181 74.8149816,6.5915493 74.0448491,6.5915493 C72.1743038,6.5915493 71.1834626,7.64739239 71.1834626,9.64383584 L71.1834626,10.0734483 L70.2098398,10.0734483 C70.1284437,10.0734483 70.0611354,10.140242 70.0611354,10.2220879 L70.0611354,11.9756592 C70.0611354,12.0575051 70.1284437,12.1244556 70.2098398,12.1244556 L71.1834626,12.1244556 L71.1834626,19.0868424 C71.1834626,19.1699426 71.2507709,19.2357956 71.332167,19.2357956 L73.357678,19.2357956 C73.4406395,19.2357956 73.5063825,19.1699426 73.5063825,19.0868424 L73.5063825,12.124926 L75.3988422,12.124926 L78.2977961,19.0868424 C77.9690811,19.8174971 77.6450619,19.9633145 77.2036445,19.9633145 C76.8467538,19.9633145 76.4695142,19.8566953 76.0860132,19.645025 C76.0500111,19.6262099 76.0061824,19.623074 75.968615,19.6340495 C75.9294822,19.6481608 75.8966107,19.6763836 75.8809576,19.7140138 L75.1937866,21.2239291 C75.1609151,21.2960538 75.1890906,21.379154 75.2579643,21.4167843 C75.9748762,21.8056306 76.6213492,21.971831 77.4212226,21.971831 C78.9176589,21.971831 79.7457078,21.2725348 80.4735769,19.3941564 L83.989263,10.2943694 C84.0080467,10.2485859 84.0017855,10.1968442 83.9736099,10.1562349 C83.9469996,10.1159391 83.9016056,10.0916362 83.853081,10.0916362 L81.7430433,10.0916362 C81.6788655,10.0916362 81.6225144,10.131932 81.6021654,10.1913565 L79.4404724,16.374326 L77.0737238,10.1872799 C77.0518094,10.1297369 76.9970236,10.0916362 76.9359765,10.0916362 L73.473511,10.0916362 L73.473511,10.0911659 L73.473511,10.0911659 Z M68.8199021,9.88732394 L66.9006219,9.88732394 C66.8235543,9.88732394 66.7598253,9.95412764 66.7598253,10.0361425 L66.7598253,18.8932781 C66.7598253,18.9763907 66.8235543,19.0422535 66.9006219,19.0422535 L68.8199021,19.0422535 C68.8969697,19.0422535 68.9606987,18.9763907 68.9606987,18.8932781 L68.9606987,10.0367698 C68.9606987,9.95475491 68.8984518,9.88795121 68.8199021,9.88795121 L68.8199021,9.88732394 Z M67.8610521,5.85915493 C67.0503912,5.85915493 66.3930131,6.5141687 66.3930131,7.32331263 C66.3930131,8.13292984 67.0503912,8.78873239 67.8610521,8.78873239 C68.6717131,8.78873239 69.3275109,8.13292984 69.3275109,7.32331263 C69.3275109,6.51432645 68.6701328,5.85915493 67.8610521,5.85915493 Z" id="Shape"></path>
            </g>
        </g>
    </g>
</svg>