<?xml version="1.0" encoding="UTF-8"?>
<svg width="58px" height="30px" viewBox="0 0 58 30" version="1.1" xmlns="http://www.w3.org/2000/svg" xmlns:xlink="http://www.w3.org/1999/xlink">
    <!-- Generator: Sketch 64 (93537) - https://sketch.com -->
    <title>logo-yabasta-noir-1 1 (Traced)</title>
    <desc>Created with Sketch.</desc>
    <g id="Page-1" stroke="none" stroke-width="1" fill="none" fill-rule="evenodd">
        <g id="Home" transform="translate(-243.000000, -25008.000000)" fill="#000000">
            <g id="logo-yabasta-noir-1-1-(Traced)" transform="translate(243.000000, 25008.000000)">
                <path d="M30.7751196,0.0326529187 C30.7524402,0.0554387081 30.4540191,0.10554244 30.1119617,0.144190909 C28.5875598,0.316405263 26.6799043,0.60305311 26.2187081,0.729444976 C25.7605263,0.854955502 23.2448325,1.22469043 21.6891388,1.39514354 C21.0938756,1.46035407 20.537512,1.61444498 19.2357416,2.07456459 C18.9242584,2.1847177 18.6340191,2.26489952 18.5906699,2.25294258 C18.5473206,2.24085646 18.213445,2.3401866 17.8487081,2.47363636 C17.4839713,2.60707177 17.137177,2.6862488 17.0781818,2.6498756 C17.0193301,2.61335885 16.9709569,2.64357416 16.9709569,2.71685167 C16.9709569,2.79011483 16.7869378,2.85192344 16.5620096,2.85419139 C16.3372249,2.85633014 16.04311,2.94130622 15.9088995,3.04301914 C15.7745455,3.14461722 15.5427273,3.22782775 15.3935885,3.22782775 C15.2443062,3.22782775 14.9507656,3.31343541 14.7413397,3.41804785 C14.5316268,3.52266029 14.0288038,3.66957416 13.6235311,3.74447368 C13.2183876,3.81937321 12.7328612,3.96037321 12.5446364,4.05780861 C12.3563971,4.15524402 12.0876459,4.2349378 11.9474928,4.2349378 C11.8073254,4.2349378 11.5072536,4.34797608 11.2806459,4.48620574 C11.0540383,4.62443541 10.7669282,4.73773206 10.6424928,4.73799043 C10.5180574,4.73823445 10.2915789,4.86677512 10.1392105,5.02349282 C9.82831579,5.34325837 9.28073684,5.65092344 9.10032057,5.60724402 C8.83986603,5.54404306 8.28677512,5.78374163 8.31859809,5.94601435 C8.35207177,6.11658373 7.97246411,6.37591866 6.92791866,6.89583732 C6.62896651,7.04476077 6.29679904,7.29993301 6.18999043,7.46309569 C6.08316746,7.62637321 5.92752632,7.75980861 5.84410048,7.75980861 C5.76081818,7.75980861 5.57359809,7.88733014 5.42814833,8.04305742 C5.28282775,8.19891388 4.89038756,8.58638756 4.55622488,8.90425837 C3.63308612,9.78245455 2.71208612,10.8270861 2.50182775,11.2343254 C2.39816268,11.4351244 2.28479426,11.6277273 2.24994258,11.6623493 C1.85537799,12.0536124 0.839255024,14.0406316 0.668013876,14.7556938 C0.619448325,14.9583732 0.538923445,15.1808612 0.489099043,15.2501914 C0.183357416,15.6752153 -0.0414823923,17.1198086 0.00645490909,18.3515311 C0.0532597608,19.5561244 0.09440311,19.7332536 0.541566029,20.657512 C1.09416603,21.7996651 1.7925933,22.5948804 3.46461244,23.9856459 C4.71462201,25.0254545 6.72686124,26.4640191 7.10809091,26.5904785 C7.2388134,26.6338278 7.65716268,26.8274641 8.03777512,27.0206699 C8.41837321,27.2140191 9.12611483,27.5272249 9.61052153,27.7168421 C10.0949282,27.9066029 10.5529091,28.1101435 10.6283971,28.1692823 C10.875,28.3627751 12.6144545,28.8792344 13.3221962,28.9688038 C13.7027943,29.017177 14.4317225,29.1404785 14.941866,29.2429665 C15.4521531,29.3454545 16.2449282,29.4533971 16.7033971,29.482823 C17.1620096,29.5123923 18.0183732,29.5919139 18.6066029,29.659378 C21.7098086,30.0157895 21.8609569,30.0213876 25.7398565,29.9249282 C25.9609091,29.9194737 26.1770813,29.8576077 26.2202871,29.7877033 C26.2636364,29.717512 26.3542105,29.6944019 26.4216746,29.7361722 C26.4891388,29.777799 26.625933,29.744067 26.7258373,29.6611005 C26.8257416,29.578134 26.9889474,29.5416746 27.0885646,29.5798565 C27.1883254,29.6180383 27.5536364,29.5455502 27.9007177,29.4186603 C28.2476555,29.2917703 28.5559809,29.2123923 28.5858373,29.2422488 C28.6156938,29.2722488 29.0295215,29.2316268 29.5055024,29.1521053 C29.9813397,29.0727273 30.965311,28.9881818 31.6919139,28.9644976 C32.4185167,28.9405263 33.423445,28.8736364 33.9254067,28.8157895 C34.4272249,28.7579426 34.9083732,28.7457416 34.9949282,28.7890909 C35.0811962,28.8322967 35.5482775,28.8225359 36.0325837,28.7675598 C38.6078469,28.4751675 39.2056938,28.3916268 39.4926316,28.2849761 C39.6657416,28.2205263 40.1318182,28.1042584 40.5285646,28.0264593 C40.9251675,27.9486603 41.2824402,27.8322488 41.3223445,27.7676555 C41.3622488,27.7030622 41.5032057,27.6502392 41.6355502,27.6502392 C42.0977512,27.6502392 45.7254545,26.3695694 47.0084211,25.7534928 C47.7198086,25.411866 48.3335885,25.1323923 48.3726316,25.1323923 C48.4116746,25.1323923 48.8783254,24.8684211 49.4097129,24.5457416 C52.7048325,22.5453589 54.238134,21.2329665 55.537177,19.3013397 C55.9478469,18.6908612 56.3039713,18.2517703 56.3286603,18.3256938 C56.3532057,18.3997608 56.4254067,18.4603349 56.4887081,18.4603349 C56.6621053,18.4603349 56.627512,18.11311 56.4467943,18.0400478 C56.3603828,18.0051675 56.4453589,17.9721531 56.6355502,17.9666986 C56.8586124,17.9602392 56.9816268,17.8880383 56.9816268,17.7635885 C56.9816268,17.6062679 56.9323923,17.5966507 56.7179426,17.7114833 C56.4887081,17.8342105 56.4641627,17.8221531 56.5284689,17.6191866 C56.9280861,16.3594737 57.1089474,14.943445 57.0696172,13.3823684 C57.0466507,12.4642536 56.9763158,11.630756 56.913445,11.5302919 C56.8505742,11.4298278 56.814689,11.2528421 56.8337799,11.13689 C56.8995215,10.736067 56.4739234,9.57259809 55.9191388,8.63649761 C55.3699522,7.70995694 54.8872249,7.12520096 54.1497129,6.49311962 C53.9425837,6.31561722 53.7136364,6.06585646 53.6408612,5.93807656 C53.5680861,5.81018182 53.3191866,5.60397129 53.087799,5.47985167 C52.8564115,5.35558852 52.5165072,5.10973206 52.332488,4.93336364 C52.1484689,4.75686603 51.9302871,4.6125933 51.8474641,4.6125933 C51.7649282,4.6125933 51.697177,4.55595215 51.697177,4.48670813 C51.697177,4.41747847 51.6248325,4.36082297 51.5364115,4.36082297 C51.4479904,4.36082297 51.2865072,4.2617512 51.1774163,4.14051675 C51.0684689,4.0192823 50.8151196,3.82264593 50.6147368,3.70356459 C50.0971292,3.39575598 49.8041627,3.20605263 49.3464115,2.88200957 C49.1262201,2.72603828 48.8322488,2.59838756 48.6933014,2.59838756 C48.5544976,2.59838756 48.4088038,2.54664115 48.3697608,2.48345455 C48.3305742,2.42025359 48.0605742,2.32822967 47.7694737,2.27900957 C47.4783732,2.22990431 47.1532536,2.14581818 47.0466029,2.09219139 C46.6102392,1.87263158 45.8058373,1.59858373 45.1545933,1.44789474 C44.3045455,1.25100144 44.3748804,1.26963301 44.1479426,1.18151053 C43.5924402,0.96561244 40.3504306,0.450350239 37.9198565,0.191649761 C36.7642105,0.0686570813 30.8702871,-0.0625187081 30.7751196,0.0326529187 Z M37.8569856,1.16690813 C39.0680383,1.25326651 40.3419617,1.38595407 40.6878947,1.46173206 C41.0339713,1.53752153 41.8266029,1.67649761 42.4494258,1.77041627 C44.4144976,2.06701435 47.6451675,3.06467943 49.1091388,3.82718182 C51.4454067,5.04388995 53.4378947,7.00020574 54.9256938,9.53823445 C55.0729665,9.78925837 55.2348804,10.1858038 55.2856938,10.4194593 C55.3365072,10.6529713 55.4341148,10.9856986 55.5027273,11.1587943 C55.7112919,11.6855167 55.7758852,12.4009378 55.7812825,14.2452057 C55.7863636,16.0609091 55.56,17.2657895 54.9922967,18.4425359 C54.552488,19.3540191 53.3636842,20.7921531 52.8081818,21.0845455 C52.6311962,21.1778469 52.3395215,21.3904306 52.1599522,21.5569378 C51.6856938,21.9967464 50.9341148,22.4888038 50.7358852,22.4888038 C50.5699522,22.4888038 50.4366029,22.586555 49.7125837,23.2383732 C49.5238278,23.4083254 49.3528708,23.5299043 49.3326316,23.5085167 C49.2648804,23.4373206 48.5516268,23.7766507 48.5516268,23.8801435 C48.5516268,23.9361244 48.4243062,24.0012919 48.2685646,24.0251196 C48.112823,24.0489474 48.0001435,24.1390909 48.017799,24.2253589 C48.0403349,24.3345933 47.9510526,24.3574163 47.724689,24.3005742 C47.4948804,24.2428708 47.292488,24.2977033 47.0368421,24.4867464 C46.8376077,24.6341627 46.5591388,24.7547368 46.4177512,24.7547368 C46.2766507,24.7547368 46.1611005,24.8147368 46.1611005,24.8880861 C46.1611005,24.9612919 46.1064115,24.9875598 46.039378,24.9460766 C45.972488,24.9047368 45.8480383,24.9823923 45.7630622,25.118756 C45.6503828,25.2990431 45.5511962,25.335933 45.398756,25.2544019 C45.2600957,25.1801914 45.1089474,25.2030144 44.9517703,25.3221531 C44.8211483,25.4210526 44.6150239,25.5038756 44.4940191,25.5060287 C44.3730144,25.5083254 44.2738278,25.5727751 44.2738278,25.6494258 C44.2738278,25.7260766 44.1898565,25.7565072 44.0873684,25.717177 C43.9847368,25.6777033 43.545933,25.7776077 43.1122967,25.9388038 C42.6783732,26.1001435 42.012201,26.3033971 41.6315311,26.3906699 C41.2510048,26.4779426 40.8350239,26.6408612 40.7071292,26.7525359 C40.5792344,26.8644976 40.3386603,26.9382775 40.1722967,26.9164593 C40.0060766,26.8947847 39.8701435,26.9412919 39.8701435,27.0202392 C39.8701435,27.1056459 39.7698086,27.1317703 39.6223923,27.0849761 C39.3822488,27.0086124 37.5525359,27.2919617 36.7876077,27.524067 C36.5799043,27.5869378 35.9005263,27.6730622 35.2777033,27.7155502 C34.1204785,27.7942105 33.9482297,27.8150239 32.6355502,28.034067 C32.2202871,28.1035407 31.1728708,28.2400478 30.3078947,28.337799 C28.291866,28.565311 28.0009091,28.607799 26.3948325,28.9102392 C24.9480861,29.1825359 22.044689,29.2408134 20.4938756,29.0285167 C20.0441627,28.9669378 19.2513876,28.8569856 18.732488,28.784067 C18.213445,28.7112919 17.4208134,28.6266029 16.9709569,28.5960287 C16.1754545,28.5417703 15.8066986,28.4856459 13.5738373,28.0788517 C12.985622,27.9716268 12.391134,27.8682775 12.2527321,27.8493301 C12.1143301,27.8302392 11.718,27.6895694 11.3719952,27.5366986 C10.4099713,27.1116746 10.3240335,27.0743541 9.04432536,26.5241627 C7.81947847,25.997512 6.38852153,25.2780861 6.27630144,25.1322488 C6.24169378,25.0873206 5.85744976,24.8105742 5.42247847,24.517177 C4.62529665,23.9796172 2.76920096,22.4226316 2.05089474,21.6889952 C1.07189569,20.6890909 0.562326316,18.6144976 0.856617703,16.8272727 C0.942426316,16.3060766 1.09290718,15.7541627 1.19104593,15.6007177 C1.28905981,15.4474163 1.36933349,15.2395694 1.36933349,15.1389474 C1.36933349,15.0381818 1.45211483,14.7954545 1.55315311,14.5995215 C1.65432057,14.403445 1.88305263,13.9031627 2.06158852,13.4877273 C2.79373206,11.7838278 4.78910526,9.41121531 6.462,8.255311 C6.80636842,8.01737799 7.19138756,7.73098565 7.31757416,7.61869378 C7.85710048,7.13892344 11.8381579,5.2757799 13.1963684,4.86739234 C13.7153828,4.71142105 14.366555,4.51050718 14.6433014,4.42086603 C14.9200478,4.33136842 15.769378,4.10639713 16.5305742,3.92110048 C17.9056938,3.58636364 19.1942584,3.19497129 19.6761244,2.96560766 C19.8144976,2.89976555 20.3523445,2.76066029 20.8713876,2.65642105 C21.8544976,2.45902392 22.3688038,2.37341627 25.0863158,1.9554689 C25.9858852,1.81699522 27.0617225,1.62123445 27.4768421,1.5202823 C29.69311,0.981348804 33.457177,0.853194258 37.8569856,1.16690813 Z M27.9172249,2.60833493 C26.0675598,2.72527751 20.9341148,3.43831579 20.368134,3.65685646 C20.2643541,3.69688995 19.5469378,3.83889474 18.7741148,3.97245933 C18.0011483,4.10589474 17.2548804,4.2762201 17.1152153,4.3508756 C16.9756938,4.42566029 16.7022488,4.48646411 16.5074641,4.48607656 C16.1570813,4.48545933 15.9261244,4.55054067 14.0685502,5.17418182 C13.5447703,5.34993301 12.9997177,5.49381818 12.8571675,5.49381818 C12.7147321,5.49381818 12.5276411,5.57879426 12.4414593,5.68264593 C12.3552632,5.78651196 12.1643971,5.87273684 12.0171962,5.87425837 C11.869866,5.87576555 11.6079043,5.98779904 11.4348947,6.12325837 C11.2618995,6.2587177 11.0213254,6.3707512 10.9001627,6.37227273 C10.779,6.3737799 10.6799856,6.42589952 10.6799856,6.48821053 C10.6799856,6.5504067 10.3261722,6.78505263 9.89361244,7.00963636 C9.01086603,7.46811962 8.43271292,7.88632536 8.42177512,8.07453589 C8.41774163,8.14376555 8.24675598,8.31284211 8.04166507,8.450311 C7.8367177,8.5877799 7.39797129,9.01264593 7.06695215,9.39446411 C6.73591866,9.77629665 6.30925837,10.2488756 6.11902392,10.4446364 C5.92866029,10.6403828 5.77301914,10.824689 5.77301914,10.8542727 C5.77301914,10.8839856 5.5247799,11.2635359 5.22130622,11.6979761 C4.68555502,12.4648852 4.38976077,13.1473349 4.20040191,14.0542249 C4.149689,14.2965646 4.05734928,14.5583254 3.99518182,14.6358373 C3.93302871,14.7133493 3.85313397,15.1382297 3.81765072,15.5800478 C3.78229665,16.0217225 3.72215311,16.5380383 3.68415789,16.7270813 C3.61344976,17.0791866 3.98776077,18.497512 4.39089474,19.4045455 C5.08352153,20.962823 6.87696172,22.3517225 8.69013876,22.7335407 C9.73168421,22.9528708 10.8705933,23.2474163 11.1203541,23.3621053 C11.258756,23.4255502 11.7683254,23.5456938 12.2527321,23.6292344 C12.7371388,23.7127751 13.1900813,23.8155502 13.2592823,23.8578947 C13.3284833,23.9002392 13.4983349,23.9438756 13.6367368,23.9550718 C13.7751388,23.9662679 14.3130287,24.0076077 14.8320574,24.0469378 C15.3511005,24.0861244 16.1154545,24.1561722 16.5305742,24.2023923 C16.9458373,24.2486124 17.6819139,24.3043062 18.1662201,24.3261244 C18.6506699,24.3479426 19.556555,24.4458373 20.179378,24.5435885 C20.802201,24.6413397 21.3473684,24.7013397 21.3908612,24.6770813 C21.4680861,24.6338756 23.9556459,24.8157416 24.9605742,24.9378947 C26.2121053,25.0900478 27.2120096,25.1145933 27.4291866,24.9983254 C27.5592344,24.9287081 27.6655981,24.9221053 27.6655981,24.9835407 C27.6655981,25.1095694 35.8910526,25.0644976 37.6682297,24.9287081 C38.2910526,24.8811962 38.9421531,24.8358373 39.1152632,24.8279426 C39.2882297,24.8201914 39.4963636,24.7715311 39.5777512,24.7195694 C39.6591388,24.6678947 40.1687081,24.5945455 40.7101435,24.5567943 C41.2514354,24.5191866 41.807799,24.4154067 41.9461722,24.3264115 C42.0845455,24.2372727 42.4243062,24.1329187 42.7010526,24.0945933 C42.9779426,24.0562679 43.3742584,23.9530622 43.5818182,23.8653589 C43.789378,23.7776555 44.156555,23.6817703 44.3975598,23.652488 C44.6388517,23.6230622 44.9501914,23.5367943 45.0895694,23.4607177 C45.2292344,23.3846411 45.4281818,23.3102871 45.5319617,23.2953589 C46.0403828,23.2222967 48.1296172,22.3755502 49.3066507,21.7656459 C50.7532536,21.015933 51.7896172,20.2367943 52.4190431,19.4257895 C52.6429665,19.1371292 52.8835407,18.8323923 52.9537321,18.7488517 C53.0237799,18.665311 53.0830622,18.5236364 53.0853589,18.4342105 C53.0926794,18.1415311 53.5416746,16.9543062 53.73,16.7290909 C53.9091388,16.5149282 53.9466029,16.0111005 53.7945933,15.8590909 C53.75311,15.8176077 53.7693301,15.6897129 53.830622,15.5750239 C53.9714354,15.3117703 53.6562201,13.3612105 53.3995694,12.9073923 C53.2972249,12.7267321 53.2459809,12.5465885 53.2854545,12.5069426 C53.4320096,12.3605311 52.4791866,10.2293684 51.7464115,9.06413397 C51.4037799,8.51929665 50.5353589,7.46837799 50.2588995,7.26393301 C50.1241148,7.16422967 49.8978947,6.96595694 49.7562201,6.82332057 C49.6144019,6.68056938 49.1296651,6.27143541 48.6789474,5.91390431 C48.2285167,5.55651675 47.7430622,5.15995694 47.6006699,5.03269378 C46.9761244,4.47525359 44.2591866,3.50804785 43.0155502,3.40066507 C42.4966507,3.35585167 41.984067,3.27414833 41.876555,3.21938756 C41.6311005,3.09400478 38.6659809,2.82284211 35.7809569,2.66183254 C33.8178947,2.55218182 29.2919139,2.52146411 27.9172249,2.60833493 Z M34.9632057,3.61695215 C35.1361722,3.62286603 35.3361244,3.67611962 35.4076077,3.73515789 C35.5554545,3.85752632 36.6966029,3.98655502 38.1716268,4.04786124 C38.7251196,4.07077033 39.5178947,4.12491388 39.9330144,4.16796172 C40.8961722,4.26803828 43.4361244,4.7624067 43.5189474,4.86601435 C43.6326316,5.00826316 44.7017225,5.4712823 45.3498086,5.65899043 C46.3277512,5.94223923 48.4755502,7.34814833 49.7969856,8.57002392 C50.8967943,9.58732536 52.4671292,12.2964545 52.8852632,13.898512 C53.1757895,15.0117703 53.0797608,16.5037321 52.6627751,17.3566507 C52.4777512,17.7350239 52.3263158,18.0849761 52.3263158,18.134067 C52.3263158,18.2183254 51.6816746,19.0850239 51.3601435,19.432823 C51.2786124,19.5211005 51.1558852,19.5933014 51.0875598,19.5933014 C51.0190909,19.5933014 50.9444498,19.6379426 50.9211962,19.6923445 C50.8982297,19.74689 50.602823,19.9593301 50.2646411,20.1644498 C49.9266029,20.3697129 49.5020096,20.6325359 49.3210048,20.7486603 C49.1401435,20.8646411 48.8929665,20.9638278 48.7718182,20.9688517 C48.6508134,20.9738756 48.5516268,21.0381818 48.5516268,21.1113876 C48.5516268,21.1847368 48.4952153,21.2097129 48.4261722,21.1670813 C48.3569856,21.1243062 48.1745455,21.1775598 48.0205263,21.2855024 C47.8666507,21.393445 47.5817225,21.4815789 47.3873684,21.4815789 C47.1930144,21.4815789 47.0026794,21.5632536 46.9644976,21.6628708 C46.9261722,21.7623445 46.7157416,21.882201 46.496555,21.9289952 C46.277512,21.975933 46.0415311,22.0561722 45.9723445,22.1074163 C45.9031579,22.1586603 45.5633971,22.2691866 45.2174641,22.3528708 C44.8713876,22.4366986 44.4704785,22.5815311 44.3262201,22.6749761 C44.1821053,22.7684211 43.7857895,22.8823923 43.4455981,22.9283254 C43.1052632,22.9744019 42.5437321,23.0876555 42.197799,23.1799522 C41.8517225,23.2721053 41.3138756,23.3876555 41.0025359,23.4363158 C40.6910526,23.4849761 40.3797129,23.5593301 40.3105263,23.601244 C40.2413397,23.6433014 40.0998086,23.6906699 39.9958852,23.7063158 C39.8246411,23.7325837 36.2933971,23.9747368 35.8439713,23.991244 C35.7400478,23.9949761 35.0606699,24.0275598 34.334067,24.063445 C31.7735885,24.1901914 27.0742105,24.1663636 24.8975598,24.0155024 C20.5580383,23.7147847 20.1874163,23.6804785 19.9963636,23.5623445 C19.9280383,23.52 19.3184211,23.4598565 18.6417703,23.4284211 C16.2684689,23.3184689 13.0014833,22.9159809 12.0010909,22.6103828 C11.1891675,22.362488 9.96394737,22.0768421 9.48469378,22.0240191 C8.93649761,21.963445 7.46579426,21.4096651 7.14709091,21.1438278 C7.03788517,21.0526794 6.89457416,20.9780383 6.82864593,20.9780383 C6.65199043,20.9780383 5.36108612,19.7176077 5.15750239,19.3462679 C4.46286603,18.0792344 4.45228708,18.0423445 4.46009569,16.8866986 C4.4661244,15.9783732 4.53595694,15.566555 4.81238756,14.8095215 C5.0018756,14.2902775 5.18896651,13.7380048 5.22809569,13.5821483 C5.26709569,13.4263062 5.3481244,13.2988995 5.40813876,13.2988995 C5.46803828,13.2988995 5.65512919,13.0264737 5.8237177,12.6935024 C6.07888995,12.1898182 6.5848134,11.4776699 7.34048325,10.5588086 C8.04292823,9.70478469 9.96268421,8.0115933 10.2286651,8.0115933 C10.2631435,8.0115933 10.5053397,7.86631579 10.766799,7.6888134 C11.2191244,7.38163636 11.4691292,7.2561244 12.6301866,6.75308612 C13.4706603,6.38888038 14.3857895,6.06749282 14.4933014,6.09871292 C14.5492823,6.11483254 14.7757895,6.04722488 14.996555,5.94839713 C15.2176077,5.84945455 15.5397129,5.73967464 15.712823,5.70443541 C15.8857895,5.669311 16.5364593,5.49419139 17.1588517,5.315311 C17.7811005,5.13654545 18.4755502,4.99026316 18.7019139,4.99026316 C18.928134,4.99026316 19.2116268,4.93700957 19.3317703,4.87192823 C19.6429665,4.70349761 20.2588995,4.56917225 20.5762679,4.60063636 C20.7252632,4.61536364 20.8850239,4.5665311 20.9309569,4.49211962 C20.97689,4.4175933 21.0673206,4.38927273 21.1316268,4.42917703 C21.1960766,4.46896651 21.3117703,4.46266507 21.3885646,4.41508134 C21.4655024,4.36762679 21.7344976,4.30833014 21.9862679,4.28339713 C22.3822967,4.2441244 22.9264593,4.17173684 23.6417225,4.0632201 C23.7466507,4.04722967 23.9036842,3.99008612 23.9908134,3.93633014 C24.0779426,3.88244498 24.5216268,3.83623923 24.9767943,3.83359809 C25.4321053,3.83095694 26.186555,3.76436842 26.6536364,3.68567943 C27.3320096,3.57137799 32.3955502,3.52944976 34.9632057,3.61695215 Z M47.3234928,9.37508612 C46.9963636,9.58293301 46.6774163,10.860445 46.5907177,12.3097895 C46.4879426,14.0318182 46.5849761,14.3422679 47.2073684,14.2818373 L47.6079904,14.243067 L47.6710048,12.25289 C47.7321531,10.3167273 47.7423445,10.2562967 48.0450718,10.0279378 C48.351244,9.79718182 48.3525359,9.789 48.12,9.53194737 C47.8732536,9.25901914 47.5930622,9.20387081 47.3234928,9.37508612 Z M10.9316268,9.52060766 C10.6495407,9.594 10.6200861,9.66010048 10.6461388,10.1603828 C10.7138325,11.4571579 10.8283206,12.0566268 11.0227177,12.1311531 C11.3909856,12.2726555 11.5607225,11.8035933 11.5607225,10.6446746 C11.5607225,9.47315311 11.5038517,9.37144019 10.9316268,9.52060766 Z M13.2038038,9.70214354 C12.976823,9.97581818 13.1246555,12.730134 13.3879952,13.1321053 C13.4934402,13.2931148 13.6266746,13.4247847 13.6843062,13.4247847 C13.7419234,13.4247847 13.7990526,13.7901244 13.8112536,14.2366507 C13.8235837,14.6830622 13.9091483,15.2997129 14.001488,15.6066029 C14.1143541,15.9818182 14.1488325,16.5577033 14.1066746,17.3639713 C14.024512,18.9374641 14.0959809,19.2156459 14.5827273,19.2156459 C14.7911483,19.2156459 14.9644019,19.1455981 14.9724402,19.0583254 C14.9804785,18.9717703 15.0031579,18.5611005 15.0226794,18.1455502 C15.0423445,17.7301435 15.1168421,17.2405263 15.1884689,17.057512 C15.2837799,16.814067 15.2687081,16.49311 15.1323445,15.8616746 C14.8791388,14.6886603 14.8342105,14.0474354 15.0067464,14.0677033 C15.3144976,14.1038325 15.4719617,14.0476794 15.3981818,13.9283397 C15.3554067,13.85911 15.4191388,13.8024545 15.5397129,13.8024545 C15.9753589,13.8024545 16.8347368,13.2745981 17.2755502,12.7363062 C17.5233014,12.4339234 17.7258373,12.1504163 17.7258373,12.1063636 C17.7258373,12.0622967 17.9523445,11.6925646 18.2290909,11.2846794 C18.7899043,10.4584737 18.8131579,10.3753923 18.5443062,10.1521866 C18.2573684,9.91388038 17.8314833,10.2583206 17.3480383,11.1193923 C16.8624402,11.9846268 16.2739234,12.7563158 15.9836842,12.9087703 C15.8692823,12.9688278 15.5491866,13.0520383 15.2724402,13.093823 C14.835933,13.1596651 14.710622,13.1193876 14.3287464,12.789933 L13.888378,12.4101244 L13.8254785,10.9989187 C13.77389,9.84074641 13.7267081,9.58090909 13.5622536,9.54955981 C13.4520431,9.52867464 13.2907464,9.59727273 13.2038038,9.70214354 Z M23.9267943,10.3090478 C23.8601914,10.3956603 23.714067,10.7993828 23.6016746,11.206378 C23.4892823,11.6135024 23.3662679,11.9775789 23.3283732,12.0155885 C23.2903349,12.0536124 23.1462201,11.9632249 23.0079904,11.8148038 C22.6278947,11.4065455 22.3831579,11.5815359 22.4117225,12.2410622 C22.4361244,12.7973541 22.5782297,12.9255215 22.8592823,12.6442823 C22.9649282,12.5386651 23.0500478,12.5329952 23.142488,12.6255215 C23.2350718,12.7180478 23.2159809,13.1230335 23.0796172,13.9711435 C22.8513876,15.3901435 22.8182297,17.5231579 23.0223445,17.6494737 C23.3440191,17.8484211 23.5599043,17.3424402 23.5980861,16.3007656 C23.6398565,15.1626316 23.7024402,15.0663158 24.4010526,15.0631579 C24.8354067,15.0612919 25.8854067,15.6066029 26.0921053,15.9414833 C26.1963158,16.11 24.5685646,17.6735885 24.0327273,17.9196172 C23.8510048,18.0031579 23.2722488,18.0737799 22.7467464,18.0769378 C21.9465072,18.0818182 21.7541627,18.0417703 21.5633971,17.8309091 C21.4221531,17.6745933 21.1758373,17.5791388 20.9147368,17.5791388 C20.5515789,17.5791388 20.4938756,17.6214833 20.4938756,17.888756 C20.4938756,18.6172249 21.7583254,19.159378 23.1142105,19.0123923 C23.6288038,18.9564115 24.1166986,18.7751196 24.8618182,18.3627273 C26.2474163,17.595933 26.7486603,17.1630144 26.9223445,16.5832536 C27.1098086,15.9569856 26.9055502,15.637177 25.8277033,14.867512 C25.385311,14.5517225 25.023445,14.2650861 25.023445,14.2307225 C25.023445,14.1962297 25.1649761,14.0368565 25.3379426,13.8764785 C25.5109091,13.7159713 25.6525837,13.4605407 25.6525837,13.3088469 C25.6525837,12.9655407 24.9519617,12.3017368 24.4886124,12.2059378 C24.1076555,12.127134 24.0021531,11.7084258 24.3314354,11.5820383 C24.4669378,11.5299187 24.5201914,11.3179234 24.5201914,10.8306029 C24.5201914,10.2503828 24.4857416,10.1516842 24.2837799,10.1516842 C24.1540191,10.1516842 23.9932536,10.2225646 23.9267943,10.3090478 Z M28.6759809,11.0238517 C28.5920096,11.2266459 28.4570813,11.4178708 28.3761244,11.4489761 C28.2951675,11.480067 28.0982297,11.7673349 27.9384689,12.0874737 C27.7435407,12.4781053 27.568134,12.6694593 27.4052153,12.6694593 C27.2300957,12.6694593 27.1623445,12.7572057 27.1623445,12.9841722 C27.1623445,13.1572823 27.2237799,13.2988995 27.2988517,13.2988995 C27.374067,13.2988995 27.2909569,13.5576029 27.1142584,13.8739522 C26.650622,14.7038756 26.5814354,15.2038278 26.8911962,15.4843062 C27.1221531,15.693445 27.1642105,15.695311 27.4468421,15.51 C27.8213397,15.2645455 28.1044019,14.694689 27.9355981,14.5257416 C27.8600957,14.4502392 27.9058852,14.1905742 28.0599043,13.8210861 C28.291866,13.2646507 28.3297608,13.2346938 28.8340191,13.2102775 C29.1256938,13.1960526 29.6207656,13.2673062 29.9341148,13.3685167 C30.5015311,13.551689 30.5054067,13.5568421 30.7329187,14.440622 C31.2066029,16.2805263 31.1652632,16.1944019 31.5719139,16.1944019 C31.7763158,16.1944019 31.9435407,16.1344019 31.9435407,16.0613397 C31.9435407,15.8323923 31.6600478,14.7529665 31.565311,14.6207656 C31.5156459,14.5514354 31.4344019,14.3248852 31.3850239,14.1171818 C31.1763158,13.2409952 30.3772249,11.6797177 29.8531579,11.1239282 C29.3023923,10.5398038 28.8908612,10.5048086 28.6759809,11.0238517 Z M33.5791866,11.2768852 C33.4060766,11.3281148 33.278756,11.435756 33.2961244,11.5161962 C33.3133493,11.5965072 33.2803349,11.6623493 33.2226316,11.6623493 C33.1649282,11.6623493 32.9101435,11.9638565 32.6563636,12.3324545 C32.0794737,13.1706172 32.0480383,13.7024928 32.5411005,14.280445 C32.8057895,14.5907656 33.0432057,14.7147847 33.5510526,14.8082297 C34.5189474,14.9860766 34.6807177,15.100622 34.6132536,15.5599522 C34.5367464,16.0817225 33.9022967,16.5513876 33.5615311,16.3383732 C33.3727751,16.2205263 33.2609569,16.2321531 33.0116268,16.3956459 C32.6504785,16.632488 32.6448804,16.6581818 32.8557416,17.112488 C32.9833493,17.387512 33.0977512,17.4513876 33.4632057,17.4522512 C34.1280861,17.4536842 35.0556459,16.796555 35.3463158,16.1183254 C35.5699522,15.5961244 35.5698086,15.5658373 35.3444498,15.0988995 C35.0164593,14.4198086 34.7269378,14.2003923 33.9696172,14.0567512 C33.1386603,13.8990144 33.075933,13.8580909 33.075933,13.4748947 C33.075933,13.0935789 34.1348325,11.914134 34.477177,11.914134 C34.76311,11.914134 34.782201,11.6250861 34.5139234,11.3565646 C34.3032057,11.1459617 34.0848804,11.1273301 33.5791866,11.2768852 Z M37.4797608,11.4420431 C37.4800478,11.5569761 37.2423445,11.5880813 36.5991388,11.5576077 C36.1145455,11.5345694 35.7180861,11.5645407 35.7180861,11.6239522 C35.7180861,11.8577225 36.1188517,12.2833636 36.6608612,12.6253923 C37.0577512,12.8757847 37.2048804,13.041201 37.1480383,13.1730144 C36.982823,13.5558373 36.9486603,14.0542249 37.0878947,14.0542249 C37.1648325,14.0542249 37.2278469,14.2272057 37.2278469,14.4386124 C37.2278469,14.9362679 36.8569378,16.5994737 36.711244,16.7544976 C36.649378,16.8202392 36.5988517,16.9761244 36.5988517,17.1007177 C36.5988517,17.2672249 36.6963158,17.3273684 36.9660287,17.3273684 C37.4836364,17.3273684 37.731244,17.2088038 37.731244,16.9613397 C37.731244,16.8442105 37.7860766,16.6933493 37.85311,16.6263158 C37.9477033,16.5315789 38.2326316,13.7860909 38.2342105,12.9527081 C38.2343541,12.8547703 38.412488,12.7956029 38.7063158,12.7961053 C39.1785646,12.7969809 39.4274641,13.0401962 39.7676555,13.833933 C39.8196172,13.9551531 39.9551196,14.0542249 40.0688038,14.0542249 C40.2391866,14.0542249 40.2604306,14.1373206 40.189378,14.5263158 C40.141866,14.7859809 40.0309091,15.1116746 39.9427751,15.2501914 C39.8544976,15.3887081 39.7403828,15.7286124 39.6891388,16.0055024 C39.6378947,16.2823923 39.5509091,16.5657416 39.495933,16.6349282 C39.3467943,16.8225359 39.5796172,17.3273684 39.8151675,17.3273684 C40.3085167,17.3273684 41.0023923,16.5509569 40.6224402,16.4242105 C40.5450718,16.3983732 40.6066507,16.0721053 40.7776077,15.6025837 C41.0992823,14.7188038 41.1544019,14.6879426 42.42,14.6855024 C43.2608612,14.6836364 43.2734928,14.6886603 43.448756,15.0928708 C43.5463636,15.317799 43.7804785,16.1110048 43.9692344,16.8552632 C44.3088517,18.1947847 44.4555502,18.4073684 44.7746411,18.0226794 C44.9560766,17.8037799 44.9006699,17.0836364 44.6191866,16.0055024 C44.2360766,14.5380861 44.2347847,14.5970813 44.6527751,14.5135407 C44.8594737,14.4720574 45.0287081,14.3609569 45.0287081,14.2664785 C45.0287081,14.075756 44.5151196,13.8024545 44.1566986,13.8024545 C43.9930622,13.8024545 43.8400478,13.5908325 43.6332057,13.0785933 C43.4721531,12.6805407 43.1715789,12.1140431 42.9651675,11.8197129 C42.6374641,11.3527895 42.5299522,11.2846794 42.1195694,11.2846794 C41.7043062,11.2846794 41.6056938,11.3495167 41.2752632,11.8393493 C41.0695694,12.1445024 40.863445,12.5127273 40.817512,12.6576316 C40.7358373,12.9150718 40.3733971,13.0354163 40.3733971,12.8051627 C40.3733971,12.7412153 40.1611005,12.6211148 39.9015789,12.5381627 C39.642201,12.4551962 39.375933,12.3374928 39.3101914,12.2765598 C39.2445933,12.215756 39.1030622,12.1656459 38.9956938,12.1652727 C38.8883254,12.1650287 38.5851675,11.9667416 38.3217703,11.7246603 C37.8347368,11.2771292 37.4793301,11.1577895 37.4797608,11.4420431 Z M29.7416268,12.1545789 C29.9491866,12.3898565 30.0343062,12.5333684 29.9305263,12.4733254 C29.6913876,12.3348517 29.3011005,12.3255359 29.0210526,12.4515502 C28.8539713,12.5266938 28.8215311,12.5027799 28.8808134,12.3483158 C28.9356459,12.2053062 29.0530622,12.1685455 29.28689,12.2211675 C29.5517225,12.2808373 29.5739713,12.269756 29.4008612,12.1642679 C29.2794258,12.090244 29.2177033,11.950378 29.2591866,11.8423636 C29.299378,11.737378 29.3395694,11.6683923 29.3483254,11.6890335 C29.3570813,11.709689 29.534067,11.9191579 29.7416268,12.1545789 Z M42.7576077,13.2608756 C42.8204785,13.5933589 42.8333971,13.9002632 42.7864593,13.9429378 C42.739378,13.9856268 42.4421053,13.9856268 42.1255981,13.9429378 L41.55,13.8653971 L41.7500957,13.2890813 C41.8689474,12.9467943 42.0132057,12.7337943 42.1055024,12.7644976 C42.2039713,12.7973684 42.2606699,12.6873301 42.2606699,12.4631196 C42.2606699,12.1111435 42.2613876,12.1108852 42.4520096,12.3831818 C42.5572249,12.5334976 42.6947368,12.9285359 42.7576077,13.2608756 Z M17.3687081,13.1159856 C17.2883254,13.2923541 17.2225837,13.5446411 17.2225837,13.6765694 C17.2225837,14.0296794 16.9459809,14.5955024 16.6759809,14.7948804 C16.4961244,14.9276555 16.4566507,15.0703349 16.5096172,15.39689 C16.547799,15.6322967 16.4979904,16.0920574 16.3988038,16.4186124 C16.1562201,17.2189952 16.1674163,17.4532536 16.4490431,17.4532536 C16.6297608,17.4532536 16.7616746,17.2136842 17.0356938,16.3888995 C17.2300478,15.8033971 17.4544019,15.2994258 17.534067,15.2688517 C17.6137321,15.2382775 17.8240191,15.2410048 18.0014354,15.2748804 C18.2747368,15.3271292 18.3357416,15.4224402 18.4010526,15.8994258 C18.5470335,16.9653589 18.9061722,18.2348325 19.0804306,18.301866 C19.1766029,18.338756 19.3419617,18.2820574 19.4480383,18.1759809 C19.6211483,18.0027273 19.6184211,17.8952153 19.4220574,17.1202392 C19.3017703,16.6456938 19.1988517,15.8764593 19.1933971,15.4109569 C19.1869378,14.8617703 19.1286603,14.5435407 19.0273206,14.5047847 C18.9416268,14.4717703 18.8068421,14.2011388 18.7277512,13.9032919 C18.4594737,12.8917751 17.6770335,12.4385742 17.3687081,13.1159856 Z M24.4245933,13.3936938 C24.3378947,13.4226459 24.2971292,13.4952919 24.3341627,13.5550766 C24.3711962,13.6150048 24.3007177,13.7178517 24.1777033,13.7836938 C23.9933971,13.8822632 23.950622,13.8499091 23.9358373,13.6011531 C23.9257895,13.4348612 23.9717225,13.2988995 24.0376077,13.2988995 C24.1034928,13.2988995 24.1189952,13.2365885 24.0719139,13.1604258 C24.0188038,13.0741866 24.0986124,13.0821244 24.2844976,13.1815694 C24.4660766,13.2787608 24.5207656,13.3615981 24.4245933,13.3936938 Z M24.0851196,13.4161005 C24.0453589,13.4805502 24.0608612,13.5630144 24.1197129,13.5994019 C24.1784211,13.6357751 24.2266507,13.5830239 24.2266507,13.4821866 C24.2266507,13.2699474 24.18689,13.251445 24.0851196,13.4161005 Z M10.5883923,13.7080335 C10.521201,13.7946459 10.4074593,15.0173684 10.3357464,16.4255024 C10.2573589,17.9652632 10.1495311,19.0413876 10.0652297,19.1257895 C9.84302871,19.348134 9.90190909,19.6949282 10.1767033,19.782201 C10.5151579,19.8897129 10.8894689,19.7576555 10.9933923,19.4941148 C11.1282775,19.152201 11.3309713,18.0554067 11.3357512,17.6420096 C11.3381483,17.4343062 11.3970287,17.2283254 11.466488,17.1841148 C11.5395789,17.1376077 11.548134,17.0313876 11.4867416,16.9323445 C11.4282344,16.8380383 11.3980335,16.1216268 11.4194211,15.3401914 C11.4600574,13.8607464 11.375512,13.5506699 10.9316268,13.5506699 C10.8102057,13.5506699 10.6556986,13.6215502 10.5883923,13.7080335 Z M47.041866,16.2591388 C47.041866,16.364067 46.8660287,16.7615311 46.6511483,17.1423445 C46.2782297,17.8036364 46.2699043,17.8489952 46.4654067,18.1475598 C46.7855024,18.6364593 47.2934928,18.4758373 47.2934928,17.8855981 C47.2934928,17.7357416 47.4067464,17.4690431 47.5451196,17.2929187 C47.8276077,16.9337799 47.87311,16.4470335 47.6457416,16.2195215 C47.4325837,16.0060766 47.041866,16.0316268 47.041866,16.2591388 Z M0.299866507,27.0206699 C0.257087081,27.09 0.310435407,27.146555 0.418263158,27.146555 C0.526089474,27.146555 0.614415789,27.09 0.614415789,27.0206699 C0.614415789,26.9514833 0.56119378,26.8947847 0.496019139,26.8947847 C0.430844498,26.8947847 0.342644498,26.9514833 0.299866507,27.0206699 Z" id="Shape"></path>
            </g>
        </g>
    </g>
</svg>