<?xml version="1.0" encoding="UTF-8"?>
<svg width="30px" height="31px" viewBox="0 0 30 31" version="1.1" xmlns="http://www.w3.org/2000/svg" xmlns:xlink="http://www.w3.org/1999/xlink">
    <!-- Generator: Sketch 64 (93537) - https://sketch.com -->
    <title>Group 8</title>
    <desc>Created with Sketch.</desc>
    <defs>
        <path d="M28.7076364,0.363636364 L2.00763636,0.363636364 C1.09773636,0.370236364 0.363636364,1.10973636 0.363636364,2.01963636 L0.363636364,28.7196364 C0.370236364,29.6295364 1.10943636,30.3636364 2.01963636,30.3636364 L16.3893364,30.3636364 L16.3893364,18.7626364 L12.4893364,18.7626364 L12.4893364,14.2206364 L16.3893364,14.2206364 L16.3893364,10.8786364 C16.3893364,7.00563636 18.7563364,4.89363636 22.2126364,4.89363636 C23.3787364,4.88853636 24.5448364,4.94883636 25.7043364,5.07363636 L25.7043364,9.12363636 L23.3226364,9.12363636 C21.4413364,9.12363636 21.0756364,10.0236364 21.0756364,11.3286364 L21.0756364,14.2206364 L25.5636364,14.2206364 L24.9636364,18.7626364 L21.0636364,18.7626364 L21.0636364,30.3636364 L28.7076364,30.3636364 C29.6220364,30.3636364 30.3636364,29.6220364 30.3636364,28.7076364 L30.3636364,2.00763636 C30.3567364,1.09773636 29.6172364,0.363636364 28.7076364,0.363636364" id="path-1"></path>
    </defs>
    <g id="Page-1" stroke="none" stroke-width="1" fill="none" fill-rule="evenodd">
        <g id="Home" transform="translate(-776.000000, -25006.000000)">
            <g id="Icon/Facebook" transform="translate(775.000000, 25005.500000)">
                <g id="Group-8" transform="translate(0.636364, 0.636364)">
                    <mask id="mask-2" fill="white">
                        <use xlink:href="#path-1"></use>
                    </mask>
                    <use id="Mask" fill="#D8D8D8" xlink:href="#path-1"></use>
                    <g id="Color/Grey" mask="url(#mask-2)" fill="#4A4A4A">
                        <g transform="translate(-1.000000, -1.000000)" id="Color">
                            <rect x="0" y="0" width="32.7272727" height="32.7272727"></rect>
                        </g>
                    </g>
                </g>
            </g>
        </g>
    </g>
</svg>