<?xml version="1.0" encoding="UTF-8"?>
<svg width="83px" height="20px" viewBox="0 0 83 20" version="1.1" xmlns="http://www.w3.org/2000/svg" xmlns:xlink="http://www.w3.org/1999/xlink">
    <!-- Generator: Sketch 64 (93537) - https://sketch.com -->
    <title>Apple_Music_logo</title>
    <desc>Created with Sketch.</desc>
    <g id="Page-1" stroke="none" stroke-width="1" fill="none" fill-rule="evenodd">
        <g id="Home" transform="translate(-979.000000, -24938.000000)" fill="#1C1C1C" fill-rule="nonzero">
            <g id="Apple_Music_logo" transform="translate(979.000000, 24938.000000)">
                <path d="M34.6808159,19.798995 L34.6808159,6.23115578 L34.5807762,6.23115578 L29.1786314,19.798995 L27.0777973,19.798995 L21.6756525,6.23115578 L21.5756128,6.23115578 L21.5756128,19.798995 L19.0746198,19.798995 L19.0746198,1.40703518 L22.2758908,1.40703518 L28.0781945,16.080402 L28.1782342,16.080402 L33.9805379,1.40703518 L37.2818486,1.40703518 L37.2818486,19.798995 L34.6808159,19.798995 L34.6808159,19.798995 Z M51.3874489,19.798995 L48.7864162,19.798995 L48.7864162,17.4874372 L48.6863765,17.4874372 C47.9860985,19.0954774 46.5855424,20 44.5847481,20 C41.6835962,20 39.982921,18.0904523 39.982921,14.9748744 L39.982921,6.33165829 L42.6839934,6.33165829 L42.6839934,14.4723618 C42.6839934,16.4824121 43.6843906,17.5879397 45.4851055,17.5879397 C47.4858999,17.5879397 48.5863368,16.1809045 48.5863368,14.0703518 L48.5863368,6.33165829 L51.2874092,6.33165829 L51.3874489,19.798995 L51.3874489,19.798995 Z M58.7903881,6.13065327 C61.8916194,6.13065327 63.792374,7.83919598 63.8924137,10.3517588 L61.3914208,10.3517588 C61.1913413,9.04522613 60.2909839,8.24120603 58.7903881,8.24120603 C57.2897923,8.24120603 56.2893951,8.94472362 56.2893951,10.0502513 C56.2893951,10.8542714 56.8896334,11.4572864 58.2901895,11.758794 L60.3910236,12.2613065 C63.092096,12.8643216 64.0924932,13.9698492 64.0924932,15.879397 C64.0924932,18.2914573 61.8916194,20 58.7903881,20 C55.4890774,20 53.488283,18.3919598 53.2882036,15.7788945 L55.989276,15.7788945 C56.1893554,17.1859296 57.1897526,17.8894472 58.7903881,17.8894472 C60.3910236,17.8894472 61.3914208,17.1859296 61.3914208,16.080402 C61.3914208,15.1758794 60.8912222,14.6733668 59.4906661,14.3718593 L57.389832,13.8693467 C54.8888391,13.2663317 53.6883624,12.0603015 53.6883624,10.0502513 C53.6883624,7.73869347 55.6891568,6.13065327 58.7903881,6.13065327 Z M66.0932876,2.81407035 C66.0932876,1.90954774 66.7935656,1.20603015 67.6939231,1.20603015 C68.5942805,1.20603015 69.2945585,1.90954774 69.2945585,2.81407035 C69.2945585,3.71859296 68.5942805,4.42211055 67.6939231,4.42211055 C66.7935656,4.42211055 66.0932876,3.71859296 66.0932876,2.81407035 L66.0932876,2.81407035 Z M66.293367,6.33165829 L68.9944394,6.33165829 L68.9944394,19.798995 L66.293367,19.798995 L66.293367,6.33165829 Z M80.3989673,10.9547739 C80.0988482,9.54773869 79.098451,8.34170854 77.297736,8.34170854 C75.1969019,8.34170854 73.7963459,10.1507538 73.7963459,12.9648241 C73.7963459,15.879397 75.1969019,17.5879397 77.297736,17.5879397 C78.9984113,17.5879397 79.9988084,16.6834171 80.3989673,15.0753769 L83,15.0753769 C82.6998808,17.8894472 80.499007,19.8994975 77.297736,19.8994975 C73.4962267,19.8994975 71.0952735,17.2864322 71.0952735,12.9648241 C71.0952735,8.74371859 73.4962267,6.03015075 77.297736,6.03015075 C80.6990865,6.03015075 82.6998808,8.24120603 83,10.8542714 L80.3989673,10.9547739 L80.3989673,10.9547739 Z M10.7713232,3.2160804 C10.0710451,4.0201005 8.97060822,4.72361809 7.87017132,4.62311558 C7.67009188,3.41708543 8.27033019,2.21105528 8.87056851,1.50753769 C9.57084654,0.603015075 10.7713232,0 11.7717203,0 C11.8717601,1.10552764 11.4716012,2.31155779 10.7713232,3.2160804 L10.7713232,3.2160804 Z M11.7717203,4.8241206 C12.3719587,4.8241206 14.1726736,5.02512563 15.3731502,6.83417085 C15.2731105,6.93467337 13.2723161,8.14070352 13.2723161,10.6532663 C13.2723161,13.6683417 15.8733488,14.6733668 15.8733488,14.6733668 C15.8733488,14.7738693 15.4731899,16.080402 14.5728325,17.4874372 C13.7725147,18.6934673 12.8721572,19.8994975 11.5716409,19.8994975 C10.2711246,19.8994975 9.87096569,19.0954774 8.37036991,19.0954774 C6.86977413,19.0954774 6.36957554,19.8994975 5.16909892,19.8994975 C3.86858257,19.8994975 2.86818539,18.5929648 2.06786764,17.3869347 C0.367192423,14.8743719 -0.933323919,10.3517588 0.867391016,7.33668342 C1.66770876,5.82914573 3.26834426,4.8241206 4.86897976,4.8241206 C6.1694961,4.8241206 7.36997273,5.72864322 8.07025076,5.72864322 C8.77052879,5.72864322 10.1710848,4.72361809 11.7717203,4.8241206 L11.7717203,4.8241206 Z" id="Shape"></path>
            </g>
        </g>
    </g>
</svg>