<?xml version="1.0" encoding="UTF-8"?>
<svg width="125px" height="30px" viewBox="0 0 125 30" version="1.1" xmlns="http://www.w3.org/2000/svg" xmlns:xlink="http://www.w3.org/1999/xlink">
    <!-- Generator: Sketch 64 (93537) - https://sketch.com -->
    <title>Apple_Music_logo</title>
    <desc>Created with Sketch.</desc>
    <g id="Page-1" stroke="none" stroke-width="1" fill="none" fill-rule="evenodd">
        <g id="Home" transform="translate(-926.000000, -25004.000000)" fill="#1C1C1C" fill-rule="nonzero">
            <g id="Apple_Music_logo" transform="translate(926.000000, 25004.000000)">
                <path d="M51.9316865,29.6984925 L51.9316865,9.34673367 L51.7818852,9.34673367 L43.692615,29.6984925 L40.5467877,29.6984925 L32.4575175,9.34673367 L32.3077162,9.34673367 L32.3077162,29.6984925 L28.5626837,29.6984925 L28.5626837,2.11055276 L33.3563253,2.11055276 L42.0448007,24.120603 L42.194602,24.120603 L50.8830774,2.11055276 L55.8265203,2.11055276 L55.8265203,29.6984925 L51.9316865,29.6984925 L51.9316865,29.6984925 Z M76.9485035,29.6984925 L73.0536697,29.6984925 L73.0536697,26.2311558 L72.9038684,26.2311558 C71.8552593,28.6432161 69.7580412,30 66.7620152,30 C62.4177775,30 59.8711554,27.1356784 59.8711554,22.4623116 L59.8711554,9.49748744 L63.9157905,9.49748744 L63.9157905,21.7085427 C63.9157905,24.7236181 65.4138035,26.3819095 68.1102269,26.3819095 C71.1062528,26.3819095 72.7540671,24.2713568 72.7540671,21.1055276 L72.7540671,9.49748744 L76.7987022,9.49748744 L76.9485035,29.6984925 L76.9485035,29.6984925 Z M88.0337997,9.1959799 C92.67764,9.1959799 95.5238647,11.758794 95.673666,15.5276382 L91.9286335,15.5276382 C91.6290309,13.5678392 90.2808192,12.361809 88.0337997,12.361809 C85.7867802,12.361809 84.2887672,13.4170854 84.2887672,15.0753769 C84.2887672,16.281407 85.187575,17.1859296 87.2847932,17.638191 L90.4306205,18.3919598 C94.4752556,19.2964824 95.9732686,20.9547739 95.9732686,23.8190955 C95.9732686,27.4371859 92.67764,30 88.0337997,30 C83.0903568,30 80.0943308,27.5879397 79.7947282,23.6683417 L83.8393633,23.6683417 C84.1389659,25.7788945 85.6369789,26.8341709 88.0337997,26.8341709 C90.4306205,26.8341709 91.9286335,25.7788945 91.9286335,24.120603 C91.9286335,22.7638191 91.179627,22.0100503 89.0824088,21.5577889 L85.9365815,20.8040201 C82.191549,19.8994975 80.3939334,18.0904523 80.3939334,15.0753769 C80.3939334,11.6080402 83.3899594,9.1959799 88.0337997,9.1959799 Z M98.9692946,4.22110553 C98.9692946,2.86432161 100.017904,1.80904523 101.366115,1.80904523 C102.714327,1.80904523 103.762936,2.86432161 103.762936,4.22110553 C103.762936,5.57788945 102.714327,6.63316583 101.366115,6.63316583 C100.017904,6.63316583 98.9692946,5.57788945 98.9692946,4.22110553 L98.9692946,4.22110553 Z M99.2688972,9.49748744 L103.313532,9.49748744 L103.313532,29.6984925 L99.2688972,29.6984925 L99.2688972,9.49748744 Z M120.39088,16.4321608 C119.941477,14.321608 118.443464,12.5125628 115.74704,12.5125628 C112.601213,12.5125628 110.503995,15.2261307 110.503995,19.4472362 C110.503995,23.8190955 112.601213,26.3819095 115.74704,26.3819095 C118.293662,26.3819095 119.791675,25.0251256 120.39088,22.6130653 L124.285714,22.6130653 C123.83631,26.8341709 120.540682,29.8492462 115.74704,29.8492462 C110.054591,29.8492462 106.45936,25.9296482 106.45936,19.4472362 C106.45936,13.1155779 110.054591,9.04522613 115.74704,9.04522613 C120.840284,9.04522613 123.83631,12.361809 124.285714,16.281407 L120.39088,16.4321608 L120.39088,16.4321608 Z M16.1291758,4.8241206 C15.0805667,6.03015075 13.4327524,7.08542714 11.7849381,6.93467337 C11.4853355,5.12562814 12.3841433,3.31658291 13.2829511,2.26130653 C14.3315602,0.904522613 16.1291758,0 17.6271888,0 C17.7769901,1.65829146 17.1777849,3.46733668 16.1291758,4.8241206 L16.1291758,4.8241206 Z M17.6271888,7.2361809 C18.5259966,7.2361809 21.22242,7.53768844 23.0200356,10.2512563 C22.8702343,10.4020101 19.8742083,12.2110553 19.8742083,15.9798995 C19.8742083,20.5025126 23.7690421,22.0100503 23.7690421,22.0100503 C23.7690421,22.160804 23.1698369,24.120603 21.8216252,26.2311558 C20.6232148,28.040201 19.2750031,29.8492462 17.3275862,29.8492462 C15.3801693,29.8492462 14.7809641,28.6432161 12.5339446,28.6432161 C10.2869251,28.6432161 9.53791862,29.8492462 7.74030302,29.8492462 C5.79288613,29.8492462 4.29487313,27.8894472 3.09646273,26.080402 C0.549840633,22.3115578 -1.39757626,15.5276382 1.29884713,11.0050251 C2.49725753,8.74371859 4.89407833,7.2361809 7.29089912,7.2361809 C9.23831602,7.2361809 11.0359316,8.59296482 12.0845407,8.59296482 C13.1331498,8.59296482 15.230368,7.08542714 17.6271888,7.2361809 L17.6271888,7.2361809 Z" id="Shape"></path>
            </g>
        </g>
    </g>
</svg>