<?xml version="1.0" encoding="UTF-8"?>
<svg width="30px" height="31px" viewBox="0 0 30 31" version="1.1" xmlns="http://www.w3.org/2000/svg" xmlns:xlink="http://www.w3.org/1999/xlink">
    <!-- Generator: Sketch 64 (93537) - https://sketch.com -->
    <title>Group</title>
    <desc>Created with Sketch.</desc>
    <defs>
        <path d="M15.3636364,30.3636364 C23.6436364,30.3636364 30.3636364,23.6436364 30.3636364,15.3636364 C30.3636364,7.08363636 23.6436364,0.363636364 15.3636364,0.363636364 C7.08363636,0.363636364 0.363636364,7.08363636 0.363636364,15.3636364 C0.363636364,23.6436364 7.08363636,30.3636364 15.3636364,30.3636364 Z M21.4536364,22.4336364 L21.4536364,22.4348864 C20.4448864,22.4348864 17.2586364,18.8998864 8.30363636,20.7348864 C8.06738636,20.7961364 7.75863636,20.8923864 7.58363636,20.8923864 C6.43988636,20.8923864 6.22113636,19.1811364 7.45113636,18.9198864 C12.4048864,17.8261364 17.4673864,17.9223864 21.7848864,20.5048864 C22.8148864,21.1623864 22.3773864,22.4336364 21.4536364,22.4336364 L21.4536364,22.4336364 Z M23.0823864,18.4673864 C22.9411364,18.4298864 22.9823864,18.5536364 22.3361364,18.2136364 C18.5548864,15.9761364 12.9198864,15.0736364 7.90488636,16.4348864 C7.61488636,16.5136364 7.45738636,16.5923864 7.18488636,16.5923864 C5.84613636,16.5923864 5.49113636,14.5786364 6.94988636,14.1673864 C12.8448864,12.5111364 19.1686364,13.4773864 23.5711364,16.0961364 C24.0611364,16.3861364 24.2548864,16.7623864 24.2548864,17.2873864 C24.2486364,17.9398864 23.7411364,18.4673864 23.0823864,18.4673864 L23.0823864,18.4673864 Z M6.04863636,9.11113636 C11.7023864,7.45613636 20.2586364,7.97863636 25.5786364,11.0836364 C26.9423864,11.8698864 26.4061364,13.8586364 24.9561364,13.8586364 L24.9548864,13.8573864 C24.6398864,13.8573864 24.4461364,13.7786364 24.1736364,13.6211364 C19.8698864,11.0511364 12.1686364,10.4348864 7.18613636,11.8261364 C6.96738636,11.8861364 6.69488636,11.9823864 6.40488636,11.9823864 C5.60613636,11.9823864 4.99613636,11.3586364 4.99613636,10.5548864 C4.99613636,9.73363636 5.50488636,9.26863636 6.04863636,9.11113636 L6.04863636,9.11113636 Z" id="path-1"></path>
    </defs>
    <g id="Page-1" stroke="none" stroke-width="1" fill="none" fill-rule="evenodd">
        <g id="Home" transform="translate(-874.000000, -25006.000000)">
            <g id="Group" transform="translate(873.636364, 25006.136364)">
                <mask id="mask-2" fill="white">
                    <use xlink:href="#path-1"></use>
                </mask>
                <use id="Icon" fill="#1C1C1C" fill-rule="nonzero" xlink:href="#path-1"></use>
            </g>
        </g>
    </g>
</svg>