<?xml version="1.0" encoding="UTF-8"?>
<svg width="183px" height="30px" viewBox="0 0 183 30" version="1.1" xmlns="http://www.w3.org/2000/svg" xmlns:xlink="http://www.w3.org/1999/xlink">
    <!-- Generator: Sketch 64 (93537) - https://sketch.com -->
    <title>mam-logo</title>
    <desc>Created with Sketch.</desc>
    <g id="Page-1" stroke="none" stroke-width="1" fill="none" fill-rule="evenodd">
        <g id="Home" transform="translate(-315.000000, -25007.000000)" fill="#1C1C1C" fill-rule="nonzero">
            <g id="mam-logo" transform="translate(315.000000, 25007.000000)">
                <path d="M91.8294,1.9378882 L89.5968,1.9378882 C89.1576,1.9378882 88.755,2.1242236 88.4622,2.45962733 C88.389,2.57142857 88.3158,2.64596273 88.2792,2.72049689 L88.2792,2.75776398 L76.0182,22.2111801 L63.7572,2.68322981 C63.7206,2.64596273 63.684,2.60869565 63.684,2.57142857 L63.6474,2.53416149 C63.6474,2.49689441 63.6108,2.49689441 63.6108,2.49689441 C63.4412632,2.52680647 63.2679368,2.52680647 63.0984,2.49689441 L60.8658,2.49689441 C59.9874,2.49689441 59.292,3.20496894 59.292,4.09937888 L59.292,20.1987578 L49.6662,5.2173913 L48.1656,2.9068323 L48.0192,2.68322981 C47.7264,2.23602484 47.214,1.97515528 46.6284,1.97515528 C46.3356,1.97515528 46.0428,2.04968944 45.7866,2.19875776 L45.7866,2.23602484 C45.6036,2.34782609 45.4206,2.49689441 45.3108,2.72049689 L44.7984,3.46583851 L43.6272,5.2173913 L34.7334,19.6024845 L34.7334,3.54037267 C34.7334,2.64596273 34.038,1.9378882 33.1596,1.9378882 L30.927,1.9378882 C30.4878,1.9378882 30.0852,2.1242236 29.7924,2.45962733 C29.7192,2.57142857 29.097,3.42857143 29.097,3.42857143 L17.385,22.136646 L5.124,2.68322981 C5.0874,2.64596273 5.0508,2.60869565 5.0142,2.53416149 L4.941,2.45962733 L4.8678,2.38509317 L4.8312,2.34782609 C4.758,2.31055901 4.758,2.27329193 4.7214,2.23602484 C4.7214,2.23602484 4.6848,2.23602484 4.6848,2.19875776 C4.6482,2.16149068 4.6116,2.16149068 4.575,2.1242236 C4.575,2.1242236 4.5384,2.1242236 4.5384,2.08695652 C4.5018,2.04968944 4.4652,2.04968944 4.4286,2.04968944 C4.4286,2.04968944 4.392,2.04968944 4.392,2.01242236 C4.3554,2.01242236 4.3188,1.97515528 4.2822,1.97515528 L4.209,1.97515528 C4.1724,1.97515528 4.1358,1.9378882 4.0992,1.9378882 L1.5738,1.9378882 C0.6954,1.9378882 0,2.64596273 0,3.54037267 L0,28.3975155 C0,29.2919255 0.6954,30 1.5738,30 L3.4404,30 C4.3188,30 5.0142,29.2919255 5.0142,28.3975155 L5.0142,11.7018634 L14.3838,26.7204969 L16.104,29.4409938 L16.1772,29.4782609 C16.4334,29.7391304 16.7628,29.9254658 17.1288,29.9627329 C17.2386,30 17.3118,30 17.4216,30 C17.934,30 18.4464,29.7391304 18.7392,29.2919255 L29.7192,11.7391304 L29.7192,28.3602484 C29.7192,29.2546584 30.4146,29.9627329 31.293,29.9627329 L33.1596,29.9627329 C33.5622,29.9627329 33.9282,29.8136646 34.221,29.515528 C34.2942,29.4037267 34.3674,29.3291925 34.404,29.2546584 L46.665,9.80124224 L58.7796,29.068323 C58.8528,29.2173913 58.9626,29.3664596 59.0724,29.4782609 L59.109,29.515528 C59.4018,29.8136646 59.7678,29.9627329 60.1704,29.9627329 L62.037,29.9627329 C62.9154,29.9627329 63.6108,29.2546584 63.6108,28.3602484 L63.6108,11.7391304 L74.5908,29.2546584 C74.8836,29.7018634 75.3594,29.9627329 75.9084,29.9627329 L76.0548,29.9627329 C76.5672,29.9627329 77.0796,29.7018634 77.3724,29.2546584 L88.3524,11.7018634 L88.3524,28.3602484 C88.3524,29.2546584 89.0478,29.9627329 89.9262,29.9627329 L91.7928,29.9627329 C92.6712,29.9627329 93.3666,29.2546584 93.3666,28.3602484 L93.3666,3.54037267 C93.4032,2.64596273 92.6712,1.9378882 91.8294,1.9378882 M105.9936,2.19875776 L105.9936,8.94409938 L104.7492,8.94409938 L104.7492,4.28571429 L102.5898,7.22981366 L102.48,7.22981366 L100.3206,4.28571429 L100.3206,8.94409938 L99.0762,8.94409938 L99.0762,2.19875776 L100.1376,2.19875776 L102.5166,5.44099379 L104.9322,2.19875776 L105.9936,2.19875776 Z M107.5674,6.22360248 L107.5674,2.19875776 L108.8118,2.19875776 L108.8118,6.22360248 C108.8118,7.34161491 109.5438,7.86335404 110.5686,7.86335404 C111.5934,7.86335404 112.3254,7.37888199 112.3254,6.22360248 L112.3254,2.19875776 L113.5698,2.19875776 L113.5698,6.22360248 C113.5698,8.19875776 112.2156,9.05590062 110.6052,9.05590062 C108.885,9.05590062 107.5674,8.19875776 107.5674,6.22360248 M114.558,8.08695652 L115.1436,7.04347826 C115.7658,7.63975155 116.571,7.90062112 117.6324,7.90062112 C118.6938,7.90062112 119.316,7.52795031 119.316,6.89440994 C119.316,6.44720497 118.9866,6.33540373 117.4128,6.14906832 C116.0586,5.96273292 114.6678,5.73913043 114.6678,4.28571429 C114.6678,2.94409938 115.8024,2.08695652 117.4494,2.08695652 C118.95,2.08695652 119.9016,2.75776398 120.2676,3.61490683 L119.2428,4.17391304 C119.0232,3.61490683 118.4376,3.24223602 117.3762,3.24223602 C116.3148,3.24223602 115.839,3.65217391 115.839,4.21118012 C115.839,4.69565217 116.205,4.8447205 117.5958,5.0310559 C119.0598,5.2173913 120.5238,5.36645963 120.5238,6.89440994 C120.5238,8.31055901 119.2428,9.0931677 117.5592,9.0931677 C116.4612,9.05590062 115.4364,8.79503106 114.558,8.08695652 M121.8414,2.19875776 L121.8414,8.94409938 L127.1118,8.94409938 L127.1118,7.7515528 L123.0492,7.7515528 L123.0492,6.14906832 L125.5746,6.14906832 L125.5746,4.95652174 L123.0492,4.95652174 L123.0492,3.39130435 L127.0386,3.39130435 L127.0386,2.19875776 L121.8414,2.19875776 L121.8414,2.19875776 Z M124.4034,0 L123.5616,1.52795031 L124.623,1.52795031 L125.7942,0 L124.4034,0 L124.4034,0 Z M133.773,7.78881988 L133.773,8.94409938 L128.466,8.94409938 L128.466,2.19875776 L133.6998,2.19875776 L133.6998,3.39130435 L129.7104,3.39130435 L129.7104,4.99378882 L132.2358,4.99378882 L132.2358,6.14906832 L129.7104,6.14906832 L129.7104,7.78881988 L133.773,7.78881988 Z M103.9806,15.9503106 C103.9806,14.6459627 103.0656,13.7515528 101.748,13.7515528 L100.284,13.7515528 L100.284,18.1490683 L101.748,18.1490683 C103.0656,18.1118012 103.9806,17.2173913 103.9806,15.9503106 M105.225,15.9503106 C105.225,17.8509317 103.7244,19.3043478 101.7846,19.3043478 L99.1128,19.3043478 L99.1128,12.5590062 L101.8212,12.5590062 C103.7244,12.5590062 105.225,14.0124224 105.225,15.9503106 M106.1034,15.242236 C106.6158,14.9068323 106.9086,14.5341615 106.9452,14.0124224 C106.4328,14.0124224 106.1034,13.6397516 106.1034,13.2298137 C106.1034,12.7826087 106.4328,12.447205 106.9086,12.447205 C107.4942,12.447205 107.8602,12.9689441 107.8602,13.6397516 C107.8602,14.4223602 107.3478,15.242236 106.4328,15.6521739 L106.1034,15.242236 L106.1034,15.242236 Z M112.179,16.8447205 L110.9712,14.0124224 L109.7634,16.8447205 L112.179,16.8447205 Z M114.5214,19.2298137 L114.5214,19.3043478 L113.2038,19.3043478 L112.6548,17.9627329 L109.2876,17.9627329 L108.7386,19.3043478 L107.421,19.3043478 L107.421,19.2298137 L110.349,12.5962733 L111.5568,12.5962733 L114.5214,19.2298137 L114.5214,19.2298137 Z M116.754,15.7267081 L118.95,15.7267081 C119.5722,15.7267081 120.048,15.3540373 120.048,14.7204969 C120.048,14.0869565 119.5722,13.7142857 118.95,13.7142857 L116.754,13.7142857 L116.754,15.7267081 L116.754,15.7267081 Z M121.6584,19.2298137 L121.6584,19.3043478 L120.3408,19.3043478 L118.7304,16.8447205 L116.754,16.8447205 L116.754,19.3043478 L115.5096,19.3043478 L115.5096,12.5590062 L119.0598,12.5590062 C120.3042,12.5590062 121.2924,13.4534161 121.2924,14.7204969 C121.2924,15.6521739 120.7434,16.3975155 119.9748,16.6956522 L121.6584,19.2298137 L121.6584,19.2298137 Z M127.917,13.7515528 L125.5014,13.7515528 L125.5014,19.3043478 L124.2936,19.3043478 L124.2936,13.7515528 L121.878,13.7515528 L121.878,12.5590062 L127.917,12.5590062 L127.917,13.7515528 Z M138.714,12.5590062 L138.714,19.3043478 L137.5062,19.3043478 L137.5062,14.6459627 L135.3468,17.5900621 L135.237,17.5900621 L133.0776,14.6459627 L133.0776,19.3043478 L131.8332,19.3043478 L131.8332,12.5590062 L132.8946,12.5590062 L135.2736,15.8012422 L137.6892,12.5590062 L138.714,12.5590062 Z M145.9242,15.9503106 C145.9242,14.6459627 145.0458,13.6397516 143.655,13.6397516 C142.2642,13.6397516 141.3858,14.6459627 141.3858,15.9503106 C141.3858,17.2546584 142.2642,18.2236025 143.655,18.2236025 C145.0458,18.2236025 145.9242,17.2173913 145.9242,15.9503106 M140.1048,15.9503106 C140.1048,14.0496894 141.4956,12.484472 143.6184,12.484472 C145.7412,12.484472 147.132,14.0496894 147.132,15.9503106 C147.132,17.8509317 145.7046,19.4161491 143.6184,19.4161491 C141.5322,19.4161491 140.1048,17.8509317 140.1048,15.9503106 M153.4272,15.9503106 C153.4272,14.6459627 152.5122,13.7515528 151.1946,13.7515528 L149.7306,13.7515528 L149.7306,18.1490683 L151.1946,18.1490683 C152.5122,18.1118012 153.4272,17.2173913 153.4272,15.9503106 M154.6716,15.9503106 C154.6716,17.8509317 153.171,19.3043478 151.2312,19.3043478 L148.5594,19.3043478 L148.5594,12.5590062 L151.2678,12.5590062 C153.171,12.5590062 154.6716,14.0124224 154.6716,15.9503106 M161.3328,18.1118012 L161.3328,19.3043478 L156.0624,19.3043478 L156.0624,12.5590062 L161.2596,12.5590062 L161.2596,13.7515528 L157.2702,13.7515528 L157.2702,15.3167702 L159.7956,15.3167702 L159.7956,16.5093168 L157.2702,16.5093168 L157.2702,18.1118012 L161.3328,18.1118012 Z M163.8948,15.7267081 L166.0908,15.7267081 C166.713,15.7267081 167.1888,15.3540373 167.1888,14.7204969 C167.1888,14.0869565 166.713,13.7142857 166.0908,13.7142857 L163.8948,13.7142857 L163.8948,15.7267081 L163.8948,15.7267081 Z M168.7992,19.2298137 L168.7992,19.3043478 L167.4816,19.3043478 L165.8712,16.8447205 L163.8948,16.8447205 L163.8948,19.3043478 L162.6504,19.3043478 L162.6504,12.5590062 L166.2006,12.5590062 C167.445,12.5590062 168.4332,13.4534161 168.4332,14.7204969 C168.4332,15.6521739 167.8842,16.3975155 167.1156,16.6956522 L168.7992,19.2298137 L168.7992,19.2298137 Z M175.9728,12.5590062 L175.9728,19.3043478 L174.8748,19.3043478 L171.1416,14.6086957 L171.1416,19.3043478 L169.8972,19.3043478 L169.8972,12.5590062 L170.9952,12.5590062 L174.7284,17.2546584 L174.7284,12.5590062 L175.9728,12.5590062 Z M177.693,12.5590062 L177.693,19.3043478 L183,19.3043478 L183,18.1118012 L178.9374,18.1118012 L178.9374,16.5093168 L181.4628,16.5093168 L181.4628,15.3540373 L178.9374,15.3540373 L178.9374,13.7515528 L182.9268,13.7515528 L182.9268,12.5590062 L177.693,12.5590062 Z M103.9806,26.2732919 C103.9806,24.9689441 103.0656,24.0745342 101.748,24.0745342 L100.284,24.0745342 L100.284,28.4720497 L101.748,28.4720497 C103.0656,28.4720497 103.9806,27.5776398 103.9806,26.2732919 M105.225,26.2732919 C105.225,28.173913 103.7244,29.6273292 101.7846,29.6273292 L99.1128,29.6273292 L99.1128,22.9192547 L101.8212,22.9192547 C103.7244,22.9192547 105.225,24.3726708 105.225,26.2732919 M111.9228,28.4720497 L111.9228,29.6645963 L106.6158,29.6645963 L106.6158,22.9192547 L111.8496,22.9192547 L111.8496,24.0745342 L107.8602,24.0745342 L107.8602,25.6770186 L110.3856,25.6770186 L110.3856,26.8695652 L107.8602,26.8695652 L107.8602,28.4720497 L111.9228,28.4720497 Z M120.6336,25.1552795 C120.6336,24.5217391 120.1578,24.0745342 119.499,24.0745342 L117.2298,24.0745342 L117.2298,26.2732919 L119.499,26.2732919 C120.1578,26.2360248 120.6336,25.7888199 120.6336,25.1552795 M121.878,25.1552795 C121.878,26.4596273 120.8898,27.3913043 119.6454,27.3913043 L117.2664,27.3913043 L117.2664,29.6645963 L116.022,29.6645963 L116.022,22.9192547 L119.6454,22.9192547 C120.8898,22.9192547 121.878,23.8509317 121.878,25.1552795 M126.4896,27.2049689 L125.2818,24.3726708 L124.074,27.2049689 L126.4896,27.2049689 Z M128.832,29.552795 L128.832,29.6273292 L127.5144,29.6273292 L126.9654,28.2857143 L123.5982,28.2857143 L123.0492,29.6273292 L121.7316,29.6273292 L121.7316,29.552795 L124.6596,22.9192547 L125.8674,22.9192547 L128.832,29.552795 Z M131.1012,26.0869565 L133.2972,26.0869565 C133.9194,26.0869565 134.3952,25.7142857 134.3952,25.0807453 C134.3952,24.447205 133.9194,24.0745342 133.2972,24.0745342 L131.1012,24.0745342 L131.1012,26.0869565 Z M136.0056,29.5900621 L136.0056,29.6645963 L134.688,29.6645963 L133.0776,27.2049689 L131.1012,27.2049689 L131.1012,29.6645963 L129.8568,29.6645963 L129.8568,22.9192547 L133.407,22.9192547 C134.6514,22.9192547 135.6396,23.8136646 135.6396,25.0807453 C135.6396,26.0124224 135.0906,26.757764 134.322,27.0559006 L136.0056,29.5900621 L136.0056,29.5900621 Z M137.1036,22.9192547 L138.348,22.9192547 L138.348,29.6645963 L137.1036,29.6645963 L137.1036,22.9192547 Z M139.629,28.8074534 L140.2146,27.7639752 C140.8368,28.3602484 141.642,28.621118 142.7034,28.621118 C143.7648,28.621118 144.387,28.2484472 144.387,27.6149068 C144.387,27.1677019 144.0576,27.0559006 142.4838,26.8695652 C141.1296,26.6832298 139.7388,26.4596273 139.7388,25.0062112 C139.7388,23.6645963 140.8734,22.8074534 142.5204,22.8074534 C144.021,22.8074534 144.9726,23.4782609 145.3386,24.3354037 L144.3138,24.8944099 C144.0942,24.3354037 143.5086,23.9627329 142.4472,23.9627329 C141.3858,23.9627329 140.91,24.3726708 140.91,24.931677 C140.91,25.4161491 141.276,25.5652174 142.6668,25.7515528 C144.1308,25.9378882 145.5948,26.0869565 145.5948,27.6149068 C145.5948,29.0310559 144.3138,29.8136646 142.6302,29.8136646 C141.4956,29.7763975 140.4708,29.4782609 139.629,28.8074534" id="Shape"></path>
            </g>
        </g>
    </g>
</svg>