<?xml version="1.0" encoding="UTF-8"?>
<svg width="142px" height="30px" viewBox="0 0 142 30" version="1.1" xmlns="http://www.w3.org/2000/svg" xmlns:xlink="http://www.w3.org/1999/xlink">
    <!-- Generator: Sketch 64 (93537) - https://sketch.com -->
    <title>Group 5</title>
    <desc>Created with Sketch.</desc>
    <g id="Page-1" stroke="none" stroke-width="1" fill="none" fill-rule="evenodd">
        <g id="Home" transform="translate(-1072.000000, -25007.000000)" fill="#1C1C1C" fill-rule="nonzero">
            <g id="Group-5" transform="translate(1072.000000, 25007.000000)">
                <path d="M50.7646805,24.6222296 C46.1081906,28.1280551 39.3321948,29.9945826 33.503554,30 C25.3359635,30.0054031 17.9819208,26.9486262 12.4101897,21.838669 C11.9739783,21.4383124 12.3646952,20.8918797 12.8918955,21.2029676 C18.899838,24.7466647 26.3234605,26.8837035 33.9932882,26.8755881 C39.1662739,26.872883 44.8584315,25.7719023 50.0876162,23.5158386 C50.8797547,23.1749945 51.5407622,24.0460407 50.7646805,24.6222296" id="Path"></path>
                <path d="M52.3516374,22.0784407 C51.768471,21.3286959 48.5089878,21.7259291 47.0458651,21.9074463 C46.5980767,21.9600599 46.5303878,21.5654574 46.9313146,21.2839743 C49.5347357,19.4267117 53.7913292,19.9554791 54.2859793,20.5789511 C54.7832327,21.2024231 54.1584116,25.5404202 51.7242129,27.6160295 C51.3467168,27.9317116 50.995255,27.7554558 51.1592705,27.3450691 C51.7059889,25.9508069 52.9348037,22.8360775 52.3516374,22.0784407" id="Path"></path>
                <path d="M46.8763228,8.22317472 L46.8763228,6.38195221 C46.8733814,6.25779117 46.921207,6.13777135 47.0088203,6.04944562 C47.0964337,5.96111989 47.2163089,5.91207532 47.3409262,5.91357104 L55.5930391,5.90818735 C55.8550538,5.90818735 56.0684472,6.10200025 56.0684472,6.37656852 L56.0684472,7.95399014 C56.0684472,8.22048288 55.8442491,8.56503914 55.4471752,9.11417567 L51.1793067,15.2300493 C52.7703033,15.1923634 54.4423353,15.4292459 55.8847668,16.2448751 C56.2143111,16.422537 56.3034501,16.6971052 56.3250596,16.963598 L56.3250596,18.9286454 C56.3250596,19.2005218 56.0306307,19.5100841 55.7172935,19.3485733 C53.1781818,18.0188015 49.807106,17.8734418 47.0005772,19.3727999 C46.7142519,19.5262351 46.4144206,19.2220566 46.4144206,18.9474883 L46.4144206,17.0685799 C46.4144206,16.7697851 46.4144206,16.2610262 46.7169531,15.8034124 L51.6628184,8.68348035 L47.351731,8.6861722 C47.2257407,8.69062731 47.1034537,8.6432671 47.0135461,8.55519748 C46.9236385,8.46712787 46.8740188,8.34609569 46.8763228,8.22048288 M16.7878499,19.7631176 L14.27575,19.7658094 C14.0428101,19.755206 13.8524278,19.5769109 13.8273537,19.3458815 L13.8192502,6.44117282 C13.8192502,6.18275562 14.0326436,5.9754835 14.3027619,5.9754835 L16.6392848,5.9754835 C16.8877936,5.98625088 17.0849799,6.16929639 17.0957847,6.40617882 L17.0957847,8.08858243 L17.1471071,8.08858243 C17.752172,6.45732389 18.9028758,5.69822338 20.4452511,5.69553154 C22.0173394,5.69553154 23.003271,6.45463205 23.7055785,8.08319874 C24.3133446,6.4519402 25.6963501,5.69283969 27.1711958,5.69283969 C28.2300594,5.69283969 29.378062,6.12084317 30.0803694,7.10336688 C30.8745171,8.18818073 30.7178485,9.76021866 30.7178485,11.1438274 L30.7178485,19.2893527 C30.7178485,19.5504618 30.5071563,19.755042 30.237038,19.755042 L27.7276394,19.755042 C27.4792103,19.7423241 27.2831799,19.5399104 27.2792431,19.2920446 L27.2738407,12.4547563 C27.2738407,11.9083116 27.3170596,10.5516213 27.2009088,10.0347869 C27.011826,9.16801259 26.4526812,8.92305462 25.7233619,8.92305462 C25.0554685,8.94509698 24.465366,9.36256859 24.2242056,9.98364186 C23.9675932,10.6350685 23.994605,11.7198824 23.994605,12.46014 L24.0000074,19.2947364 C24.0000074,19.5558454 23.7812116,19.7577339 23.5137945,19.7604257 L21.0070971,19.7604257 C20.7565476,19.7504638 20.5573976,19.5472769 20.5532984,19.2974283 L20.5451949,12.46014 C20.5451949,11.0173106 20.7774966,8.90151986 18.9974172,8.90151986 C17.1957284,8.90151986 17.263258,10.9634737 17.2659592,12.4628318 L17.2713615,19.3001201 C17.2713615,19.5612291 17.0552669,19.7631176 16.7878499,19.7631176 M63.1725575,5.66322769 C66.8947871,5.66053754 68.9125705,8.86383402 68.9179729,12.931213 C68.9179729,16.8720752 66.6976008,19.9973082 63.1833622,20 C59.5313633,20 57.5351894,16.8020872 57.5324773,12.8127718 C57.5270858,8.78846233 59.5394669,5.66592123 63.1725575,5.66322769 M63.1968681,8.29316271 C61.3438568,8.29316271 61.2304072,10.8234977 61.2331084,12.4009194 C61.2331084,13.9702655 61.2142001,17.3458401 63.1779598,17.3431498 C65.1228113,17.3431498 65.2146515,14.624384 65.2146515,12.966207 C65.2146515,11.8787013 65.1660302,10.5758479 64.8391871,9.54217915 C64.5528618,8.64848635 63.9964182,8.29316271 63.1968681,8.29316271 M73.7557909,19.7200811 L71.2544958,19.7200811 C71.005006,19.7087027 70.8074201,19.5059044 70.8033983,19.2570506 L70.7871912,6.34965006 C70.8115019,6.11815132 71.0167917,5.93241396 71.2707029,5.93241396 L73.5964211,5.92972212 C73.8179181,5.9404895 73.9961961,6.08584917 74.0448174,6.28773761 L74.0448174,8.26355241 L74.0934387,8.26355241 C74.7957462,6.49500973 75.7762755,5.652462 77.5131359,5.652462 C78.6341267,5.652462 79.7416115,6.05623887 80.443919,7.16527933 C81.1030076,8.20163996 81.1030076,9.93788048 81.1030076,11.1895888 L81.1111111,19.3081956 C81.0840993,19.5396944 80.8761082,19.7146643 80.6248982,19.7146643 L78.1100972,19.7146643 C77.8835767,19.7040327 77.696547,19.5345933 77.6644021,19.3108875 L77.6589997,12.3040129 C77.6589997,10.8907939 77.8210707,8.82614818 76.0869115,8.82884002 C75.4764442,8.82884002 74.9145982,9.23800058 74.6363764,9.85981695 C74.2852227,10.6512196 74.2366014,11.4372386 74.2393026,12.3067048 L74.2447049,19.2543587 C74.2373499,19.5158194 74.020945,19.7230897 73.7584921,19.7200811 M44.7748028,17.3781422 C44.3156017,16.7428666 43.8293889,16.2287241 43.8266877,15.0470038 L43.8239865,11.13306 C43.8239865,9.47219116 43.9428385,7.94860645 42.7192028,6.804572 C41.7548806,5.88126889 40.1530793,5.55555556 38.934846,5.55555556 C36.5470006,5.55555556 33.8809334,6.45732389 33.3244897,9.40489502 C33.2623625,9.72791651 33.4946642,9.88942726 33.7026553,9.93788048 L36.1337196,10.1962977 C36.3579178,10.1828384 36.5280923,9.96210709 36.5659089,9.7333002 C36.7793023,8.71847434 37.6247724,8.22586657 38.5863934,8.22586657 C39.0996181,8.22586657 39.6857748,8.41429577 39.9937096,8.8746014 C40.3502657,9.39143579 40.2989432,10.1020831 40.3016444,10.696981 L40.3016444,11.0226943 C38.8430058,11.1895888 36.9440744,11.2972626 35.5826784,11.9002361 C34.0105901,12.5839649 32.9058064,13.9729573 32.9085027,16.0106846 C32.9085027,18.6271587 34.5508266,19.930012 36.6631514,19.9273243 C38.4540355,19.9273243 39.4264612,19.5047004 40.8067655,18.096865 C41.2605642,18.7563673 41.4145316,19.0766969 42.2464959,19.7685013 C42.4355786,19.8761751 42.6732827,19.8654077 42.8380549,19.7092807 L42.8434572,19.7146643 C43.3458772,19.2732016 44.2561757,18.4764153 44.7721016,18.04572 C44.9719891,17.8788255 44.9314714,17.6069491 44.7748028,17.3781422 L44.7748028,17.3781422 Z M39.8343398,16.2529507 C39.4345648,16.9609061 38.8078904,17.3942933 38.1028818,17.3969851 C37.1358584,17.3969851 36.5713112,16.6648031 36.5713112,15.5692218 C36.5713112,13.43728 38.4837485,13.0388868 40.3016444,13.0388868 L40.3016444,13.5826397 C40.3016444,14.5678552 40.3286562,15.3807926 39.8343398,16.2529507 L39.8343398,16.2529507 Z M10.9208813,15.0712304 L10.9181801,11.1572866 C10.9181801,9.49641777 11.0289286,7.97283306 9.80529284,6.82879861 C8.8490742,5.90549551 7.24727292,5.57978217 6.02633838,5.58244116 C3.63849296,5.58244116 0.975126919,6.4815505 0.41598212,9.43181348 C0.359257286,9.75214312 0.586156624,9.91634572 0.788745319,9.96479894 L3.22521202,10.2232161 C3.45211136,10.2097569 3.6168835,9.98633371 3.66010242,9.75752681 C3.8653923,8.74270096 4.718966,8.25009318 5.67788583,8.25009318 C6.1938117,8.25009318 6.77996833,8.43852238 7.08520196,8.90151986 C7.43905688,9.41835425 7.39583796,10.1290015 7.39583796,10.7238994 L7.39583796,11.0496128 C5.93719935,11.2138154 4.03826799,11.3241811 2.67417077,11.9271545 C1.10748487,12.6108833 0,13.9998758 0,16.037603 C0.0027011826,18.6513853 1.64772139,19.9542386 3.757345,19.9542386 C5.54822906,19.9542386 6.5206548,19.528927 7.89825792,18.1237835 C8.35475778,18.7832857 8.50062164,19.1036154 9.34068943,19.7954197 C9.52977221,19.9030936 9.76747628,19.8896343 9.93224842,19.7361991 L9.93765079,19.7415828 C10.4346684,19.2974283 11.3503693,18.5033337 11.863594,18.0699466 C12.0661827,17.905744 12.0256649,17.6311757 11.8689963,17.4023688 C11.4070941,16.7697851 10.9208813,16.2529507 10.9208813,15.0712304 Z M6.93123455,16.2798691 C6.53145953,16.9851327 5.89668162,17.4212117 5.19167296,17.4212117 C4.23005195,17.4212117 3.66550479,16.6890297 3.66550479,15.5961403 C3.66550479,13.4615066 5.57794207,13.0658053 7.39853914,13.0631134 L7.39853914,13.6095581 C7.39853914,14.5920818 7.4201486,15.4077111 6.93123455,16.2798691 L6.93123455,16.2798691 Z" id="Shape"></path>
                <path d="M115.919578,17.0722921 C115.94663,17.0171045 116.033199,16.9563981 116.09001,16.9563981 C116.146821,16.9563981 116.23339,16.9839919 116.319958,17.0143451 C117.575207,17.6490028 118.83316,17.9911661 119.801649,17.9911661 C121.173224,17.9911661 122.084902,17.1550736 122.084902,15.9161114 C122.084902,14.9392904 121.597953,14.3625797 120.256136,13.7334408 C118.343505,12.8421606 117.740229,12.5248317 117.055794,11.9508804 C116.171168,11.2306819 115.743735,10.3394017 115.741029,9.21909294 C115.741029,6.88465635 117.537333,5.21523066 120.077587,5.21247128 C121.562784,5.21247128 123.762174,5.92991042 123.762174,6.41832091 C123.762174,6.47626792 123.762174,6.47626792 123.705363,6.61975575 L123.19136,7.68487693 C123.13455,7.77317713 123.020928,7.85871795 122.934359,7.85871795 C122.880254,7.85871795 122.820738,7.83112414 122.707116,7.80353033 C121.619595,7.28476664 120.794486,7.05573799 120.023482,7.05573799 C118.651907,7.05573799 117.85385,7.77593651 117.85385,8.98454553 C117.85385,9.53090302 118.056746,10.0496667 118.427369,10.3945894 C118.82775,10.7671058 118.82775,10.7671058 121.424815,12.0336619 C123.537636,13.0656705 124.278882,14.0148976 124.281587,15.7422703 C124.281587,18.1898416 122.458231,19.8316734 119.747544,19.8344328 C118.319158,19.8344328 116.690581,19.4039693 115.521902,18.714124 C115.378522,18.6258238 115.35147,18.5706362 115.35147,18.4547422 C115.35147,18.3995545 115.35147,18.3995545 115.378522,18.3388481 L115.919578,17.0722921 M126.686578,6.20308917 C126.683872,5.91059475 126.702809,5.85264775 126.989568,5.85264775 L128.499113,5.85264775 C128.753409,5.85264775 128.812925,5.90783537 128.812925,6.20032979 L128.812925,19.3211879 C128.812925,19.6136823 128.593797,19.8261547 128.336796,19.8261547 L127.130243,19.8261547 C126.873242,19.8261547 126.681167,19.5998854 126.681167,19.307391 L126.681167,6.20032979 M140.456434,8.38024102 C140.369865,8.52648823 140.313055,8.58443524 140.226486,8.58443524 C140.169675,8.58443524 140.083106,8.55684142 139.996537,8.46854122 C138.597909,7.41997633 138.027096,7.16059448 137.055902,7.16059448 C134.772649,7.16059448 133.603969,8.99834243 133.606674,12.57726 C133.60938,16.2196433 134.667143,18.0215193 136.779964,18.0215193 C137.92159,18.0215193 138.519456,17.7566187 140.145327,16.5921598 C140.231896,16.5342128 140.288707,16.5038596 140.345518,16.5038596 C140.432087,16.5038596 140.488898,16.5618066 140.548414,16.68046 L140.975847,17.7842125 C141.0029,17.8725127 141.059711,18.0463537 141.059711,18.0739475 C141.059711,18.2201948 140.919036,18.3940358 140.605224,18.6285832 C139.447453,19.5021473 138.049533,19.9819453 136.609531,19.9999978 C133.214409,20.0027551 131.21521,17.3565084 131.2098,12.9304608 C131.2098,8.15673113 133.401073,5.21247128 136.999091,5.2097119 C138.224581,5.2097119 139.425724,5.58774714 140.480782,6.34381762 C140.940679,6.66390585 141.111111,6.86810007 141.111111,7.0695349 L141.081353,7.2461353 L140.456434,8.38024102 M101.094663,9.89514136 C101.091958,8.24503134 101.089252,5.44425931 97.4208977,5.44976993 C95.9871012,5.44976993 94.7399688,6.44315534 94.1177553,7.67659879 C93.6713847,6.07891701 92.7110116,5.45253746 91.0959616,5.45253746 C89.7703761,5.45253746 88.3555166,6.16169845 87.7549452,7.39238251 L87.7549452,6.25551742 C87.7549452,6.00165434 87.5574601,5.79746012 87.3031641,5.78642259 L86.0343895,5.78642259 C85.7827988,5.78642259 85.5744925,5.97406052 85.5555556,6.21136732 L85.5555556,19.3680974 C85.5555556,19.6219605 85.7665671,19.8233953 86.0208631,19.8399516 L87.292343,19.8399516 C87.5412284,19.8399516 87.75224,19.6467949 87.7711769,19.4094881 L87.7630611,10.1655607 C87.7630611,7.96633382 89.3537636,7.33995427 90.3682422,7.33719489 C91.9021339,7.33719489 92.1807774,8.61202905 92.2294724,9.65507518 L92.2294724,19.459157 C92.2294724,19.7102607 92.4837683,19.8399516 92.7407696,19.8537485 L93.9662598,19.8537485 C94.2178505,19.8537485 94.4153357,19.6605918 94.4369779,19.459157 L94.4369779,10.0993356 C94.4640306,7.9552963 96.0249751,7.33443551 97.0313379,7.33443551 C98.5976929,7.33443551 98.8573995,8.66445729 98.8979786,9.71854095 L98.9060944,19.4481194 C98.9060944,19.6385167 99.0711163,19.7875233 99.2848331,19.8261547 L99.2848331,19.8399516 L100.618534,19.8399516 C100.87283,19.8399516 101.078431,19.6826668 101.100074,19.4839914 L101.100074,16.8460229 L101.091958,9.89238197 M103.967667,17.7593781 C104.542655,19.1412671 105.888902,20.0227685 107.360083,19.98068 C109.315998,19.98068 110.452214,19.2742784 111.039259,18.0435943 L111.041964,19.1777001 C111.041964,19.4315631 111.236744,19.6357574 111.48563,19.6495543 L112.732762,19.6495543 C112.972754,19.6519481 113.174199,19.4656995 113.195364,19.2218502 L113.195364,6.07063887 C113.195364,5.81401641 112.997879,5.61258157 112.746288,5.59602528 L111.499156,5.59602528 C111.252976,5.59602528 111.063606,5.78918198 111.041964,6.02648877 L111.041964,15.2704161 C111.041964,17.469643 109.023828,18.0932632 107.654958,18.098782 C106.145414,18.1070601 105.869476,16.8239478 105.823486,15.7809017 L105.81537,5.9768199 C105.769381,5.76434754 105.571895,5.59878467 105.32301,5.58498776 L104.113751,5.58498776 C103.870277,5.58498776 103.664676,5.74227249 103.645739,5.94094795 L103.645739,15.3394007 C103.645739,15.3394007 103.699844,17.0336608 103.970372,17.7621375 M128.496407,0 L126.981453,0 C126.700104,0 126.670346,0.0551876261 126.670346,0.314569469 L126.670346,1.87086052 C126.670346,2.13300175 126.729862,2.18542999 126.986863,2.18542999 L128.499113,2.18542999 C128.783167,2.18542999 128.812925,2.13024237 128.812925,1.86810114 L128.812925,0.314569469 C128.812925,0.0524282448 128.753409,0 128.496407,0" id="Shape"></path>
            </g>
        </g>
    </g>
</svg>