<?xml version="1.0" encoding="UTF-8"?>
<svg width="30px" height="31px" viewBox="0 0 30 31" version="1.1" xmlns="http://www.w3.org/2000/svg" xmlns:xlink="http://www.w3.org/1999/xlink">
    <!-- Generator: Sketch 64 (93537) - https://sketch.com -->
    <title>Group 7</title>
    <desc>Created with Sketch.</desc>
    <defs>
        <path d="M15.3636066,0.363636364 C11.289881,0.363636364 10.7790055,0.380903716 9.17915555,0.453902936 C7.58252089,0.526723528 6.49217692,0.780315435 5.53800685,1.15114671 C4.55168378,1.53442239 3.71511034,2.04732229 2.88121631,2.88121631 C2.04726275,3.71516988 1.53442239,4.55168378 1.15108717,5.53800685 C0.780255892,6.49217692 0.526723528,7.58252089 0.453843393,9.17915555 C0.380844173,10.779065 0.363636364,11.2898214 0.363636364,15.3636066 C0.363636364,19.4373918 0.380844173,19.9482077 0.453843393,21.5481172 C0.526723528,23.1446923 0.780255892,24.2350958 1.15108717,25.1892063 C1.53442239,26.1755294 2.04726275,27.0121028 2.88121631,27.8459969 C3.71511034,28.6799504 4.55168378,29.1927908 5.53800685,29.5761856 C6.49217692,29.9469573 7.58252089,30.2005492 9.17915555,30.2734293 C10.7790055,30.346369 11.289881,30.3636364 15.3636066,30.3636364 C19.4373918,30.3636364 19.9481481,30.346369 21.5480576,30.2734293 C23.1446923,30.2005492 24.2350363,29.9469573 25.1892063,29.5761856 C26.1755889,29.1927908 27.0121028,28.6799504 27.8459969,27.8459969 C28.6799504,27.0121028 29.1927908,26.1755889 29.576126,25.1892063 C29.9469573,24.2350958 30.2005492,23.1446923 30.2733698,21.5481172 C30.346369,19.9482077 30.3636364,19.4373918 30.3636364,15.3636066 C30.3636364,11.289881 30.346369,10.779065 30.2733698,9.17915555 C30.2005492,7.58252089 29.9469573,6.49217692 29.576126,5.53800685 C29.1927908,4.55168378 28.6799504,3.71516988 27.8459969,2.88121631 C27.0121028,2.04732229 26.1755889,1.53442239 25.1892063,1.15114671 C24.2350363,0.780315435 23.1446923,0.526723528 21.5480576,0.453902936 C19.9481481,0.380903716 19.4373918,0.363636364 15.3636066,0.363636364 M21.424864,3.15374277 C22.8873492,3.22049001 23.6815879,3.46485282 24.2101475,3.67027477 C24.9103088,3.94238442 25.4100498,4.26742744 25.9349178,4.7922954 C26.4597857,5.31722291 26.7848288,5.81690436 27.056998,6.51706572 C27.2623604,7.04562532 27.5067232,7.83986398 27.5734704,9.30234917 C27.6412064,10.7881787 27.6588155,11.2968997 27.6607011,14.673274 L27.6607011,16.0539494 C27.6588155,19.4303729 27.6412064,19.9390905 27.5734704,21.424864 C27.5067232,22.8874087 27.2623604,23.6816474 27.056998,24.210207 C26.7848288,24.9103088 26.4597857,25.4100498 25.9349178,25.9349178 C25.4100498,26.4598453 24.9103088,26.7848883 24.2101475,27.056998 C23.6815879,27.2623604 22.8873492,27.5067827 21.424864,27.5734704 C19.9392583,27.6412624 19.4306559,27.6588748 16.053999,27.6607606 L14.6732142,27.6607606 C11.2965573,27.6588748 10.7879549,27.6412624 9.30234917,27.5734704 C7.83986398,27.5067827 7.04556578,27.2623604 6.51700618,27.056998 C5.81690436,26.7848883 5.31716337,26.4598453 4.7922954,25.9349178 C4.26742744,25.4100498 3.94232488,24.9103088 3.67021522,24.210207 C3.46485282,23.6816474 3.22049001,22.8874087 3.15374277,21.4249236 C3.08595082,19.9390941 3.06839095,19.4303731 3.06651148,16.0539494 L3.06651148,14.673274 C3.06839095,11.2968997 3.08595082,10.7881787 3.15374277,9.30234917 C3.22049001,7.83986398 3.46485282,7.04562532 3.67021522,6.51706572 C3.94232488,5.81690436 4.26742744,5.31722291 4.7922954,4.79235495 C5.31716337,4.26742744 5.81690436,3.94238442 6.51700618,3.67027477 C7.04556578,3.46485282 7.83986398,3.22049001 9.30228963,3.15374277 C10.7881751,3.08595082 11.2968469,3.06839095 14.6732644,3.06651148 L16.0539488,3.06651148 C19.4303661,3.06839095 19.9390345,3.08595082 21.424864,3.15374277 Z M15.3636066,7.66093849 C11.1095264,7.66093849 7.66087895,11.1095264 7.66087895,15.3636066 C7.66087895,19.6177463 11.1095264,23.0663342 15.3636066,23.0663342 C19.6176867,23.0663342 23.0662747,19.6177463 23.0662747,15.3636066 C23.0662747,11.1095264 19.6176867,7.66093849 15.3636066,7.66093849 Z M15.3636066,10.3636364 C18.1250135,10.3636364 20.3636364,12.6021997 20.3636364,15.3636066 C20.3636364,18.1250135 18.1250135,20.3636364 15.3636066,20.3636364 C12.6021997,20.3636364 10.3635768,18.1250135 10.3635768,15.3636066 C10.3635768,12.6021997 12.6021997,10.3636364 15.3636066,10.3636364 Z M23.3706624,5.55663177 C22.3765392,5.55663177 21.5706302,6.36248124 21.5706302,7.35660438 C21.5706302,8.35072753 22.3765392,9.15657699 23.3706624,9.15657699 C24.3647855,9.15657699 25.170635,8.35072753 25.170635,7.35660438 C25.170635,6.36248124 24.3647855,5.55663177 23.3706624,5.55663177 Z" id="path-1"></path>
    </defs>
    <g id="Page-1" stroke="none" stroke-width="1" fill="none" fill-rule="evenodd">
        <g id="Home" transform="translate(-825.000000, -25006.000000)">
            <g id="Group-7" transform="translate(824.636364, 25006.136364)">
                <mask id="mask-2" fill="white">
                    <use xlink:href="#path-1"></use>
                </mask>
                <use id="Mask" fill="#1C1C1C" xlink:href="#path-1"></use>
            </g>
        </g>
    </g>
</svg>