<?xml version="1.0" encoding="UTF-8"?>
<svg width="85px" height="18px" viewBox="0 0 85 18" version="1.1" xmlns="http://www.w3.org/2000/svg" xmlns:xlink="http://www.w3.org/1999/xlink">
    <!-- Generator: Sketch 64 (93537) - https://sketch.com -->
    <title>Group 5</title>
    <desc>Created with Sketch.</desc>
    <g id="Page-1" stroke="none" stroke-width="1" fill="none" fill-rule="evenodd">
        <g id="Home" transform="translate(-979.000000, -24899.000000)" fill="#1C1C1C" fill-rule="nonzero">
            <g id="Group-5" transform="translate(979.000000, 24899.000000)">
                <path d="M30.7951111,14.9750041 C28.0411298,16.947031 24.0336124,17.9969527 20.5863876,18 C15.7558413,18.0030392 11.4064503,16.2836022 8.11116932,13.4092513 C7.85318143,13.1840507 8.08426261,12.8766823 8.39606393,13.0516693 C11.9493328,15.0449989 16.3398752,16.2470832 20.8760305,16.2425183 C23.935482,16.2409967 27.3019866,15.621695 30.3946759,14.3526592 C30.8631692,14.1609344 31.2541079,14.6508979 30.7951111,14.9750041" id="Path"></path>
                <path d="M31.654624,13.3361404 C31.2797314,12.8541616 29.1843493,13.1095258 28.2437704,13.2262154 C27.9559064,13.2600385 27.9123921,13.0063655 28.1701308,12.825412 C29.8437587,11.6314575 32.5801402,11.9713794 32.8981295,12.3721828 C33.2177924,12.7729863 32.8161218,15.5616987 31.2512797,16.896019 C31.0086037,17.0989574 30.7826639,16.9856501 30.8881025,16.7218302 C31.2395643,15.8255187 32.0295167,13.8231927 31.654624,13.3361404" id="Path"></path>
                <path d="M28.3184361,4.66213194 L28.3184361,3.51490868 C28.3166592,3.43754681 28.3455511,3.36276522 28.3984791,3.3077315 C28.4514072,3.25269778 28.5238249,3.22213924 28.5991075,3.22307119 L33.584288,3.21971673 C33.7425736,3.21971673 33.8714866,3.34047708 33.8714866,3.51155423 L33.8714866,4.49440924 C33.8714866,4.66045471 33.7360464,4.87513977 33.4961702,5.21729407 L30.91791,9.02795378 C31.8790462,9.00447261 32.8891368,9.15206858 33.7605235,9.66026836 C33.9596044,9.77096534 34.0134541,9.94204249 34.0265086,10.108088 L34.0265086,11.3324637 C34.0265086,11.5018636 33.8486413,11.6947447 33.6593513,11.5941111 C32.1254496,10.7655609 30.0889503,10.6749907 28.3934994,11.6092061 C28.2205275,11.7048081 28.0393966,11.5152814 28.0393966,11.3442042 L28.0393966,10.1734998 C28.0393966,9.98732762 28.0393966,9.67033172 28.2221593,9.38520313 L31.210004,4.94893776 L28.6056347,4.95061498 C28.5295228,4.95339086 28.455648,4.92388181 28.401334,4.86900766 C28.3470199,4.81413352 28.3170442,4.73872116 28.3184361,4.66045471 M10.1417011,11.852404 L8.62411749,11.8540813 C8.48339626,11.8474745 8.36838449,11.7363829 8.35323698,11.5924338 L8.34834155,3.55180768 C8.34834155,3.39079389 8.47725456,3.26164741 8.64043559,3.26164741 L10.0519515,3.26164741 C10.2020781,3.26835632 10.3212002,3.38240775 10.3277275,3.53000373 L10.3277275,4.57827059 L10.3587319,4.57827059 C10.7242574,3.56187104 11.4194086,3.08889303 12.3511722,3.0872158 C13.3008858,3.0872158 13.8964966,3.56019381 14.3207673,4.57491614 C14.6879246,3.55851659 15.5234115,3.08553858 16.4143799,3.08553858 C17.0540496,3.08553858 17.7475689,3.35221767 18.1718396,3.96440552 C18.6515918,4.64032799 18.5569468,5.61982855 18.5569468,6.48192322 L18.5569468,11.5572121 C18.5569468,11.7199031 18.4296656,11.8473723 18.2664846,11.8473723 L16.7505328,11.8473723 C16.6004544,11.8394481 16.4820306,11.7133288 16.4796523,11.5588893 L16.4763887,7.29873276 C16.4763887,6.95825568 16.5024977,6.11293328 16.4323298,5.7909057 C16.3181031,5.25083861 15.9803184,5.09821096 15.5397296,5.09821096 C15.1362488,5.11194504 14.7797622,5.37206197 14.6340749,5.75903839 C14.4790529,6.16492732 14.495371,6.8408498 14.495371,7.30208722 L14.4986346,11.5605665 C14.4986346,11.7232575 14.366458,11.8490496 14.2049088,11.8507268 L12.6905888,11.8507268 C12.5392294,11.8445198 12.418921,11.7179187 12.4164447,11.5622438 L12.4115492,7.30208722 C12.4115492,6.40309355 12.5518849,5.08479314 11.4765219,5.08479314 C10.3881044,5.08479314 10.4288997,6.36954901 10.4305315,7.30376444 L10.4337951,11.563921 C10.4337951,11.726612 10.3032503,11.852404 10.1417011,11.852404 M38.1631477,3.06708802 C40.4117823,3.06541185 41.6307446,5.06131196 41.6340083,7.59560194 C41.6340083,10.0510622 40.2926602,11.9983228 38.169675,12 C35.9634674,12 34.7575596,10.0074543 34.7559212,7.52180395 C34.7526642,5.01434961 35.9683629,3.06876631 38.1631477,3.06708802 M38.177834,4.70573984 C37.0584121,4.70573984 36.9898761,6.28233321 36.9915079,7.26518822 C36.9915079,8.24301155 36.9800853,10.3462542 38.1664113,10.344578 C39.3413148,10.344578 39.3967963,8.65057771 39.3967963,7.61740589 C39.3967963,6.93980619 39.3674237,6.12802833 39.1699747,5.48397316 C38.9970028,4.92713381 38.6608499,4.70573984 38.177834,4.70573984 M44.5565805,11.825589 L43.0455242,11.825589 C42.894805,11.8184993 42.7754415,11.6921405 42.7730119,11.5370854 L42.763221,3.49478196 C42.7779073,3.35054044 42.9019249,3.23481178 43.055315,3.23481178 L44.4603037,3.23313455 C44.5941122,3.23984346 44.7018116,3.33041372 44.7311842,3.45620574 L44.7311842,4.68729035 L44.7605568,4.68729035 C45.1848275,3.58535222 45.7771746,3.06038017 46.8264287,3.06038017 C47.5036299,3.06038017 48.1726722,3.31196422 48.5969429,4.00298174 C48.9951046,4.64871413 48.9951046,5.73052553 48.9951046,6.51043608 L49,11.5689527 C48.9836819,11.7131942 48.8580325,11.8222139 48.7062741,11.8222139 L47.1870587,11.8222139 C47.0502155,11.8155896 46.9372291,11.7100158 46.91781,11.5706299 L46.9145464,7.20480805 C46.9145464,6.32426388 47.012455,5.03783079 45.9648328,5.03950801 C45.5960437,5.03950801 45.2566271,5.29444652 45.0885507,5.68188595 C44.8764153,6.17499068 44.8470428,6.66474096 44.8486746,7.20648528 L44.8519382,11.5354081 C44.847495,11.6983183 44.7167627,11.8274636 44.5582123,11.825589 M27.0488877,10.3663809 C26.77148,9.97055535 26.4777541,9.65020499 26.4761223,8.91390235 L26.4744905,6.47521431 C26.4744905,5.44036526 26.5462901,4.49105479 25.8070801,3.77823332 C25.2245238,3.20294447 24.2568603,3 23.5209138,3 C22.0783935,3 20.4677967,3.56187104 20.1316438,5.39843459 C20.0941122,5.59970183 20.2344478,5.70033545 20.3600972,5.73052553 L21.8287265,5.89153932 C21.9641668,5.88315319 22.0669708,5.74562057 22.0898162,5.60305628 C22.2187292,4.97074171 22.7294858,4.66380917 23.3104103,4.66380917 C23.6204542,4.66380917 23.9745571,4.78121506 24.1605835,5.06802087 C24.3759824,5.39004845 24.344978,5.83283638 24.3466098,6.20350354 L24.3466098,6.40644801 C23.4654323,6.51043608 22.3182696,6.57752516 21.4958372,6.953224 C20.5461236,7.37923966 19.8787132,8.24468878 19.880342,9.51434961 C19.880342,11.1446142 20.8724857,11.9563921 22.1485613,11.9547175 C23.2304516,11.9547175 23.8179033,11.6913902 24.6517584,10.8142005 C24.9259025,11.2251211 25.0189157,11.4247111 25.5215133,11.8557585 C25.63574,11.9228476 25.7793393,11.9161387 25.8788797,11.8188595 L25.8821433,11.8222139 C26.1856601,11.5471487 26.7355801,11.0506895 27.0472559,10.7823332 C27.1680099,10.6783451 27.1435327,10.5089452 27.0488877,10.3663809 L27.0488877,10.3663809 Z M24.0643066,9.66530004 C23.8227987,10.1064107 23.4442187,10.3764443 23.0183162,10.3781215 C22.4341281,10.3781215 22.0930798,9.92191577 22.0930798,9.23928438 C22.0930798,7.91092061 23.2484015,7.66269102 24.3466098,7.66269102 L24.3466098,8.00149087 C24.3466098,8.61535594 24.3629279,9.12187849 24.0643066,9.66530004 L24.0643066,9.66530004 Z M6.59740908,8.92899739 L6.59577727,6.49030936 C6.59577727,5.45546031 6.6626815,4.50614983 5.92347143,3.79332836 C5.34581058,3.21803951 4.37814706,3.01509504 3.6405688,3.0167518 C2.19804849,3.0167518 0.589083522,3.57696608 0.251298788,5.41520686 C0.217030771,5.61479687 0.354102837,5.71710772 0.476488611,5.7472978 L1.94838151,5.90831159 C2.08545358,5.89992546 2.18499401,5.76071562 2.21110297,5.61815132 C2.33512055,4.98583675 2.85077261,4.67890421 3.43006527,4.67890421 C3.74174104,4.67890421 4.09584388,4.7963101 4.28023844,5.08479314 C4.49400559,5.40682072 4.46789663,5.84960865 4.46789663,6.22027581 L4.46789663,6.42322028 C3.58671906,6.52553112 2.43955641,6.59429743 1.61549221,6.96999627 C0.669042227,7.39601193 0,8.26146105 0,9.53112188 C0.00163181031,11.1597093 0.995404289,11.9714871 2.26984814,11.9714871 C3.35173838,11.9714871 3.93919009,11.7064853 4.77141335,10.8309728 C5.04718929,11.2418934 5.13530705,11.4414834 5.64280005,11.8725307 C5.75702678,11.9396198 5.90062608,11.9312337 6.00016651,11.8356318 L6.00343013,11.8389862 C6.30368323,11.5622438 6.85686692,11.0674618 7.16691088,10.7974283 C7.28929666,10.6951174 7.2648195,10.5240403 7.1701745,10.381476 C6.89113494,9.98732762 6.59740908,9.66530004 6.59740908,8.92899739 Z M4.18722526,9.68207231 C3.94571733,10.1215058 3.56224191,10.3932165 3.13633942,10.3932165 C2.55541495,10.3932165 2.21436659,9.93701081 2.21436659,9.25605665 C2.21436659,7.92601565 3.36968829,7.67946329 4.46952844,7.67778606 L4.46952844,8.01826314 C4.46952844,8.63045099 4.48258292,9.13865076 4.18722526,9.68207231 L4.18722526,9.68207231 Z" id="Shape"></path>
                <path d="M70.0362291,10.2433753 C70.0522984,10.2102627 70.1037203,10.1738389 70.1374659,10.1738389 C70.1712115,10.1738389 70.2226334,10.1903952 70.2740553,10.2086071 C71.0196728,10.5894017 71.7668972,10.7946997 72.3421796,10.7946997 C73.1568952,10.7946997 73.698432,10.2930441 73.698432,9.54966682 C73.698432,8.96357423 73.4091839,8.61754781 72.6121445,8.24006445 C71.4760421,7.70529635 71.1176958,7.51489904 70.7111414,7.17052826 C70.1856739,6.73840914 69.9317783,6.20364105 69.9301714,5.53145576 C69.9301714,4.13079381 70.9971757,3.1291384 72.5060869,3.12748277 C73.3882937,3.12748277 74.6947312,3.55794625 74.6947312,3.85099255 C74.6947312,3.88576075 74.6947312,3.88576075 74.6609856,3.97185345 L74.3556681,4.61092616 C74.3219225,4.66390628 74.2544312,4.71523077 74.2030093,4.71523077 C74.1708707,4.71523077 74.1355181,4.69867448 74.0680269,4.6821182 C73.4220393,4.37085999 72.9319244,4.2334428 72.4739482,4.2334428 C71.6592326,4.2334428 71.185187,4.66556191 71.185187,5.39072732 C71.185187,5.71854181 71.3057071,6.02980003 71.525857,6.23675362 C71.7636833,6.46026351 71.7636833,6.46026351 73.3063401,7.22019712 C74.5613557,7.83940228 75.0016556,8.40893859 75.0032626,9.4453622 C75.0032626,10.9139049 73.9201889,11.8990041 72.3100409,11.9006597 C71.4615797,11.9006597 70.4942053,11.6423816 69.8000097,11.2284744 C69.7148422,11.1754943 69.6987729,11.1423817 69.6987729,11.0728453 C69.6987729,11.0397327 69.6987729,11.0397327 69.7148422,11.0033089 L70.0362291,10.2433753 M76.431827,3.7218535 C76.4302201,3.54635685 76.4414686,3.51158865 76.6118037,3.51158865 L77.5084729,3.51158865 C77.6595247,3.51158865 77.6948773,3.54470122 77.6948773,3.72019787 L77.6948773,11.5927127 C77.6948773,11.7682094 77.5647156,11.8956928 77.4120569,11.8956928 L76.6953642,11.8956928 C76.5427055,11.8956928 76.4286132,11.7599312 76.4286132,11.5844346 L76.4286132,3.72019787 M84.6111219,5.02814461 C84.5597,5.11589294 84.5259544,5.15066114 84.4745325,5.15066114 C84.4407869,5.15066114 84.389365,5.13410485 84.3379431,5.08112473 C83.5071582,4.4519858 83.1680951,4.29635669 82.5912057,4.29635669 C81.2349533,4.29635669 80.5407577,5.39900546 80.5423646,7.54635599 C80.5439716,9.73178598 81.1722828,10.8129116 82.4272984,10.8129116 C83.1054246,10.8129116 83.4605571,10.6539712 84.4263245,9.95529587 C84.4777464,9.92052766 84.511492,9.90231575 84.5452376,9.90231575 C84.5966595,9.90231575 84.6304051,9.93708395 84.6657577,10.008276 L84.9196533,10.6705275 C84.9357226,10.7235076 84.9694683,10.8278122 84.9694683,10.8443685 C84.9694683,10.9321169 84.8859077,11.0364215 84.6995033,11.1771499 C84.011787,11.7012884 83.1814223,11.9891672 82.3260616,11.9999987 C80.3093592,12.001653 79.1218348,10.413905 79.118621,7.75827647 C79.118621,4.89403868 80.4202376,3.12748277 82.5574601,3.12582714 C83.2854012,3.12582714 83.99888,3.35264828 84.6255843,3.80629057 C84.8987631,3.99834351 85,4.12086004 85,4.24172094 L84.9823237,4.34768118 L84.6111219,5.02814461 M61.2302298,5.93708481 C61.2286229,4.9470188 61.227016,3.26655559 59.0480132,3.26986196 C58.1963381,3.26986196 57.4555415,3.86589321 57.0859466,4.60595927 C56.8208025,3.64735021 56.2503409,3.27152247 55.2910012,3.27152247 C54.5036034,3.27152247 53.6631769,3.69701907 53.3064375,4.43542951 L53.3064375,3.75331045 C53.3064375,3.6009926 53.1891313,3.47847607 53.0380795,3.47185356 L52.2844273,3.47185356 C52.1349825,3.47185356 52.0112485,3.58443631 52,3.72682039 L52,11.6208584 C52,11.7731763 52.1253409,11.8940372 52.2763927,11.9039709 L53.0316517,11.9039709 C53.1794897,11.9039709 53.3048305,11.7880769 53.3160791,11.6456929 L53.3112583,6.09933643 C53.3112583,4.77980029 54.2561356,4.40397256 54.8587359,4.40231693 C55.7698675,4.40231693 55.9353818,5.16721743 55.9643066,5.79304511 L55.9643066,11.6754942 C55.9643066,11.8261564 56.1153584,11.9039709 56.2680171,11.9122491 L56.9959583,11.9122491 C57.1454032,11.9122491 57.2627094,11.7963551 57.2755649,11.6754942 L57.2755649,6.05960134 C57.2916342,4.77317778 58.2188352,4.4006613 58.8166147,4.4006613 C59.7470296,4.4006613 59.9012953,5.19867438 59.9253993,5.83112457 L59.9302201,11.6688717 C59.9302201,11.78311 60.0282431,11.872514 60.1551909,11.8956928 L60.1551909,11.9039709 L60.9474094,11.9039709 C61.0984612,11.9039709 61.2205882,11.8096001 61.2334437,11.6903948 L61.2334437,10.1076137 L61.2286229,5.93542918 M62.9367939,10.6556268 C63.2783372,11.4847603 64.0780076,12.0136611 64.9518894,11.988408 C66.1137028,11.988408 66.7886151,11.564567 67.1373198,10.8261566 L67.1389268,11.50662 C67.1389268,11.6589379 67.254626,11.7814544 67.402464,11.7897326 L68.1432606,11.7897326 C68.2858157,11.7911688 68.4054742,11.6794197 68.4180464,11.5331101 L68.4180464,3.64238332 C68.4180464,3.48840984 68.3007402,3.36754894 68.1512953,3.35761517 L67.4104986,3.35761517 C67.2642676,3.35761517 67.1517822,3.47350919 67.1389268,3.61589326 L67.1389268,9.16224968 C67.1389268,10.4817858 65.9401539,10.8559579 65.1270452,10.8592692 C64.2303759,10.8642361 64.0664686,10.0943687 64.0391508,9.46854101 L64.03433,3.58609194 C64.0070121,3.45860853 63.8897059,3.3592708 63.7418679,3.35099266 L63.0235684,3.35099266 C62.8789443,3.35099266 62.7568173,3.4453635 62.7455688,3.56456877 L62.7455688,9.2036404 C62.7455688,9.2036404 62.7777074,10.2201965 62.9384009,10.6572825 M77.506866,0 L76.6069829,0 C76.4398617,0 76.4221854,0.0331125756 76.4221854,0.188741681 L76.4221854,1.12251631 C76.4221854,1.27980105 76.457538,1.311258 76.6101967,1.311258 L77.5084729,1.311258 C77.677201,1.311258 77.6948773,1.27814542 77.6948773,1.12086069 L77.6948773,0.188741681 C77.6948773,0.0314569469 77.6595247,0 77.506866,0" id="Shape"></path>
            </g>
        </g>
    </g>
</svg>