<?xml version="1.0" encoding="UTF-8"?>
<svg width="27px" height="30px" viewBox="0 0 27 30" version="1.1" xmlns="http://www.w3.org/2000/svg" xmlns:xlink="http://www.w3.org/1999/xlink">
    <!-- Generator: Sketch 64 (93537) - https://sketch.com -->
    <title>Path 2</title>
    <desc>Created with Sketch.</desc>
    <g id="Page-1" stroke="none" stroke-width="1" fill="none" fill-rule="evenodd">
        <g id="Home" transform="translate(-454.000000, -803.000000)" fill="#1C1C1C">
            <path d="M454.507251,826.720119 L454.507251,823.815441 C454.169084,822.176447 454,821.35695 454,821.35695 C454,821.35695 454,819.908464 454,819.171444 C454,818.434424 454.253625,817.973634 454.253625,816.230665 C454.253625,814.487696 454,814.340049 454,813.800162 C454,813.260276 454,812.720389 454,812.03245 C454,811.344511 454,810.173472 454,809.486344 C454,809.028259 454.084542,808.079097 454.253625,806.638859 L454.253625,803.932531 L454.253625,803 C456.348566,804.073283 457.396036,804.609924 457.396036,804.609924 C457.396036,804.609924 458.052239,805.664548 458.576795,805.664548 C459.10135,805.664548 461.371934,806.638859 461.901239,806.638859 C462.430544,806.638859 462.47126,806.638859 463.407723,806.638859 C464.344187,806.638859 464.568124,807.229448 465.891387,808.024473 C467.21465,808.819497 468.812819,808.74973 469.460163,809.486344 C470.107507,810.222958 470.840731,810.758383 471.451128,810.758383 C472.061526,810.758383 473.253142,812.03245 474.271036,812.03245 C475.288931,812.03245 475.635016,812.726068 476.673268,813.263115 C477.711521,813.800162 478.362974,814.860059 478.851563,814.860059 C479.340153,814.860059 481,815.564224 481,816.230665 C481,816.897107 479.785991,817.570038 479.785991,817.570038 C479.785991,817.570038 479.482658,818.373175 478.077963,818.373175 C476.673268,818.373175 476.18446,820 475.221532,820 C474.258603,820 473.630774,820.360736 472.323127,821.35695 C471.01548,822.353164 470.555042,822.195376 468.928106,823.005408 C467.301171,823.815441 466.343332,824.47377 465.891387,825.155219 C465.439442,825.836668 465.583304,825.924283 464.120928,826.720119 C462.658553,827.515955 462.733198,827.418605 461.457098,828.221741 C460.180997,829.024878 461.108638,828.895078 459.252337,829.828015 C457.396036,830.760952 458.587652,830.906977 457.396036,831.442401 C456.204421,831.977826 456.789371,831.710114 455.648311,832.245538 C454.887604,832.602488 454.338167,832.853975 454,833 L454.507251,829.828015 L454.507251,828.221741 L454.507251,826.720119 Z" id="Path-2"></path>
        </g>
    </g>
</svg>