<?xml version="1.0" encoding="UTF-8"?>
<svg width="79px" height="132px" viewBox="0 0 79 132" version="1.1" xmlns="http://www.w3.org/2000/svg" xmlns:xlink="http://www.w3.org/1999/xlink">
    <!-- Generator: Sketch 64 (93537) - https://sketch.com -->
    <title>Home</title>
    <desc>Created with Sketch.</desc>
    <g id="Page-1" stroke="none" stroke-width="1" fill="none" fill-rule="evenodd">
        <g id="Home" transform="translate(-681.000000, -75.000000)" fill="#1C1C1C">
            <text id="scroll-down" font-family="DargerScriptRegular, Darger Script" font-size="18" font-weight="normal" letter-spacing="0.236842105">
                <tspan x="684.414474" y="89">scroll </tspan>
                <tspan x="690.222316" y="107">down</tspan>
            </text>
            <path d="M707.169588,125 L711.270848,125.082281 C732.400097,128.126591 741.086649,136.370595 754.05412,152.42323 C755.807264,154.593475 759.244096,155.813265 759.730095,158.568479 C760.69089,164.015397 758.838053,169.603774 758.050398,175.078838 C755.306038,194.155157 737.946773,202.555751 721.377022,206.571474 C705.253325,210.479094 691.087812,186.677143 685.823444,175.210489 C674.289962,150.088681 684.23749,135.257597 707.169588,125 L707.169588,125 Z M714.280502,166.966166 L714.230613,166.96689 C714.035237,166.96689 713.84414,167.024123 713.680927,167.131519 C713.219565,167.435102 713.091659,168.055213 713.395242,168.516576 L713.395242,168.516576 L719.164661,177.284506 C719.23946,177.39818 719.336672,177.495393 719.450346,177.570192 C719.911709,177.873775 720.531821,177.745869 720.835404,177.284506 L720.835404,177.284506 L726.604823,168.516576 C726.712219,168.353364 726.769451,168.162267 726.769451,167.96689 C726.769451,167.414606 726.321736,166.96689 725.769451,166.96689 L725.769451,166.96689 L725.718502,166.966166 L720.835404,174.387719 L720.765679,174.481442 C720.444043,174.865152 719.878755,174.955303 719.450346,174.673404 L719.450346,174.673404 L719.34238,174.591354 C719.274354,174.531968 719.214527,174.463501 719.164661,174.387719 L719.164661,174.387719 L714.280502,166.966166 Z M724.288502,159 L720.835404,164.248962 L720.765679,164.342685 C720.444043,164.726395 719.878755,164.816546 719.450346,164.534647 L719.450346,164.534647 L719.34238,164.452597 C719.274354,164.393211 719.214527,164.324744 719.164661,164.248962 L719.164661,164.248962 L715.710502,159 L714.230613,159.000724 C714.035237,159.000724 713.84414,159.057957 713.680927,159.165353 C713.219565,159.468936 713.091659,160.089047 713.395242,160.55041 L713.395242,160.55041 L719.164661,169.31834 C719.23946,169.432014 719.336672,169.529226 719.450346,169.604026 C719.911709,169.907609 720.531821,169.779703 720.835404,169.31834 L720.835404,169.31834 L726.604823,160.55041 C726.712219,160.387198 726.769451,160.196101 726.769451,160.000724 C726.769451,159.448439 726.321736,159.000724 725.769451,159.000724 L725.769451,159.000724 L724.288502,159 Z" id="Combined-Shape"></path>
        </g>
    </g>
</svg>