<?xml version="1.0" encoding="UTF-8"?>
<svg width="230px" height="353px" viewBox="0 0 230 353" version="1.1" xmlns="http://www.w3.org/2000/svg" xmlns:xlink="http://www.w3.org/1999/xlink">
    <!-- Generator: Sketch 64 (93537) - https://sketch.com -->
    <title>Group 4</title>
    <desc>Created with Sketch.</desc>
    <g id="Page-1" stroke="none" stroke-width="1" fill="none" fill-rule="evenodd">
        <g id="Scroll" transform="translate(-266.000000, -671.000000)">
            <g id="Group-2" transform="translate(218.000000, 297.000000)">
                <g id="Group-4">
                    <path d="M124.839137,633.034167 C76.8705897,633.034167 168.631242,790.591423 137.871269,777.191255 C107.111296,763.791088 75.9632802,736.980807 75.9632802,691.42117 C75.9632802,645.861533 106.801595,614.421354 100.151485,570.098296 C93.5013754,525.775238 58.8841696,558.073714 45.3394482,487.312977 C31.7947269,416.552241 -23.8539194,419.691384 -17.4960476,375.762617 C-11.1381758,331.83385 -35.2862085,285.045476 24.6154087,260.231745 C84.5170259,235.418013 159.199579,135.746137 253.433186,155.597122 C347.666794,175.448107 360.481993,276.708267 425.803353,316.227185 C491.124713,355.746103 481.676989,360.881732 529.07815,353.163034 C576.479311,345.444337 576.479311,316.227185 635.024723,316.227185 C693.570135,316.227185 739.816287,363.700073 754.260455,386.944976 C768.704623,410.189878 806.680198,490.596465 798.980514,554.609078 C790.049053,615.7173 695.817633,579.318728 635.024723,611.733135 C574.231813,644.147541 506.89162,649.864932 390.809245,593.19531 C274.726871,536.525689 139.447687,563.241145 137.871269,564.505021 C88.0450632,604.45265 172.807685,633.034167 124.839137,633.034167 Z" id="Path-3-Copy-8" fill="#F8F1EB" transform="translate(391.000000, 465.500000) rotate(-78.000000) translate(-391.000000, -465.500000) "></path>
                    <g id="Group-3" transform="translate(119.000000, 537.108767)" fill="#793D37">
                        <path d="M7.69330046,18.5111374 C8.60373027,18.504859 9.5067982,18.1367608 10.4245899,18.0496441 C11.9448357,17.9048589 13.901892,16.6496436 13.5521988,15.6226491 C13.0748978,14.2226487 11.8957563,12.0312364 10.9595597,12.0017885 C7.84667497,11.9036287 6.35342295,8.84473164 3.51293071,8.58706294 C3.21231694,8.56006911 2.9877769,8.1674308 3.16323704,8.05577431 C5.9031154,5.78706166 5.94974119,4.93184657 9.56569365,5.55761385 C10.1595589,5.65945521 10.4209087,5.28644887 10.527657,5.01651009 C10.6245898,4.77111104 10.3497428,4.29012935 10.1141601,4.02019057 C7.56323906,1.10853279 2.97673387,2.1379814 0.948512066,4.4189637 C0.441763164,4.9882892 -0.18523116,6.11221602 0.05157896,6.55638789 C0.739922832,8.22264638 1.60618095,10.2079235 3.65035356,11.0496415 C5.28839115,11.7232612 6.92888243,12.4128321 8.4933004,13.2324644 C9.53747276,13.7772502 9.47244206,14.7993365 8.36446605,15.0950421 C7.11170488,15.4300116 5.9190662,16.4925884 4.40863633,15.4079251 C3.86875877,15.020195 2.80740855,15.3453485 1.98286802,15.3453485 C1.76568986,15.3453485 1.9117025,15.649643 1.80740788,15.9306248 C1.67857353,16.3662077 3.49084422,17.0177418 5.23072233,17.9944293 C5.94483342,18.3956566 6.86753331,18.515902 7.69330046,18.5111374 Z M29.7463405,18.4511776 C30.9438869,18.3284781 32.6555442,18.4168219 32.5021701,16.7947351 C32.3451148,15.1456545 30.6383654,15.5628325 29.6027824,15.897802 C26.3463392,16.9517904 23.1389758,14.364059 21.974558,12.1309296 C21.4089137,11.0450396 21.6138218,9.18246242 22.1365215,8.04626552 C23.173332,5.7885959 26.0150508,5.37755269 25.9610632,4.38614094 C25.6641305,3.34074153 24.119345,2.39104781 21.8923503,2.17509712 C20.3610602,2.02785786 19.8678084,3.02417738 19.3573788,4.13828822 C19.0702621,4.76650917 18.5647407,5.2953437 18.2518569,5.91497572 C17.8898935,6.63276753 17.2935742,7.44749165 17.3905069,8.14074373 C17.7806911,10.930929 18.5156608,13.6695808 20.877625,15.5346121 C21.6334537,16.1321585 22.6923498,16.3505637 23.6089149,16.753018 C23.8776266,16.8708093 24.1573814,16.9898277 24.3868292,17.1652878 C25.9831488,18.387374 27.8113703,18.6499509 29.7463405,18.4511776 Z M44.9032065,17.6246564 C45.420998,17.1436747 44.5657829,16.8123864 44.5964579,16.2320178 C44.6185435,15.8050238 43.8627153,15.0786431 43.8627153,14.6148392 C44.8099549,14.6148392 47.1019802,14.2737349 47.7105696,14.6663732 C48.5841896,15.2295635 49.4136379,15.2663733 50.1117973,15.8467418 C50.8381781,16.450423 52.6602648,17.7473563 53.9216153,16.4860062 C54.2590389,16.0406073 53.5240692,15.2148402 53.1252961,14.7436745 C52.7510631,14.3019567 52.2246822,13.8749627 51.6848047,13.7166804 C50.9719211,13.5080911 50.2946202,13.4479682 49.6087304,12.9694402 C48.8210002,12.4197467 47.740018,12.2896853 46.7694657,11.9718936 C45.9191588,11.7853905 46.4381773,11.0074761 46.7694657,10.6847767 C47.1302019,10.3522614 47.3400178,10.149807 47.5608767,9.95962263 C47.6848028,9.85410011 47.8234532,9.70072603 47.9657846,9.68845595 C48.8246809,9.62097114 49.7326566,9.77557271 50.3130251,8.86146175 C50.6983016,8.25409938 51.5498355,7.97311757 51.4749888,7.02587794 C51.4443138,6.63201301 51.5866453,6.1559391 51.8111853,5.8283315 C52.1338847,5.35716579 52.3167072,3.84673592 51.9498357,3.44060048 C51.2283631,2.64182716 50.5927799,1.70072237 49.7179328,1.13139687 C49.2381782,0.818513442 48.1841899,0.90194905 47.6713061,1.23814558 C46.8872566,1.75225593 43.7007522,1.0982682 43.0222243,1.0356916 C41.9289725,0.933851089 39.987867,1.40256312 39.8982966,1.42464876 C38.6860264,1.72280843 36.4651662,1.91667348 36.3486019,2.6062444 C36.2847983,3.32771693 36.1228348,4.03814687 37.1731424,4.06882185 C37.205044,4.63078505 37.3596456,5.16084663 37.2369461,5.61728859 C36.9559643,6.66882283 37.6946151,7.59765755 38.1571919,7.993977 C38.8872533,8.61974428 38.9559652,9.4320143 39.2762109,10.1608491 C39.6148616,10.9264938 39.9682359,12.5608502 40.2467637,13.7301758 C40.4565795,14.6749617 40.2504444,15.2258823 40.7890949,16.408705 C41.1191562,17.1326317 42.3351075,18.4541047 42.4872546,18.4774174 C43.4492179,18.62343 44.1890954,18.2872335 44.9032065,17.6246564 Z M42.7903229,8.79643275 C42.4590345,8.62710744 41.9584209,8.25410109 41.9817336,8.00992909 C42.1105679,6.66268928 40.6308126,5.7633025 41.0688497,4.32158406 C41.2663959,3.66882295 41.4394019,3.24428261 42.1805064,3.25655269 C42.9608748,3.27127644 43.7412432,3.26023341 44.5216116,3.26023341 L44.5216116,3.26391457 C45.1142498,3.26391457 45.7302011,3.36698213 46.2946188,3.24060188 C47.2406314,3.0283315 47.5314292,3.88722774 48.1351104,4.21974312 C48.207503,4.25900703 48.2234542,4.61115437 48.1657854,4.64428346 C47.2492203,5.16452907 47.0774413,6.61115572 45.6504466,6.5583951 C45.2467657,6.54367134 44.7670111,7.04919276 44.4222256,7.41115608 C44.084802,7.76575752 43.921612,8.28600313 43.5878695,8.64551234 C43.4320409,8.81238356 42.9890961,8.89704622 42.7903229,8.79643275 Z M72.9225724,13.5246123 C72.3876026,11.9221579 72.0244123,10.2632613 71.4980314,8.65712575 C71.0440436,7.27184907 70.677172,5.78595894 69.8783987,4.60559035 C69.2207298,3.63258394 68.318889,2.25221504 67.1127536,2.36141743 C65.8035506,2.51111079 64.7004824,2.78350368 63.6121383,2.73442378 C59.5691923,2.55405501 56.7078415,6.25712422 58.1949587,10.0092733 C60.1102969,14.8374964 63.8280899,17.6019145 68.9299325,18.4534489 C71.8305472,18.9368847 73.8489535,16.302528 72.9225724,13.5246123 Z M66.2477225,14.6608096 C64.2783966,13.9184781 62.682077,13.0190913 61.8710336,10.8669429 C60.7397449,7.86326063 61.553242,6.51602083 65.1348387,6.12338252 C66.1839189,6.12338252 67.0980298,7.08780043 67.5311587,7.86816884 C68.5213429,9.65589937 69.8354541,11.5344278 68.716435,13.7516069 C68.228091,14.7184785 67.4734898,15.1221594 66.2477225,14.6608096 Z M92.7417118,17.9374629 C92.9637978,17.309242 92.7588897,16.2491188 92.3368034,15.712922 C91.8914045,15.1460506 91.0104226,14.8061733 90.2680911,14.6712041 C88.740483,14.3926764 87.1748379,14.3546395 85.6337331,14.1485048 C82.2729952,13.6994248 81.8202344,11.7239636 81.8239151,8.35218312 C81.8263692,6.6613849 82.268087,4.90800966 81.9625655,3.29819295 C81.7380254,2.12027846 80.7576567,0.95463362 79.828822,0.138682449 C79.4337296,-0.209784165 78.2042811,0.160768081 77.5576553,0.563222366 C77.155201,0.813529189 76.8042807,1.88714949 76.9920105,2.33009431 C78.2607229,5.32396065 78.3282077,8.41230562 77.9760603,12.0356199 C77.9588825,12.8429822 78.5736067,13.0000374 78.4815822,13.9632279 C78.4140987,15.8208986 79.5282095,15.9092424 80.8042838,16.0135366 C81.9233028,16.1055611 83.0582727,16.2233524 84.1404815,16.5153768 C86.3834273,17.1190581 88.5785199,17.9202855 90.8312818,18.4724327 C91.4312818,18.619672 92.6042886,18.3264201 92.7417118,17.9374629 Z M112.445712,17.9374629 C112.667798,17.309242 112.46289,16.2491188 112.040803,15.712922 C111.595405,15.1460506 110.714423,14.8061733 109.972091,14.6712041 C108.444483,14.3926764 106.878838,14.3546395 105.337733,14.1485048 C101.976995,13.6994248 101.524234,11.7239636 101.527915,8.35218312 C101.530369,6.6613849 101.972087,4.90800966 101.666565,3.29819295 C101.442025,2.12027846 100.461657,0.95463362 99.532822,0.138682449 C99.1377296,-0.209784165 97.9082811,0.160768081 97.2616553,0.563222366 C96.859201,0.813529189 96.5082807,1.88714949 96.6960105,2.33009431 C97.9647229,5.32396065 98.0322077,8.41230562 97.6800603,12.0356199 C97.6628825,12.8429822 98.2776067,13.0000374 98.1855822,13.9632279 C98.1180987,15.8208986 99.2322095,15.9092424 100.508284,16.0135366 C101.627303,16.1055611 102.762273,16.2233524 103.844481,16.5153768 C106.087427,17.1190581 108.28252,17.9202855 110.535282,18.4724327 C111.135282,18.619672 112.308289,18.3264201 112.445712,17.9374629 Z M22.9913012,48.6817242 C25.6870079,48.8252823 27.9176836,47.7688403 29.6821015,45.9123979 C30.5360895,45.0117841 31.5728996,43.5639308 31.3863968,42.5749732 C31.0759688,40.922211 30.0133919,39.3185295 28.9667655,37.9148479 C27.7459059,36.2768103 26.2097088,34.8657669 24.7949842,33.3712874 C23.5888489,32.0976672 22.43302,30.7651516 21.1201363,29.6093227 C20.0882341,28.701347 16.8305638,29.2068688 15.9888458,30.3013477 C15.7373119,30.6289553 15.5189067,31.2068698 15.6477411,31.5283421 C15.7618512,31.8179129 16.4158394,32.1258885 16.7606249,32.0596308 C18.9667609,31.6363179 20.4109335,32.7393857 21.7176823,34.2620861 C22.0870075,34.6927612 22.5336335,35.17497 23.0440631,35.3479765 C25.4845547,36.1749707 25.8612422,38.6682233 27.2416107,40.3406167 C27.3630832,40.4878559 27.134862,40.9663839 27.0023465,41.2620895 C26.7225917,41.8878568 26.4477447,42.5234396 26.0857814,43.1038081 C25.1716705,44.5676126 23.9262712,45.8522754 22.1508103,45.8400053 C19.1311772,45.8179197 16.1152248,45.4461404 13.0968183,45.243686 C12.3741187,45.1958331 11.6465109,45.2363241 10.9213572,45.2363241 C10.6600074,45.264545 10.3937493,45.7271218 10.7962036,45.8706803 C13.2330145,46.7798831 15.6195185,47.8768161 18.1238142,48.5308038 C19.6526494,48.9295769 21.3655337,48.5946074 22.9913012,48.6817242 Z M16.3863902,44.7749744 C16.5127709,44.7271215 17.1103168,44.2449128 17.1876176,43.8890843 C17.3778019,43.0142373 17.5962071,42.0620899 17.4281089,41.2130096 C17.1839373,39.9811074 16.5863909,38.8215979 16.1790289,37.6179162 C15.4563293,35.480492 14.9017275,33.2743559 14.0060215,31.2105513 C13.4894566,30.0228209 12.594978,28.7970535 10.794977,29.2534955 C9.96307499,29.4743544 12.0354685,32.0939873 12.3655298,33.6436815 C13.1274933,37.2215971 13.3557145,40.6375497 15.1311753,43.7798823 C15.3790281,44.219146 15.7912979,44.9982874 16.3863902,44.7749744 Z M50.3485724,40.5246123 C49.8136026,38.9221579 49.4504123,37.2632613 48.9240314,35.6571257 C48.4700436,34.2718491 48.103172,32.7859589 47.3043987,31.6055903 C46.6467298,30.6325839 45.744889,29.252215 44.5387536,29.3614174 C43.2295506,29.5111108 42.1264824,29.7835037 41.0381383,29.7344238 C36.9951923,29.554055 34.1338415,33.2571242 35.6209587,37.0092733 C37.5362969,41.8374964 41.2540899,44.6019145 46.3559325,45.4534489 C49.2565472,45.9368847 51.2749535,43.302528 50.3485724,40.5246123 Z M43.6737225,41.6608096 C41.7043966,40.9184781 40.108077,40.0190913 39.2970336,37.8669429 C38.1657449,34.8632606 38.979242,33.5160208 42.5608387,33.1233825 C43.6099189,33.1233825 44.5240298,34.0878004 44.9571587,34.8681688 C45.9473429,36.6558994 47.2614541,38.5344278 46.142435,40.7516069 C45.654091,41.7184785 44.8994898,42.1221594 43.6737225,41.6608096 Z M75.7670688,43.6863231 C76.5682962,40.6114753 79.7535735,38.7771185 79.7548006,35.4102459 C79.7548006,35.2728226 79.9327148,35.1292645 80.0406906,34.997976 C81.2455993,33.5243555 80.6063354,32.0740482 79.8136969,30.7636182 C79.5351692,30.3034955 78.678727,30.0887714 78.0505061,29.9942928 C77.856641,29.9660719 77.6652297,29.8936793 77.2959045,31.1022688 C76.6468245,33.3231286 75.7204435,34.3108592 74.9253513,35.912087 C74.3658418,37.0384679 73.8063323,38.1673029 73.212467,39.276506 C72.8014238,40.0421506 71.9486624,40.8482858 71.7130798,41.8274275 C70.8590917,40.4065681 70.1376192,39.5035001 69.7400731,38.4777331 C69.0725882,36.7550329 68.6112385,34.9525781 68.062772,33.1844791 C67.6431399,31.8347852 66.7278019,30.6519625 65.3621571,30.815153 C64.4897642,30.9194472 63.643138,32.0679138 62.9965118,32.9084051 C62.5781067,33.4519634 62.5768796,34.2961359 62.3241187,34.9820256 C61.9376152,36.0323328 61.3731979,38.465463 60.937615,38.45442 C60.6333205,38.4409233 60.4382284,38.292457 60.288535,38.0875489 C59.5965108,37.036013 58.8100072,36.0311045 58.237001,34.9194478 C57.4541784,33.4004285 56.8394542,31.7979737 56.1412944,30.2360098 C55.9744231,29.8617769 55.8664474,29.2642305 55.5621529,29.2065617 C55.1032568,29.1194449 54.6161399,29.4028808 54.4173666,29.7096294 C54.261538,29.9501203 54.495894,30.4912249 54.6468144,30.8630046 C54.8762622,31.4286489 55.3781029,31.9476675 55.4271828,32.5145389 C55.7351585,36.1378532 58.3866935,38.4985904 60.2320932,41.2630089 C61.1486583,42.6360155 62.320438,42.3599419 63.3621562,41.1182238 C64.3866966,39.8985913 64.9498869,38.623744 64.8873103,37.0053384 C64.8676783,36.4973629 65.5044886,36.0666877 65.7302553,35.4482823 C65.8333229,35.6863195 66.8848571,36.4740498 66.9989673,37.0728232 C67.5449797,39.9464441 69.0235079,42.3120895 70.8811773,44.4666915 C72.6038776,46.4654654 75.111854,46.1992074 75.7670688,43.6863231 Z M90.7821322,44.5641639 C91.7588198,44.2782743 92.5256915,42.7948383 91.996857,41.9052675 C91.6508445,41.3224453 90.8950162,40.524899 90.7109667,39.905267 C90.5686352,39.4242853 90.6851995,38.6709107 91.0029911,38.3150827 C91.2508439,38.0390086 92.0140344,38.0475975 92.4950161,38.1825672 C93.1686358,38.3739781 93.2103538,38.8304201 93.7256912,39.235328 C95.9404162,40.9764332 97.8717052,42.3604828 100.163731,43.9985204 C100.456982,44.2083363 101.448394,43.848827 101.591952,43.7739804 C102.025081,43.5469862 101.99318,41.2120158 101.861891,39.9568006 C101.63367,37.7850206 101.167412,35.63778 100.800541,33.4807239 C100.465571,31.3432997 99.9649577,31.4156923 98.9490067,31.5163057 C98.3428718,31.5776549 97.5612763,31.9040354 97.0937914,32.2819495 C95.8815212,33.2610912 97.1207856,33.8414597 97.198086,34.4500491 C97.3330556,35.5199883 97.645939,36.3837923 97.6091292,37.4439155 C97.5796813,38.2856334 96.8324415,38.6267377 96.1440976,37.9801119 C94.1821336,35.7543439 91.9207828,33.5469808 89.922009,31.8782686 C88.7244625,30.8267344 87.1404126,30.4402309 85.5772217,31.3408447 C84.2974667,32.0794956 84.3256875,33.3543428 84.8643381,34.3126254 C86.4532958,37.1408476 87.3759956,40.1604812 88.1809038,43.266004 C88.4655668,44.3678447 89.5710887,44.9187653 90.7821322,44.5641639 Z" id="scrolldown" fill-rule="nonzero"></path>
                        <path d="M42.1695883,64 L46.2708475,64.0822814 C67.4000971,67.126591 76.0866488,75.3705951 89.0541202,91.4232301 C90.8072643,93.5934746 94.2440962,94.8132654 94.730095,97.5684786 C95.6908903,103.015397 93.838053,108.603774 93.0503984,114.078838 C90.3060381,133.155157 72.9467726,141.555751 56.3770222,145.571474 C40.2533245,149.479094 26.087812,125.677143 20.8234437,114.210489 C9.28996177,89.0886809 19.23749,74.2575975 42.1695883,64 L42.1695883,64 Z M49.2805016,105.966166 L49.2306134,105.96689 C49.0352367,105.96689 48.8441396,106.024123 48.6809275,106.131519 C48.2195646,106.435102 48.0916588,107.055213 48.395242,107.516576 L48.395242,107.516576 L54.1646609,116.284506 C54.2394601,116.39818 54.3366723,116.495393 54.4503464,116.570192 C54.9117093,116.873775 55.5318206,116.745869 55.8354037,116.284506 L55.8354037,116.284506 L61.6048227,107.516576 C61.7122185,107.353364 61.7694513,107.162267 61.7694513,106.96689 C61.7694513,106.414606 61.321736,105.96689 60.7694513,105.96689 L60.7694513,105.96689 L60.7185016,105.966166 L55.8354037,113.387719 L55.7656786,113.481442 C55.4440432,113.865152 54.8787548,113.955303 54.4503464,113.673404 L54.4503464,113.673404 L54.34238,113.591354 C54.2743545,113.531968 54.214527,113.463501 54.1646609,113.387719 L54.1646609,113.387719 L49.2805016,105.966166 Z M59.2885016,98 L55.8354037,103.248962 L55.7656786,103.342685 C55.4440432,103.726395 54.8787548,103.816546 54.4503464,103.534647 L54.4503464,103.534647 L54.34238,103.452597 C54.2743545,103.393211 54.214527,103.324744 54.1646609,103.248962 L54.1646609,103.248962 L50.7105016,98 L49.2306134,98.0007242 C49.0352367,98.0007242 48.8441396,98.057957 48.6809275,98.1653528 C48.2195646,98.4689359 48.0916588,99.0890472 48.395242,99.5504101 L48.395242,99.5504101 L54.1646609,108.31834 C54.2394601,108.432014 54.3366723,108.529226 54.4503464,108.604026 C54.9117093,108.907609 55.5318206,108.779703 55.8354037,108.31834 L55.8354037,108.31834 L61.6048227,99.5504101 C61.7122185,99.387198 61.7694513,99.1961009 61.7694513,99.0007242 C61.7694513,98.4484394 61.321736,98.0007242 60.7694513,98.0007242 L60.7694513,98.0007242 L59.2885016,98 Z" id="Combined-Shape"></path>
                    </g>
                </g>
            </g>
        </g>
    </g>
</svg>