<?xml version="1.0" encoding="UTF-8"?>
<svg width="242px" height="365px" viewBox="0 0 242 365" version="1.1" xmlns="http://www.w3.org/2000/svg" xmlns:xlink="http://www.w3.org/1999/xlink">
    <!-- Generator: Sketch 64 (93537) - https://sketch.com -->
    <title>Group</title>
    <desc>Created with Sketch.</desc>
    <g id="Page-1" stroke="none" stroke-width="1" fill="none" fill-rule="evenodd">
        <g id="Desktop-HD" transform="translate(-1198.000000, -659.000000)">
            <g id="Group" transform="translate(1150.000000, 297.000000)">
                <path d="M124.839137,633.034167 C76.8705897,633.034167 168.631242,790.591423 137.871269,777.191255 C107.111296,763.791088 75.9632802,736.980807 75.9632802,691.42117 C75.9632802,645.861533 106.801595,614.421354 100.151485,570.098296 C93.5013754,525.775238 58.8841696,558.073714 45.3394482,487.312977 C31.7947269,416.552241 -23.8539194,419.691384 -17.4960476,375.762617 C-11.1381758,331.83385 -35.2862085,285.045476 24.6154087,260.231745 C84.5170259,235.418013 159.199579,135.746137 253.433186,155.597122 C347.666794,175.448107 360.481993,276.708267 425.803353,316.227185 C491.124713,355.746103 481.676989,360.881732 529.07815,353.163034 C576.479311,345.444337 576.479311,316.227185 635.024723,316.227185 C693.570135,316.227185 739.816287,363.700073 754.260455,386.944976 C768.704623,410.189878 806.680198,490.596465 798.980514,554.609078 C790.049053,615.7173 695.817633,579.318728 635.024723,611.733135 C574.231813,644.147541 506.89162,649.864932 390.809245,593.19531 C274.726871,536.525689 139.447687,563.241145 137.871269,564.505021 C88.0450632,604.45265 172.807685,633.034167 124.839137,633.034167 Z" id="Path-3-Copy-8" fill="#F8F1EB" transform="translate(391.000000, 465.500000) rotate(-78.000000) translate(-391.000000, -465.500000) "></path>
                <text id="scroll-down-!" font-family="DargerScriptRegular, Darger Script" font-size="28" font-weight="normal" letter-spacing="1.55555556" fill="#793D37">
                    <tspan x="126.583333" y="545.108767">scroll </tspan>
                    <tspan x="126.429333" y="572.108767">down !</tspan>
                </text>
                <path d="M172.169588,597.108767 L176.270848,597.191049 C197.400097,600.235358 206.086649,608.479362 219.05412,624.531997 C220.807264,626.702242 224.244096,627.922033 224.730095,630.677246 C225.69089,636.124164 223.838053,641.712541 223.050398,647.187606 C220.306038,666.263925 202.946773,674.664518 186.377022,678.680241 C170.253325,682.587862 156.087812,658.78591 150.823444,647.319256 C139.289962,622.197448 149.23749,607.366365 172.169588,597.108767 L172.169588,597.108767 Z M179.280502,639.074933 L179.230613,639.075658 C179.035237,639.075658 178.84414,639.13289 178.680927,639.240286 C178.219565,639.543869 178.091659,640.163981 178.395242,640.625343 L178.395242,640.625343 L184.164661,649.393273 C184.23946,649.506948 184.336672,649.60416 184.450346,649.678959 C184.911709,649.982542 185.531821,649.854636 185.835404,649.393273 L185.835404,649.393273 L191.604823,640.625343 C191.712219,640.462131 191.769451,640.271034 191.769451,640.075658 C191.769451,639.523373 191.321736,639.075658 190.769451,639.075658 L190.769451,639.075658 L190.718502,639.074933 L185.835404,646.496486 L185.765679,646.59021 C185.444043,646.973919 184.878755,647.06407 184.450346,646.782171 L184.450346,646.782171 L184.34238,646.700122 C184.274354,646.640735 184.214527,646.572269 184.164661,646.496486 L184.164661,646.496486 L179.280502,639.074933 Z M189.288502,631.108767 L185.835404,636.357729 L185.765679,636.451453 C185.444043,636.835163 184.878755,636.925313 184.450346,636.643414 L184.450346,636.643414 L184.34238,636.561365 C184.274354,636.501978 184.214527,636.433512 184.164661,636.357729 L184.164661,636.357729 L180.710502,631.108767 L179.230613,631.109491 C179.035237,631.109491 178.84414,631.166724 178.680927,631.27412 C178.219565,631.577703 178.091659,632.197814 178.395242,632.659177 L178.395242,632.659177 L184.164661,641.427107 C184.23946,641.540781 184.336672,641.637994 184.450346,641.712793 C184.911709,642.016376 185.531821,641.88847 185.835404,641.427107 L185.835404,641.427107 L191.604823,632.659177 C191.712219,632.495965 191.769451,632.304868 191.769451,632.109491 C191.769451,631.557207 191.321736,631.109491 190.769451,631.109491 L190.769451,631.109491 L189.288502,631.108767 Z" id="Combined-Shape" fill="#793D37"></path>
            </g>
        </g>
    </g>
</svg>