<?xml version="1.0" encoding="UTF-8"?>
<svg width="1440px" height="945px" viewBox="0 0 1440 945" version="1.1" xmlns="http://www.w3.org/2000/svg" xmlns:xlink="http://www.w3.org/1999/xlink">
    <!-- Generator: Sketch 64 (93537) - https://sketch.com -->
    <title>Mask</title>
    <desc>Created with Sketch.</desc>
    <g id="Page-1" stroke="none" stroke-width="1" fill="none" fill-rule="evenodd">
        <g id="Home" transform="translate(0.000000, -178.000000)" fill="#F8F1EB">
            <path d="M-489.56193,1104.35721 C-560.078523,1066.83086 -489.56193,986.342664 -515.265278,897.24908 C-540.968625,808.155496 -559.850264,642.952895 -559.850264,616.966923 C-559.850264,590.980952 -524.706097,401.904993 -524.706097,373.29884 C-524.706097,344.692686 -582.412828,252.894563 -524.706097,209.731025 C-466.999365,166.567487 -224.05837,265.65275 -51.9393403,246.517831 C120.17969,227.382912 243.81268,178.554041 405.807175,178.554041 C567.80167,178.554041 895.493571,209.731025 1175.22537,209.731025 C1454.95717,209.731025 1413.03451,246.517831 1486.81331,246.517831 C1560.59211,246.517831 1956.07331,202.44546 1956.07331,270.709832 C1956.07331,338.974205 2009.03324,319.02596 1956.07331,468.602282 C1903.11338,618.178604 1993.2191,833.01683 1993.2191,865.132955 C1993.2191,897.24908 2031.14432,1054.67724 1928.4037,1079.51722 C1825.66308,1104.35721 1755.97743,1182.68504 1597.98871,1122.96976 C1440,1063.25449 1137.09599,1124.54843 1028.40641,1122.96976 C919.716829,1121.3911 680.192295,1073.65313 458.408697,1090.68703 C236.625098,1107.72092 59.101145,1122.96976 -27.4766464,1122.96976 C-114.054438,1122.96976 -419.045337,1141.88356 -489.56193,1104.35721 Z" id="Mask"></path>
        </g>
    </g>
</svg>