<?xml version="1.0" encoding="UTF-8"?>
<svg width="703px" height="555px" viewBox="0 0 703 555" version="1.1" xmlns="http://www.w3.org/2000/svg" xmlns:xlink="http://www.w3.org/1999/xlink">
    <!-- Generator: Sketch 64 (93537) - https://sketch.com -->
    <title>Path 3</title>
    <desc>Created with Sketch.</desc>
    <g id="Page-1" stroke="none" stroke-width="1" fill="none" fill-rule="evenodd">
        <g id="Home" transform="translate(-369.000000, -9654.000000)" fill="#F8F1EB">
            <path d="M602.382112,10209 C561.138073,10209 529.468194,10201.7407 503.020333,10190.2289 C476.572471,10178.7171 449.790964,10155.685 449.790964,10116.5457 C449.790964,10077.4064 476.306185,10050.3969 470.588326,10012.3199 C464.870467,9974.24295 435.106102,10001.9899 423.460158,9941.20088 C411.814214,9880.41189 363.966717,9883.10866 369.433305,9845.37043 C374.899894,9807.6322 354.137072,9767.43734 405.641334,9746.12042 C457.145596,9724.80349 521.358717,9639.17759 602.382112,9656.23113 C683.405507,9673.28467 694.424198,9728.1976 750.588431,9762.14743 C806.752665,9796.09725 798.629378,9800.50916 839.38557,9793.8782 C880.141762,9787.24723 880.141762,9762.14743 930.479939,9762.14743 C980.818116,9762.14743 1022.58156,9815.9423 1022.58156,9845.37043 C1022.58156,9874.79857 1078.07176,9919.37446 1071.45146,9974.36627 C1063.77206,10026.863 1074.85217,10052.0115 1022.58156,10079.858 C970.310952,10107.7045 922.123531,10052.4052 839.38557,10090.5166 C756.647608,10128.628 789.069103,10121.9649 746.227824,10156.283 C703.386544,10190.6011 643.626151,10209 602.382112,10209 Z" id="Path-3"></path>
        </g>
    </g>
</svg>