<?xml version="1.0" encoding="UTF-8"?>
<svg width="406px" height="394px" viewBox="0 0 406 394" version="1.1" xmlns="http://www.w3.org/2000/svg" xmlns:xlink="http://www.w3.org/1999/xlink">
    <!-- Generator: Sketch 64 (93537) - https://sketch.com -->
    <title>Path Copy 6</title>
    <desc>Created with Sketch.</desc>
    <g id="Page-1" stroke="none" stroke-width="1" fill="none" fill-rule="evenodd">
        <g id="Home" transform="translate(0.000000, -1417.000000)" fill="#F8F1EB">
            <path d="M-343.555646,1584.75284 C-375.967314,1529.92505 -329.197008,1476.63573 -275.246251,1433.77607 C-221.295494,1390.9164 -72.0966489,1405.33564 -1.34141494,1463.79412 C69.413819,1522.2526 112.008133,1503.22589 244.748332,1347.75414 C246.250878,1345.99428 285.465632,1493.44392 287.479782,1491.98284 C385.470158,1420.89972 395.559924,1631.86748 368.261509,1681.4347 C340.963093,1731.00191 304.61242,1736.22496 240.313532,1763.46853 C176.014644,1790.7121 -26.2381511,1943.98362 -65.9561697,1991.1944 C-105.674188,2038.40519 -0.624978759,1776.33213 -55.8678123,1759.21325 C-111.110646,1742.09437 -152.520392,1736.71046 -180.53678,1703.54376 C-208.553168,1670.37705 -311.143978,1639.58062 -343.555646,1584.75284 Z" id="Path-Copy-6" transform="translate(13.571419, 1672.306805) scale(1, -1) rotate(152.000000) translate(-13.571419, -1672.306805) "></path>
        </g>
    </g>
</svg>