<?xml version="1.0" encoding="UTF-8"?>
<svg width="471px" height="600px" viewBox="0 0 471 600" version="1.1" xmlns="http://www.w3.org/2000/svg" xmlns:xlink="http://www.w3.org/1999/xlink">
    <!-- Generator: Sketch 64 (93537) - https://sketch.com -->
    <title>Home</title>
    <desc>Created with Sketch.</desc>
    <g id="Page-1" stroke="none" stroke-width="1" fill="none" fill-rule="evenodd">
        <g id="Home" transform="translate(0.000000, -1314.000000)" fill="#F8F1EB">
            <path d="M-356.310757,1720.18648 C-377.899306,1628.96316 -371.940972,1569.04412 -338.435755,1540.42936 C-288.177929,1497.50721 -301.375923,1482.91422 -247.425166,1440.05455 C-193.474408,1397.19488 -233.536453,1374.03353 -193.474408,1356.59334 C-153.412363,1339.15315 -100.031791,1318 -60.6371016,1318 C-21.2424118,1318 33.9061596,1340.48303 66.4017512,1380.11171 C98.8973428,1419.74039 100.232122,1468.49973 127.859605,1487.21625 C155.487088,1505.93277 191.68385,1540.42936 225.473156,1540.42936 C259.262462,1540.42936 276.727487,1500.55969 326.277911,1520.49452 C375.828335,1540.42936 416.409551,1521.89135 440.008432,1556.1648 C463.607312,1590.43825 481.681909,1625.78275 460.84517,1661.12725 C440.008432,1696.47175 424.522419,1796.6145 389.369168,1812.68018 C354.215916,1828.74586 332.365357,1855.52199 260.388772,1855.52199 C188.412187,1855.52199 100.665342,1896.08784 66.4017512,1896.08784 C32.1381602,1896.08784 25.7765695,1930.32559 -29.4662641,1913.20671 C-84.7090976,1896.08784 -125.395976,1901.04142 -153.412363,1867.87472 C-181.428751,1834.70801 -170.07626,1838.86724 -219.508763,1800.30068 C-252.463765,1774.58964 -298.06443,1747.8849 -356.310757,1720.18648 Z" id="Path-Copy-6" transform="translate(50.500000, 1618.000000) rotate(4.000000) translate(-50.500000, -1618.000000) "></path>
        </g>
    </g>
</svg>