<?xml version="1.0" encoding="UTF-8"?>
<svg width="354px" height="319px" viewBox="0 0 354 319" version="1.1" xmlns="http://www.w3.org/2000/svg" xmlns:xlink="http://www.w3.org/1999/xlink">
    <!-- Generator: Sketch 64 (93537) - https://sketch.com -->
    <title>Path Copy 7</title>
    <desc>Created with Sketch.</desc>
    <g id="Page-1" stroke="none" stroke-width="1" fill="none" fill-rule="evenodd">
        <g id="Home" transform="translate(-1086.000000, -1905.000000)" fill="#F8F1EB">
            <path d="M1101.47991,2107.21697 C1078.53307,2039.05324 1079.80065,2012.2754 1114.04335,1984.68294 C1158.30538,1956.85216 1236.3483,1905.18744 1288.93464,1905.18744 C1341.52097,1905.18744 1394.12179,1930.19265 1435.43464,1933.08152 L1440.67763,1933.44121 C1484.83545,1936.42991 1580.45105,1942.2559 1606.9467,1963.051 C1634.54633,1984.71256 1669.97485,2023.55746 1705.40938,2026.03529 C1740.84391,2028.51311 1762.08418,1987.96639 1812.58482,2012.51373 C1863.08546,2037.06107 1907.00256,2020.58864 1929.23616,2058.27563 L1930.56286,2060.53768 C1951.88807,2097.12056 1967.03109,2134.31228 1944.10847,2168.85282 L1943.38735,2169.92024 C1918.94317,2205.47233 1895.3566,2309.39696 1857.31313,2323.6737 C1819.65009,2337.80767 1794.88976,2363.91053 1721.15901,2359.30978 L1718.90969,2359.16092 C1643.42851,2353.88276 1711.2345,2381.65051 1675.30259,2379.1379 C1639.37069,2376.6253 1678.5719,2305.51418 1621.89511,2283.50364 C1565.21831,2261.4931 1543.77699,2247.01916 1516.8296,2210.16932 C1489.8822,2173.31948 1268.70682,2254.25465 1219.69668,2210.16932 C1170.68653,2166.08399 1124.42674,2175.38069 1101.47991,2107.21697 Z" id="Path-Copy-7"></path>
        </g>
    </g>
</svg>