<?xml version="1.0" encoding="UTF-8"?>
<svg width="429px" height="638px" viewBox="0 0 429 638" version="1.1" xmlns="http://www.w3.org/2000/svg" xmlns:xlink="http://www.w3.org/1999/xlink">
    <!-- Generator: Sketch 64 (93537) - https://sketch.com -->
    <title>Home</title>
    <desc>Created with Sketch.</desc>
    <g id="Page-1" stroke="none" stroke-width="1" fill="none" fill-rule="evenodd">
        <g id="Home" transform="translate(-1011.000000, -1770.000000)" fill="#F8F1EB">
            <path d="M1041.83242,2191.80657 C1014.18662,2125.40958 989.087016,2058.10354 1041.92063,2012.96375 C1094.75425,1967.82396 1080.87983,1952.47699 1137.59565,1907.40291 C1194.31146,1862.32882 1152.19618,1837.9708 1194.31146,1819.62953 C1236.42675,1801.28826 1292.54315,1779.04221 1333.95688,1779.04221 C1375.37061,1779.04221 1433.34562,1802.68686 1467.50666,1844.36302 C1501.6677,1886.03918 1503.07089,1937.31776 1532.11432,1957.0013 C1561.15776,1976.68483 1599.20965,2012.96375 1634.73071,2012.96375 C1670.25177,2012.96375 1688.61191,1971.03415 1740.70186,1991.99895 C1792.79182,2012.96375 1835.45288,1993.46794 1860.26124,2029.51219 C1885.0696,2065.55643 1904.07055,2102.72707 1882.16589,2139.8977 C1860.26124,2177.06833 1843.98155,2282.38512 1807.02664,2299.28086 C1770.07173,2316.1766 1747.1013,2344.33617 1671.43581,2344.33617 C1595.77031,2344.33617 1503.52631,2386.99792 1467.50666,2386.99792 C1431.48701,2386.99792 1424.79938,2423.00462 1366.72527,2405.00127 C1308.65116,2386.99792 1265.87902,2392.20744 1236.42675,2357.32712 C1206.97448,2322.4468 1218.9088,2326.82092 1166.94281,2286.26175 C1114.97682,2245.70258 1069.47822,2258.20356 1041.83242,2191.80657 Z" id="Path-Copy-7" transform="translate(1451.394961, 2094.542205) rotate(4.000000) translate(-1451.394961, -2094.542205) "></path>
        </g>
    </g>
</svg>