<?xml version="1.0" encoding="UTF-8"?>
<svg width="391px" height="375px" viewBox="0 0 391 375" version="1.1" xmlns="http://www.w3.org/2000/svg" xmlns:xlink="http://www.w3.org/1999/xlink">
    <!-- Generator: Sketch 64 (93537) - https://sketch.com -->
    <title>Path Copy 7</title>
    <desc>Created with Sketch.</desc>
    <g id="Page-1" stroke="none" stroke-width="1" fill="none" fill-rule="evenodd">
        <g id="Home" transform="translate(-1049.000000, -1905.000000)" fill="#F8F1EB">
            <path d="M1074.83242,2191.68568 C1047.18662,2125.28868 1022.08702,2057.98264 1074.92063,2012.84285 C1127.75425,1967.70306 1191.38232,1925.00943 1243.84056,1921.34119 C1296.2988,1917.67295 1350.51576,1938.94801 1391.92949,1938.94801 C1433.34322,1938.94801 1536.07089,1937.19686 1565.11432,1956.8804 C1594.15776,1976.56394 1632.20965,2012.84285 1667.73071,2012.84285 C1703.25177,2012.84285 1721.61191,1970.91325 1773.70186,1991.87805 C1825.79182,2012.84285 1868.45288,1993.34704 1893.26124,2029.39129 C1918.0696,2065.43554 1937.07055,2102.60617 1915.16589,2139.7768 C1893.26124,2176.94743 1876.98155,2282.26422 1840.02664,2299.15996 C1803.07173,2316.0557 1780.1013,2344.21527 1704.43581,2344.21527 C1628.77031,2344.21527 1698.34811,2367.18547 1662.32846,2367.18547 C1626.30881,2367.18547 1660.45407,2293.51304 1602.37996,2275.50969 C1544.30585,2257.50633 1525.8042,2300.29423 1496.35193,2265.41391 C1466.89966,2230.53359 1251.9088,2326.70002 1199.94281,2286.14086 C1147.97682,2245.58169 1102.47822,2258.08267 1074.83242,2191.68568 Z" id="Path-Copy-7" transform="translate(1484.394961, 2144.050755) rotate(4.000000) translate(-1484.394961, -2144.050755) "></path>
        </g>
    </g>
</svg>