<?xml version="1.0" encoding="UTF-8"?>
<svg width="452px" height="582px" viewBox="0 0 452 582" version="1.1" xmlns="http://www.w3.org/2000/svg" xmlns:xlink="http://www.w3.org/1999/xlink">
    <!-- Generator: Sketch 64 (93537) - https://sketch.com -->
    <title>Mask Copy 2</title>
    <desc>Created with Sketch.</desc>
    <g id="Page-1" stroke="none" stroke-width="1" fill="none" fill-rule="evenodd">
        <g id="Home" transform="translate(0.000000, -12731.000000)" fill="#F8F1EB">
            <path d="M-423.273861,12996.9312 C-465.05291,12903.775 -469.141869,12742.0377 -404.638589,12689.7489 C-340.135308,12637.4602 -388.033307,12609.2033 -340.135308,12587.9263 C-292.237308,12566.6492 -228.415738,12540.8424 -181.315626,12540.8424 C-134.215513,12540.8424 -68.2801308,12568.2717 -29.4285487,12616.6187 C9.42303332,12664.9657 11.0188896,12724.4521 44.0501829,12747.2862 C77.0814761,12770.1204 120.358161,12812.2062 160.756502,12812.2062 C201.154843,12812.2062 222.035948,12763.5652 281.27821,12787.8857 C340.520473,12812.2062 389.039191,12789.5898 417.253906,12831.4034 C445.46862,12873.2171 467.078527,12916.3374 442.166216,12959.4576 C417.253906,13002.5779 398.7389,13124.7521 356.709831,13144.3522 C314.680762,13163.9523 288.556333,13196.6192 202.501454,13196.6192 C116.446575,13196.6192 11.5368454,13246.1096 -29.4285487,13246.1096 C-70.3939429,13246.1096 24.0251287,13285.4002 -42.0229529,13264.5152 C-108.071034,13243.6302 -156.716082,13249.6736 -190.212348,13209.2102 C-223.708614,13168.7468 -210.135626,13173.8211 -269.236903,13126.7699 C-328.33818,13079.7187 -381.494813,13090.0875 -423.273861,12996.9312 Z" id="Mask-Copy-2" transform="translate(-0.444155, 12905.737546) scale(-1, 1) rotate(-57.000000) translate(0.444155, -12905.737546) "></path>
        </g>
    </g>
</svg>