<?xml version="1.0" encoding="UTF-8"?>
<svg width="526px" height="540px" viewBox="0 0 526 540" version="1.1" xmlns="http://www.w3.org/2000/svg" xmlns:xlink="http://www.w3.org/1999/xlink">
    <!-- Generator: Sketch 64 (93537) - https://sketch.com -->
    <title>Mask Copy 2</title>
    <desc>Created with Sketch.</desc>
    <g id="Page-1" stroke="none" stroke-width="1" fill="none" fill-rule="evenodd">
        <g id="Home" transform="translate(-499.000000, -12768.000000)" fill="#F8F1EB">
            <path d="M522.726139,13199.0523 C480.94709,13105.8961 476.858131,12944.1588 541.361411,12891.87 C605.864692,12839.5812 557.966693,12811.3244 605.864692,12790.0473 C653.762692,12768.7703 697.220853,12670.0247 786.566588,12776.6591 C875.912323,12883.2936 877.719869,12770.3928 916.571451,12818.7398 C955.423033,12867.0868 957.01889,12926.5732 990.050183,12949.4073 C1023.08148,12972.2415 1011.84489,13042.0754 986.932582,13085.1957 C962.020272,13128.316 903.168818,13141.202 839.931226,13244.9737 C776.693634,13348.7453 564.505187,13292.2086 522.726139,13199.0523 Z" id="Mask-Copy-2" transform="translate(751.273334, 13014.307539) scale(-1, 1) rotate(-57.000000) translate(-751.273334, -13014.307539) "></path>
        </g>
    </g>
</svg>