<?xml version="1.0" encoding="UTF-8"?>
<svg width="534px" height="843px" viewBox="0 0 534 843" version="1.1" xmlns="http://www.w3.org/2000/svg" xmlns:xlink="http://www.w3.org/1999/xlink">
    <!-- Generator: Sketch 64 (93537) - https://sketch.com -->
    <title>Mask Copy 2</title>
    <desc>Created with Sketch.</desc>
    <g id="Page-1" stroke="none" stroke-width="1" fill="none" fill-rule="evenodd">
        <g id="Home" transform="translate(0.000000, -12519.000000)" fill="#F8F1EB">
            <path d="M-369.933398,13013.6675 C-411.712446,12920.5112 -408.650155,12846.7288 -348.562126,12794.3638 C-288.474097,12741.9988 -304.253558,12724.1953 -239.750278,12671.9066 C-175.246997,12619.6178 -223.144996,12591.3609 -175.246997,12570.0839 C-127.348997,12548.8068 -63.5274274,12523 -16.4273147,12523 C30.672798,12523 96.6081802,12550.4293 135.459762,12598.7763 C174.311344,12647.1233 175.907201,12706.6097 208.938494,12729.4438 C241.969787,12752.278 285.246472,12794.3638 325.644813,12794.3638 C366.043154,12794.3638 386.924259,12745.7228 446.166521,12770.0433 C505.408784,12794.3638 553.927502,12771.7474 582.142217,12813.5611 C610.356931,12855.3747 631.966837,12898.495 607.054527,12941.6152 C582.142217,12984.7355 563.627211,13106.9097 521.598142,13126.5098 C479.569073,13146.1099 453.444644,13178.7768 367.389765,13178.7768 C281.334886,13178.7768 176.425156,13228.2672 135.459762,13228.2672 C94.494368,13228.2672 86.8884791,13270.0372 20.8403975,13249.1522 C-45.207684,13228.2672 -93.8527311,13234.3105 -127.348997,13193.8472 C-160.845264,13153.3838 -147.272276,13158.458 -206.373553,13111.4068 C-265.47483,13064.3556 -328.154349,13106.8238 -369.933398,13013.6675 Z" id="Mask-Copy-2" transform="translate(110.000000, 12889.000000) scale(-1, 1) rotate(-57.000000) translate(-110.000000, -12889.000000) "></path>
        </g>
    </g>
</svg>