<?xml version="1.0" encoding="UTF-8"?>
<svg width="572px" height="723px" viewBox="0 0 572 723" version="1.1" xmlns="http://www.w3.org/2000/svg" xmlns:xlink="http://www.w3.org/1999/xlink">
    <!-- Generator: Sketch 64 (93537) - https://sketch.com -->
    <title>Path Copy 3</title>
    <desc>Created with Sketch.</desc>
    <g id="Page-1" stroke="none" stroke-width="1" fill="none" fill-rule="evenodd">
        <g id="Home" transform="translate(-868.000000, -13681.000000)" fill="#F8F1EB">
            <path d="M930.633706,14116.4816 C883.433564,14013.3989 872.473413,13950.9852 940.358241,13893.0403 C1008.24307,13835.0954 990.416123,13815.3949 1063.28911,13757.5343 C1136.1621,13699.6738 1082.04903,13668.406 1136.1621,13644.8617 C1190.27516,13621.3174 1262.37798,13592.7607 1315.58963,13592.7607 C1368.80128,13592.7607 1443.29219,13623.1128 1487.18501,13676.6115 C1531.07782,13730.1102 1532.88075,13795.9353 1570.19806,13821.2026 C1607.51537,13846.4699 1656.40748,13893.0403 1702.04776,13893.0403 C1747.68804,13893.0403 1617.5117,13744.5298 1684.44102,13771.4419 C1751.37033,13798.3539 1874.01328,13866.0797 1905.88903,13912.3489 C1937.76478,13958.6181 1958.79291,13986.792 1968.49838,14065.3545 C1978.20386,14143.9169 1970.90987,14238.8903 1923.42726,14260.5789 C1875.94466,14282.2676 1846.43042,14318.4154 1749.20938,14318.4154 C1651.98834,14318.4154 1533.46592,14373.1793 1487.18501,14373.1793 C1440.90409,14373.1793 1432.31129,14419.4002 1357.69306,14396.2898 C1283.07483,14373.1793 1228.11778,14379.8666 1190.27516,14335.0916 C1152.43254,14290.3165 1167.76671,14295.9315 1100.99667,14243.8666 C1034.22664,14191.8018 977.833848,14219.5643 930.633706,14116.4816 Z" id="Path-Copy-3" transform="translate(1432.283791, 13997.760696) scale(-1, 1) rotate(-13.000000) translate(-1432.283791, -13997.760696) "></path>
        </g>
    </g>
</svg>