<?xml version="1.0" encoding="UTF-8"?>
<svg width="413px" height="628px" viewBox="0 0 413 628" version="1.1" xmlns="http://www.w3.org/2000/svg" xmlns:xlink="http://www.w3.org/1999/xlink">
    <!-- Generator: Sketch 64 (93537) - https://sketch.com -->
    <title>Path Copy 3</title>
    <desc>Created with Sketch.</desc>
    <g id="Page-1" stroke="none" stroke-width="1" fill="none" fill-rule="evenodd">
        <g id="Home" transform="translate(-1027.000000, -13714.000000)" fill="#F8F1EB">
            <path d="M1089.29584,14110.7209 C1042.0957,14007.6382 1031.13555,13945.2245 1099.02037,13887.2796 C1166.9052,13829.3347 1149.07826,13809.6342 1221.95124,13751.7736 C1294.82423,13693.9131 1240.71116,13662.6453 1294.82423,13639.101 C1348.93729,13615.5567 1421.04011,13587 1474.25176,13587 C1527.46341,13587 1601.95432,13617.3521 1645.84714,13670.8508 C1689.73996,13724.3495 1691.54289,13790.1746 1728.8602,13815.4419 C1766.17751,13840.7092 1444.22127,13813.6256 1489.86155,13813.6256 C1535.50183,13813.6256 1776.17383,13738.7691 1843.10315,13765.6812 C1910.03247,13792.5932 2032.67541,13860.319 2064.55116,13906.5882 C2096.42691,13952.8574 2117.45504,13981.0313 2127.16052,14059.5938 C2136.86599,14138.1562 2129.572,14233.1296 2082.0894,14254.8182 C2034.60679,14276.5069 2005.09255,14312.6547 1907.87151,14312.6547 C1810.65048,14312.6547 1692.12805,14367.4186 1645.84714,14367.4186 C1599.56623,14367.4186 1590.97343,14413.6395 1516.35519,14390.5291 C1441.73696,14367.4186 1386.77991,14374.1059 1348.93729,14329.3309 C1311.09468,14284.5558 1326.42884,14290.1708 1259.65881,14238.1059 C1192.88877,14186.0411 1136.49598,14213.8036 1089.29584,14110.7209 Z" id="Path-Copy-3" transform="translate(1590.945925, 13992.000000) scale(-1, 1) rotate(-13.000000) translate(-1590.945925, -13992.000000) "></path>
        </g>
    </g>
</svg>