<?xml version="1.0" encoding="UTF-8"?>
<svg width="482px" height="623px" viewBox="0 0 482 623" version="1.1" xmlns="http://www.w3.org/2000/svg" xmlns:xlink="http://www.w3.org/1999/xlink">
    <!-- Generator: Sketch 64 (93537) - https://sketch.com -->
    <title>Path 2 Copy 2</title>
    <desc>Created with Sketch.</desc>
    <g id="Page-1" stroke="none" stroke-width="1" fill="none" fill-rule="evenodd">
        <g id="Home" transform="translate(0.000000, -15028.000000)" fill="#F8F1EB">
            <path d="M-133.163647,14922.9139 C-12.9217301,15025.9041 33.4921804,15073.3882 45.0832272,15148.6614 C56.674274,15223.9345 616.216784,15275.8704 444.264887,15278.9495 C272.31299,15282.0286 317.859564,15385.9273 280.213523,15429.7435 C242.567483,15473.5597 269.788211,15504.3251 198.269574,15558.5366 C126.750936,15612.7481 86.541385,15636.421 34.2656535,15657.9972 C-18.0100781,15679.5733 -44.7911155,15628.9817 -95.431504,15628.9817 C-146.071892,15628.9817 -146.071892,15628.9817 -188.004141,15582.4104 C-229.93639,15535.8391 -219.528657,15528.2083 -240.44989,15478.9759 C-261.371124,15429.7435 -264.558324,15436.1618 -295.715592,15402.3154 C-326.872861,15368.4691 -333.823703,15384.081 -309.172534,15244.7198 C-284.521365,15105.3587 -163.019441,15164.887 -192.714436,15026.5864 C-193.442508,15023.1955 -253.405565,14819.9236 -133.163647,14922.9139 Z" id="Path-2-Copy-2" transform="translate(76.499627, 15278.586161) rotate(246.000000) translate(-76.499627, -15278.586161) "></path>
        </g>
    </g>
</svg>