<?xml version="1.0" encoding="UTF-8"?>
<svg width="634px" height="904px" viewBox="0 0 634 904" version="1.1" xmlns="http://www.w3.org/2000/svg" xmlns:xlink="http://www.w3.org/1999/xlink">
    <!-- Generator: Sketch 64 (93537) - https://sketch.com -->
    <title>Path 2 Copy 2</title>
    <desc>Created with Sketch.</desc>
    <g id="Page-1" stroke="none" stroke-width="1" fill="none" fill-rule="evenodd">
        <g id="Home" transform="translate(0.000000, -14811.000000)" fill="#F8F1EB">
            <path d="M-159.542744,15230.9791 C-188.612234,15082.8606 -54.2515299,15021.1499 -28.8363115,14964.0664 C-3.4210931,14906.9828 167.44001,14815.3254 287.681927,14918.3156 C407.923844,15021.3058 454.337755,15068.79 465.928801,15144.0631 C477.519848,15219.3363 631.590164,15208.0558 647.50161,15241.2499 C663.413057,15274.444 738.705138,15381.329 701.059097,15425.1452 C663.413057,15468.9614 690.633785,15499.7268 619.115148,15553.9383 C547.596511,15608.1498 507.386959,15631.8228 455.111228,15653.3989 C402.835496,15674.9751 352.189583,15653.3989 301.549194,15653.3989 C250.908806,15653.3989 243.143011,15659.7169 208.976557,15606.8276 C174.810103,15553.9383 201.316917,15523.61 180.395684,15474.3776 C159.474451,15425.1452 141.708621,15408.8903 96.1478894,15391.4587 C50.5871579,15374.0272 11.7398756,15391.4587 -30.4254576,15391.4587 C-72.5907909,15391.4587 -130.473254,15379.0976 -159.542744,15230.9791 Z" id="Path-2-Copy-2" transform="translate(273.919558, 15267.347895) rotate(246.000000) translate(-273.919558, -15267.347895) "></path>
        </g>
    </g>
</svg>