<?xml version="1.0" encoding="UTF-8"?>
<svg width="523px" height="681px" viewBox="0 0 523 681" version="1.1" xmlns="http://www.w3.org/2000/svg" xmlns:xlink="http://www.w3.org/1999/xlink">
    <!-- Generator: Sketch 64 (93537) - https://sketch.com -->
    <title>Path 2 Copy 2</title>
    <desc>Created with Sketch.</desc>
    <g id="Page-1" stroke="none" stroke-width="1" fill="none" fill-rule="evenodd">
        <g id="Home" transform="translate(-427.000000, -14968.000000)" fill="#F8F1EB">
            <path d="M744.634731,15071.9808 C863.884074,15160.3491 829.361362,15293.3077 949.808145,15346.9341 C1070.25493,15400.5605 939.382833,15421.5157 867.864196,15475.7272 C796.345558,15529.9387 756.136007,15553.6116 703.860276,15575.1878 C651.584544,15596.7639 624.803507,15546.1723 574.163118,15546.1723 C523.52273,15546.1723 523.52273,15546.1723 481.590481,15499.601 C439.658232,15453.0297 450.065965,15445.3989 429.144732,15396.1665 C408.223499,15346.9341 405.036298,15353.3524 373.87903,15319.506 C342.721761,15285.6597 335.770919,15301.2716 360.422088,15161.9104 C385.073258,15022.5493 625.385388,14983.6125 744.634731,15071.9808 Z" id="Path-2-Copy-2" transform="translate(672.148729, 15302.663856) rotate(246.000000) translate(-672.148729, -15302.663856) "></path>
        </g>
    </g>
</svg>