<?xml version="1.0" encoding="UTF-8"?>
<svg width="680px" height="756px" viewBox="0 0 680 756" version="1.1" xmlns="http://www.w3.org/2000/svg" xmlns:xlink="http://www.w3.org/1999/xlink">
    <!-- Generator: Sketch 64 (93537) - https://sketch.com -->
    <title>Path 3 Copy 4</title>
    <desc>Created with Sketch.</desc>
    <g id="Page-1" stroke="none" stroke-width="1" fill="none" fill-rule="evenodd">
        <g id="Home" transform="translate(-190.000000, -16560.000000)" fill="#F8F1EB">
            <path d="M503.325401,17308.4047 C449.897482,17308.4047 376.331325,17249.0938 371.668578,17246.4514 C342.623035,17229.991 304.44309,17176.1682 300.666591,17151.0876 C293.259622,17101.8963 286.634471,17040.97 271.548205,16962.4372 C256.461939,16883.9044 194.479837,16887.3884 201.561308,16838.6347 C208.642779,16789.8809 181.746422,16737.9535 248.465532,16710.4144 C315.184641,16682.8752 398.366927,16572.2558 503.325401,16594.2871 C608.283875,16616.3185 622.557592,16687.26 695.313273,16731.1195 C768.068955,16774.979 809.273977,16778.8775 850.649644,16888.2814 C892.025312,16997.6854 923.388313,17067.8921 850.77678,17142.1902 C778.165248,17216.4884 725.100078,17236.3407 642.915824,17275.6562 C560.73157,17314.9716 556.753321,17308.4047 503.325401,17308.4047 Z" id="Path-3-Copy-4" transform="translate(547.622705, 16950.110631) rotate(-290.000000) translate(-547.622705, -16950.110631) "></path>
        </g>
    </g>
</svg>