<?xml version="1.0" encoding="UTF-8"?>
<svg width="614px" height="642px" viewBox="0 0 614 642" version="1.1" xmlns="http://www.w3.org/2000/svg" xmlns:xlink="http://www.w3.org/1999/xlink">
    <!-- Generator: Sketch 64 (93537) - https://sketch.com -->
    <title>Path Copy 4</title>
    <desc>Created with Sketch.</desc>
    <g id="Page-1" stroke="none" stroke-width="1" fill="none" fill-rule="evenodd">
        <g id="Home" transform="translate(-408.000000, -18145.000000)" fill="#F8F1EB">
            <path d="M739.445473,18144.651 C806.37479,18171.563 929.017733,18239.2889 960.893483,18285.558 C992.769234,18331.8272 1013.79736,18360.0012 1023.50284,18438.5636 C1033.20832,18517.126 1025.91432,18612.0994 978.431719,18633.7881 C930.949115,18655.4767 962.030761,18701.7425 864.809721,18701.7425 C767.588682,18701.7425 664.851357,18759.7262 618.570446,18759.7262 C572.289535,18759.7262 483.373349,18755.8245 442.064776,18695.5307 C400.756203,18635.237 433.91802,18547.4883 447.12492,18509.4852 C463.231575,18463.138 433.221941,18361.0734 455.514384,18293.6142 C471.516378,18245.1905 538.557745,18228.5668 556.883284,18198.1971 C620.575659,18092.6441 714.697944,18134.7001 739.445473,18144.651 Z" id="Path-Copy-4" transform="translate(724.617086, 18443.863086) scale(-1, 1) rotate(-13.000000) translate(-724.617086, -18443.863086) "></path>
        </g>
    </g>
</svg>