<?xml version="1.0" encoding="UTF-8"?>
<svg width="454px" height="321px" viewBox="0 0 454 321" version="1.1" xmlns="http://www.w3.org/2000/svg" xmlns:xlink="http://www.w3.org/1999/xlink">
    <!-- Generator: Sketch 64 (93537) - https://sketch.com -->
    <title>Path Copy 9</title>
    <desc>Created with Sketch.</desc>
    <g id="Page-1" stroke="none" stroke-width="1" fill="none" fill-rule="evenodd">
        <g id="Home" transform="translate(-772.000000, -4483.000000)" fill="#F8F1EB">
            <path d="M784.807727,4685.02953 C765.822032,4616.8658 766.8708,4590.08796 795.202436,4562.49551 C831.823843,4534.66472 896.39479,4483 939.903541,4483 C983.412292,4483 1026.93302,4508.00521 1061.11434,4510.89409 L1065.45227,4511.25377 C1101.98745,4514.24247 1181.09765,4520.06847 1203.01955,4540.86356 C1225.85486,4562.52512 1240.59174,4650.31256 1203.01955,4717.31256 C1165.44735,4784.31256 1118.3899,4811.3135 1084.88752,4787.98188 C1051.38514,4764.65026 923.1675,4832.06721 882.617614,4787.98188 C842.067729,4743.89655 803.793422,4753.19325 784.807727,4685.02953 Z" id="Path-Copy-9" transform="translate(999.000000, 4643.155586) scale(-1, -1) translate(-999.000000, -4643.155586) "></path>
        </g>
    </g>
</svg>