<?xml version="1.0" encoding="UTF-8"?>
<svg width="413px" height="421px" viewBox="0 0 413 421" version="1.1" xmlns="http://www.w3.org/2000/svg" xmlns:xlink="http://www.w3.org/1999/xlink">
    <!-- Generator: Sketch 64 (93537) - https://sketch.com -->
    <title>Path 3 Copy 7</title>
    <desc>Created with Sketch.</desc>
    <g id="Page-1" stroke="none" stroke-width="1" fill="none" fill-rule="evenodd">
        <g id="Home" transform="translate(0.000000, -2300.000000)" fill="#F8F1EB">
            <path d="M-220.003986,2688.28172 C-265.002817,2688.28172 -178.923037,2836.0736 -207.77867,2823.50397 C-236.634303,2810.93435 -265.853955,2785.78576 -265.853955,2743.0499 C-265.853955,2700.31405 -236.924831,2670.82253 -243.163234,2629.2466 C-249.401638,2587.67068 -281.875704,2617.9673 -294.581876,2551.59231 C-307.288048,2485.21731 -359.491505,2488.16189 -353.527247,2446.95582 C-347.562989,2405.74975 -370.216025,2361.86132 -314.022897,2338.58554 C-257.829769,2315.30976 -187.770788,2221.81553 -99.3711526,2240.43615 C-10.9715169,2259.05678 1.05029823,2319.01576 62.3276343,2356.0853 C123.60497,2393.15484 114.742152,2397.97216 159.208723,2390.73187 C203.675293,2383.49157 203.675293,2356.0853 258.596178,2356.0853 C313.517063,2356.0853 359.082585,2414.82348 359.082585,2446.95582 C359.082585,2479.08816 419.624519,2527.76022 412.40152,2587.80534 C404.023003,2645.12608 364.876765,2657.87635 307.847524,2688.28172 C250.818283,2718.68709 138.395753,2741.43897 29.5,2688.28172 C-79.3957533,2635.12447 -206.299847,2622.81446 -207.77867,2624 C-254.520152,2661.47168 -175.005156,2688.28172 -220.003986,2688.28172 Z" id="Path-3-Copy-7"></path>
        </g>
    </g>
</svg>