<?xml version="1.0" encoding="UTF-8"?>
<svg width="488px" height="599px" viewBox="0 0 488 599" version="1.1" xmlns="http://www.w3.org/2000/svg" xmlns:xlink="http://www.w3.org/1999/xlink">
    <!-- Generator: Sketch 64 (93537) - https://sketch.com -->
    <title>Home</title>
    <desc>Created with Sketch.</desc>
    <g id="Page-1" stroke="none" stroke-width="1" fill="none" fill-rule="evenodd">
        <g id="Home" transform="translate(0.000000, -2245.000000)" fill="#F8F1EB">
            <path d="M-26.3711526,2844 C-71.3699833,2844 -105.923037,2836.0736 -134.77867,2823.50397 C-163.634303,2810.93435 -192.853955,2785.78576 -192.853955,2743.0499 C-192.853955,2700.31405 -163.924831,2670.82253 -170.163234,2629.2466 C-176.401638,2587.67068 -208.875704,2617.9673 -221.581876,2551.59231 C-234.288048,2485.21731 -286.491505,2488.16189 -280.527247,2446.95582 C-274.562989,2405.74975 -297.216025,2361.86132 -241.022897,2338.58554 C-184.829769,2315.30976 -114.770788,2221.81553 -26.3711526,2240.43615 C62.0284831,2259.05678 74.0502982,2319.01576 135.327634,2356.0853 C196.60497,2393.15484 187.742152,2397.97216 232.208723,2390.73187 C276.675293,2383.49157 276.675293,2356.0853 331.596178,2356.0853 C386.517063,2356.0853 432.082585,2414.82348 432.082585,2446.95582 C432.082585,2479.08816 492.624519,2527.76022 485.40152,2587.80534 C477.023003,2645.12608 489.111825,2672.58553 432.082585,2702.99089 C375.053344,2733.39626 322.479016,2673.01537 232.208723,2714.62893 C141.938429,2756.24249 177.311525,2748.96707 130.570044,2786.43875 C83.8285619,2823.91043 18.6276781,2844 -26.3711526,2844 Z" id="Path-3-Copy-7"></path>
        </g>
    </g>
</svg>