<?xml version="1.0" encoding="UTF-8"?>
<svg width="425px" height="387px" viewBox="0 0 425 387" version="1.1" xmlns="http://www.w3.org/2000/svg" xmlns:xlink="http://www.w3.org/1999/xlink">
    <!-- Generator: Sketch 64 (93537) - https://sketch.com -->
    <title>Path 3 Copy 7</title>
    <desc>Created with Sketch.</desc>
    <g id="Page-1" stroke="none" stroke-width="1" fill="none" fill-rule="evenodd">
        <g id="Home" transform="translate(0.000000, -2305.000000)" fill="#F8F1EB">
            <path d="M-209.003986,2688.28172 C-254.002817,2688.28172 -167.923037,2836.0736 -196.77867,2823.50397 C-225.634303,2810.93435 -254.853955,2785.78576 -254.853955,2743.0499 C-254.853955,2700.31405 -225.924831,2670.82253 -232.163234,2629.2466 C-238.401638,2587.67068 -270.875704,2617.9673 -283.581876,2551.59231 C-296.288048,2485.21731 -348.491505,2488.16189 -342.527247,2446.95582 C-336.562989,2405.74975 -359.216025,2361.86132 -303.022897,2338.58554 C-246.829769,2315.30976 -176.770788,2221.81553 -88.3711526,2240.43615 C0.028483085,2259.05678 12.0502982,2354.04085 73.3276343,2391.11039 C134.60497,2428.17993 125.742152,2432.99725 170.208723,2425.75696 C214.675293,2418.51666 214.675293,2391.11039 269.596178,2391.11039 C324.517063,2391.11039 367.900131,2435.64091 381.450066,2457.4451 C395,2479.24929 430.624519,2554.67229 423.40152,2614.71741 C415.023003,2672.03815 326.625419,2637.89556 269.596178,2668.30092 C212.566937,2698.70629 149.395753,2704.06932 40.5,2650.91207 C-68.3957533,2597.75482 -195.299847,2622.81446 -196.77867,2624 C-243.520152,2661.47168 -164.005156,2688.28172 -209.003986,2688.28172 Z" id="Path-3-Copy-7"></path>
        </g>
    </g>
</svg>