<?xml version="1.0" encoding="UTF-8"?>
<svg width="420px" height="306px" viewBox="0 0 420 306" version="1.1" xmlns="http://www.w3.org/2000/svg" xmlns:xlink="http://www.w3.org/1999/xlink">
    <!-- Generator: Sketch 64 (93537) - https://sketch.com -->
    <title>Path 2 Copy 6</title>
    <desc>Created with Sketch.</desc>
    <g id="Page-1" stroke="none" stroke-width="1" fill="none" fill-rule="evenodd">
        <g id="Home" transform="translate(-1020.000000, -2816.000000)" fill="#F8F1EB">
            <path d="M1204.95387,3088.16078 C1173.76792,3074.03686 1065.18195,3003.82588 1049.88645,2964.56394 C1034.59096,2925.302 1016.34877,2912.00251 1022.07841,2890.00117 C1027.80805,2867.99984 1034.10736,2840.34064 1055.38934,2816.40277 C1076.67133,2792.46489 1057.19616,2799.77342 1102.29133,2773.64026 C1147.38649,2747.5071 1222.33096,2744.48882 1293.99753,2805.90385 C1365.66411,2867.31889 1439.26505,2859.89623 1446.17354,2904.78304 C1453.08204,2949.66985 1571.05018,2919.80805 1580.53372,2939.60232 C1590.01725,2959.39659 1634.89283,3023.13415 1612.45504,3049.26259 C1590.01725,3075.39103 1606.24135,3093.73702 1563.61482,3126.06437 C1520.98829,3158.39172 1572.11668,3089.05583 1538.82551,3089.05583 C1505.53434,3089.05583 1328.9676,3096.80757 1303.83622,3096.80757 C1278.70485,3096.80757 1236.13982,3102.28469 1204.95387,3088.16078 Z" id="Path-2-Copy-6" transform="translate(1319.832029, 2945.326950) rotate(-23.000000) translate(-1319.832029, -2945.326950) "></path>
        </g>
    </g>
</svg>