<?xml version="1.0" encoding="UTF-8"?>
<svg width="582px" height="482px" viewBox="0 0 582 482" version="1.1" xmlns="http://www.w3.org/2000/svg" xmlns:xlink="http://www.w3.org/1999/xlink">
    <!-- Generator: Sketch 64 (93537) - https://sketch.com -->
    <title>Path 2 Copy 6</title>
    <desc>Created with Sketch.</desc>
    <g id="Page-1" stroke="none" stroke-width="1" fill="none" fill-rule="evenodd">
        <g id="Home" transform="translate(-858.000000, -2729.000000)" fill="#F8F1EB">
            <path d="M925.633177,3055.8151 C889.761525,3039.56969 895.430422,3037.76428 877.836767,2992.60497 C860.243113,2947.44566 855.186595,2930.98856 861.777113,2905.6825 C868.367632,2880.37644 875.613414,2848.56267 900.093024,2821.02919 C924.572634,2793.49571 945.090357,2796.0912 953.271691,2767.1044 C961.453024,2738.11759 1023.69934,2715.02377 1045.51622,2705.31344 C1067.33311,2695.60311 1175.0237,2670.59682 1257.45821,2741.23674 C1339.89272,2811.87666 1371.7128,2844.44555 1379.6593,2896.07462 C1387.6058,2947.70369 1493.23211,2939.96654 1504.14056,2962.73402 C1515.049,2985.50151 1566.66716,3058.81282 1540.85808,3088.8659 C1515.049,3118.91898 1533.71078,3140.02065 1484.67959,3177.20375 C1435.64841,3214.38685 1408.08186,3230.62386 1372.24307,3245.42273 C1336.40429,3260.22159 1301.68286,3245.42273 1266.96522,3245.42273 C1232.24758,3245.42273 1226.92357,3249.75614 1203.5,3213.47994 C1180.07643,3177.20375 1198.24876,3156.40185 1183.90575,3122.63388 C1169.56273,3088.8659 1164.44099,3065.7607 1126.14781,3065.7607 C1087.85462,3065.7607 1068.28003,3065.7607 1039.37265,3065.7607 C1010.46527,3065.7607 961.504829,3072.06051 925.633177,3055.8151 Z" id="Path-2-Copy-6" transform="translate(1203.500000, 2972.500000) rotate(-23.000000) translate(-1203.500000, -2972.500000) "></path>
        </g>
    </g>
</svg>