<?xml version="1.0" encoding="UTF-8"?>
<svg width="517px" height="420px" viewBox="0 0 517 420" version="1.1" xmlns="http://www.w3.org/2000/svg" xmlns:xlink="http://www.w3.org/1999/xlink">
    <!-- Generator: Sketch 64 (93537) - https://sketch.com -->
    <title>Path 2 Copy 6</title>
    <desc>Created with Sketch.</desc>
    <g id="Page-1" stroke="none" stroke-width="1" fill="none" fill-rule="evenodd">
        <g id="Home" transform="translate(-923.000000, -2753.000000)" fill="#F8F1EB">
            <path d="M981.929279,3037.43495 C950.743329,3023.31103 955.671731,3021.74139 940.376232,2982.47945 C925.080733,2943.21751 920.684717,2928.90955 926.414355,2906.90822 C932.143993,2884.90688 938.443302,2857.24769 959.725285,2833.30981 C981.007268,2809.37194 998.844883,2811.62849 1005.95754,2786.42708 C1013.07019,2761.22567 1067.18563,2741.14768 1086.15271,2732.70542 C1105.11979,2724.26316 1198.74339,2702.52246 1270.40997,2763.93749 C1342.07654,2825.35252 1369.74016,2853.66822 1376.64865,2898.55504 C1383.55715,2943.44185 1475.38612,2936.71509 1484.86966,2956.50937 C1494.3532,2976.30364 1539.22878,3040.0412 1516.79099,3066.16964 C1494.3532,3092.29808 1510.57729,3110.64407 1467.95076,3142.97142 C1425.32423,3175.29876 1401.35854,3189.41538 1370.20116,3202.28165 C1339.04379,3215.14793 1308.85781,3202.28165 1278.67513,3202.28165 C1248.49245,3202.28165 1243.86389,3206.04916 1223.5,3174.51029 C1203.13611,3142.97142 1218.9347,3124.88605 1206.46523,3095.52784 C1193.99576,3066.16964 1189.54304,3046.08175 1156.25187,3046.08175 C1122.9607,3046.08175 1105.94301,3046.08175 1080.81164,3046.08175 C1055.68026,3046.08175 1013.11523,3051.55887 981.929279,3037.43495 Z" id="Path-2-Copy-6" transform="translate(1223.500000, 2965.000000) rotate(-23.000000) translate(-1223.500000, -2965.000000) "></path>
        </g>
    </g>
</svg>