<?xml version="1.0" encoding="UTF-8"?>
<svg width="469px" height="589px" viewBox="0 0 469 589" version="1.1" xmlns="http://www.w3.org/2000/svg" xmlns:xlink="http://www.w3.org/1999/xlink">
    <!-- Generator: Sketch 64 (93537) - https://sketch.com -->
    <title>Mask Copy 5</title>
    <desc>Created with Sketch.</desc>
    <g id="Page-1" stroke="none" stroke-width="1" fill="none" fill-rule="evenodd">
        <g id="Home" transform="translate(0.000000, -3629.000000)" fill="#F8F1EB">
            <path d="M-358.640529,4114.16512 C-373.065725,4082.0091 -388.554775,3971.21241 -313.917872,3906.18536 C-239.28097,3841.15831 -258.881049,3819.04993 -178.759848,3754.11753 C-98.6386469,3689.18513 -158.133996,3654.09568 -98.6386469,3627.67379 C-39.1432973,3601.2519 40.1311332,3569.20489 98.635407,3569.20489 C157.139681,3569.20489 239.039732,3603.26667 287.298292,3663.30412 C335.556852,3723.34158 634.291652,4001.42895 416.23159,4043.83625 C324.662562,4061.64416 228.699411,4095.3076 188.301198,4148.82963 C124.420026,4233.46332 57.5495516,4309.37152 -19.8046467,4314.71372 C-153.156874,4323.92323 -136.617348,4275.19212 -210.028579,4216.76378 C-283.439811,4158.33544 -344.215332,4146.32115 -358.640529,4114.16512 Z" id="Mask-Copy-5" transform="translate(62.183112, 3942.520991) scale(1, -1) rotate(-130.000000) translate(-62.183112, -3942.520991) "></path>
        </g>
    </g>
</svg>