<?xml version="1.0" encoding="UTF-8"?>
<svg width="520px" height="649px" viewBox="0 0 520 649" version="1.1" xmlns="http://www.w3.org/2000/svg" xmlns:xlink="http://www.w3.org/1999/xlink">
    <!-- Generator: Sketch 64 (93537) - https://sketch.com -->
    <title>Mask Copy 5</title>
    <desc>Created with Sketch.</desc>
    <g id="Page-1" stroke="none" stroke-width="1" fill="none" fill-rule="evenodd">
        <g id="Home" transform="translate(0.000000, -4637.000000)" fill="#F8F1EB">
            <path d="M-338.478593,5186.18509 C-390.373434,5070.50335 -386.569683,4978.8801 -311.932781,4913.85305 C-237.295879,4848.826 -256.895958,4826.71762 -176.774757,4761.78522 C-96.6535555,4696.85282 -156.148905,4661.76337 -96.6535555,4635.34148 C-37.1582059,4608.91959 42.1162246,4576.87258 100.620498,4576.87258 C159.124772,4576.87258 241.024824,4610.93436 289.283383,4670.97182 C337.541943,4731.00927 674.921455,5038.35901 456.861392,5080.76631 C238.801329,5123.17361 192.356707,5377.63492 59.0044793,5386.84443 C-74.3477483,5396.05394 -61.905428,5365.98644 -135.31666,5307.5581 C-208.727891,5249.12976 -286.583751,5301.86684 -338.478593,5186.18509 Z" id="Mask-Copy-5" transform="translate(78.109527, 4982.677299) scale(1, -1) rotate(-130.000000) translate(-78.109527, -4982.677299) "></path>
        </g>
    </g>
</svg>