<?xml version="1.0" encoding="UTF-8"?>
<svg width="520px" height="1053px" viewBox="0 0 520 1053" version="1.1" xmlns="http://www.w3.org/2000/svg" xmlns:xlink="http://www.w3.org/1999/xlink">
    <!-- Generator: Sketch 64 (93537) - https://sketch.com -->
    <title>Mask Copy 5</title>
    <desc>Created with Sketch.</desc>
    <g id="Page-1" stroke="none" stroke-width="1" fill="none" fill-rule="evenodd">
        <g id="Home" transform="translate(0.000000, -4637.000000)" fill="#F8F1EB">
            <path d="M-596.137744,5306.33353 C-648.032586,5190.65178 -644.228834,5099.02854 -569.591932,5034.00149 C-494.95503,4968.97444 -514.555109,4946.86605 -434.433908,4881.93366 C-354.312707,4817.00126 -413.808056,4781.9118 -354.312707,4755.48992 C-294.817357,4729.06803 -215.542927,4697.02101 -157.038653,4697.02101 C-98.5343789,4697.02101 -16.6343274,4731.0828 31.6242322,4791.12025 C79.8827918,4851.1577 81.8650463,4925.02811 122.894074,4953.38363 C163.923102,4981.73916 217.678196,5034.00149 267.858025,5034.00149 C318.037854,5034.00149 343.974818,4973.59894 417.561171,5003.80022 C491.147524,5034.00149 551.413886,5005.9164 586.460116,5057.84068 C621.506346,5109.76497 648.348572,5163.31188 617.404344,5216.8588 C586.460116,5270.40571 563.462145,5422.12197 511.256747,5446.46148 C459.051349,5470.80099 426.601517,5511.36683 319.710515,5511.36683 C212.819514,5511.36683 82.5084128,5572.82409 31.6242322,5572.82409 C-19.2599484,5572.82409 -28.7074207,5624.69428 -110.747459,5598.75919 C-192.787497,5572.82409 -253.210774,5580.32877 -294.817357,5530.08121 C-336.42394,5479.83365 -319.564579,5486.13488 -392.975811,5427.70654 C-466.387042,5369.2782 -544.242902,5422.01527 -596.137744,5306.33353 Z" id="Mask-Copy-5" transform="translate(0.000000, 5151.521012) scale(1, -1) rotate(-130.000000) translate(-0.000000, -5151.521012) "></path>
        </g>
    </g>
</svg>