<?xml version="1.0" encoding="UTF-8"?>
<svg width="560px" height="721px" viewBox="0 0 560 721" version="1.1" xmlns="http://www.w3.org/2000/svg" xmlns:xlink="http://www.w3.org/1999/xlink">
    <!-- Generator: Sketch 64 (93537) - https://sketch.com -->
    <title>Mask Copy 7</title>
    <desc>Created with Sketch.</desc>
    <g id="Page-1" stroke="none" stroke-width="1" fill="none" fill-rule="evenodd">
        <g id="Home" transform="translate(-753.000000, -4965.000000)" fill="#F8F1EB">
            <path d="M676.657015,5250.2014 C659.765553,5212.51657 651.269611,5171.30406 777.095988,5122.72944 C780.451034,5121.43424 825.862562,5092.04682 829.817038,5090.64812 C901.814204,5065.18269 969.266905,5055.89246 1030.20212,5047.15816 C1232.49435,5018.1621 1256.79295,5062.8212 1322.50315,5125.89966 C1388.21334,5188.97812 1428.64576,5436.18007 1375.56531,5460.94799 C1322.48486,5485.71592 1324.9972,5532.57226 1216.31452,5532.57226 C1107.63184,5532.57226 1118.85211,5575.03728 1067.11503,5575.03728 C1015.37794,5575.03728 1005.77211,5627.82048 922.356942,5601.42888 C838.941771,5575.03728 830.555379,5603.62052 788.251398,5552.48852 C745.947417,5501.35651 758.744267,5515.69297 725.038138,5443.37972 C691.33201,5371.06647 729.421704,5367.91934 676.657015,5250.2014 Z" id="Mask-Copy-7" transform="translate(1033.574478, 5323.469609) scale(-1, -1) rotate(-86.000000) translate(-1033.574478, -5323.469609) "></path>
        </g>
    </g>
</svg>