<?xml version="1.0" encoding="UTF-8"?>
<svg width="479px" height="864px" viewBox="0 0 479 864" version="1.1" xmlns="http://www.w3.org/2000/svg" xmlns:xlink="http://www.w3.org/1999/xlink">
    <!-- Generator: Sketch 64 (93537) - https://sketch.com -->
    <title>Mask Copy 7</title>
    <desc>Created with Sketch.</desc>
    <g id="Page-1" stroke="none" stroke-width="1" fill="none" fill-rule="evenodd">
        <g id="Home" transform="translate(-961.000000, -4073.000000)" fill="#F8F1EB">
            <path d="M1050.48347,4599.28097 C997.71878,4481.56303 931.692561,4395.35468 986.78138,4346.13921 C1041.8702,4296.92375 942.2993,4283.17656 1023.76347,4217.10124 C1105.22764,4151.02592 1044.73505,4115.31883 1105.22764,4088.43187 C1165.72024,4061.54491 1246.32344,4028.93381 1305.80835,4028.93381 C1365.29326,4028.93381 1448.56609,4063.59514 1497.63355,4124.68936 C1546.701,4185.78358 1560.69746,4210.01388 1602.4142,4238.86851 C1644.13095,4267.72314 1579.16325,4265.80183 1630.18418,4265.80183 C1681.20511,4265.80183 1618.53196,4264.37789 1693.35174,4295.11076 C1768.17153,4325.84363 1790.79448,4350.33025 1826.42814,4403.16849 C1862.06181,4456.00673 1882.17373,4538.72394 1864.2309,4606.27729 C1846.28807,4673.83065 1907.44086,4777.91952 1854.36041,4802.68745 C1801.27996,4827.45537 1803.79229,4874.31172 1695.10961,4874.31172 C1586.42694,4874.31172 1549.37064,4920.15256 1497.63355,4920.15256 C1445.89646,4920.15256 1436.29063,4972.93576 1352.87546,4946.54416 C1269.46029,4920.15256 1204.38183,4952.7001 1162.07785,4901.56809 C1119.77387,4850.43609 1132.57072,4864.77255 1098.86459,4792.4593 C1065.15846,4720.14605 1103.24816,4716.99892 1050.48347,4599.28097 Z" id="Mask-Copy-7" transform="translate(1421.280480, 4491.433809) scale(-1, -1) rotate(-86.000000) translate(-1421.280480, -4491.433809) "></path>
        </g>
    </g>
</svg>