<?xml version="1.0" encoding="UTF-8"?>
<svg width="596px" height="990px" viewBox="0 0 596 990" version="1.1" xmlns="http://www.w3.org/2000/svg" xmlns:xlink="http://www.w3.org/1999/xlink">
    <!-- Generator: Sketch 64 (93537) - https://sketch.com -->
    <title>Mask Copy 7</title>
    <desc>Created with Sketch.</desc>
    <g id="Page-1" stroke="none" stroke-width="1" fill="none" fill-rule="evenodd">
        <g id="Home" transform="translate(-844.000000, -5581.000000)" fill="#F8F1EB">
            <path d="M882.483469,6184.34717 C829.71878,6066.62922 763.692561,5980.42087 818.78138,5931.20541 C873.8702,5881.98994 774.2993,5868.24275 855.763471,5802.16743 C937.227642,5736.09211 876.735048,5700.38502 937.227642,5673.49806 C997.720236,5646.6111 1078.32344,5614 1137.80835,5614 C1197.29326,5614 1280.56609,5648.66134 1329.63355,5709.75555 C1378.701,5770.84977 1392.69746,5795.08007 1434.4142,5823.9347 C1476.13095,5852.78933 1506.60229,5834.16986 1557.62322,5834.16986 C1608.64415,5834.16986 1545.971,5832.74592 1620.79078,5863.47878 C1695.61057,5894.21165 1718.23352,5918.69828 1753.86719,5971.53652 C1789.50085,6024.37476 1809.61277,6107.09197 1791.66994,6174.64532 C1773.72711,6242.19867 1834.8799,6346.28755 1781.79945,6371.05547 C1728.719,6395.8234 1731.23133,6442.67974 1622.54865,6442.67974 C1513.86598,6442.67974 1381.37064,6505.21875 1329.63355,6505.21875 C1277.89646,6505.21875 1268.29063,6558.00195 1184.87546,6531.61035 C1101.46029,6505.21875 1036.38183,6537.76629 994.077852,6486.63429 C951.773871,6435.50228 964.57072,6449.83874 930.864592,6377.52549 C897.158464,6305.21224 935.248157,6302.06511 882.483469,6184.34717 Z" id="Mask-Copy-7" transform="translate(1301.000000, 6076.500000) scale(-1, -1) rotate(-86.000000) translate(-1301.000000, -6076.500000) "></path>
        </g>
    </g>
</svg>