<?xml version="1.0" encoding="UTF-8"?>
<svg width="650px" height="1085px" viewBox="0 0 650 1085" version="1.1" xmlns="http://www.w3.org/2000/svg" xmlns:xlink="http://www.w3.org/1999/xlink">
    <!-- Generator: Sketch 64 (93537) - https://sketch.com -->
    <title>Mask Copy 7</title>
    <desc>Created with Sketch.</desc>
    <g id="Page-1" stroke="none" stroke-width="1" fill="none" fill-rule="evenodd">
        <g id="Home" transform="translate(-790.000000, -5621.000000)" fill="#F8F1EB">
            <path d="M831.628136,6282.1682 C773.776643,6153.12388 701.385137,6058.62089 761.784819,6004.6701 C822.184501,5950.7193 713.014424,5935.64942 802.332185,5863.21658 C891.649946,5790.78374 825.325536,5751.64105 891.649946,5722.16713 C957.974357,5692.69321 1046.34815,5656.94439 1111.56773,5656.94439 C1176.7873,5656.94439 1268.0881,5694.94071 1321.88592,5761.91318 C1375.68375,5828.88565 1391.02954,5855.44729 1436.768,5887.07821 C1482.50647,5918.70913 1515.91542,5898.29816 1571.85504,5898.29816 C1627.79467,5898.29816 1559.07948,5896.73721 1641.11231,5930.42708 C1723.14513,5964.11694 1747.94905,5990.95958 1787.018,6048.88172 C1826.08694,6106.80385 1848.13776,6197.4798 1828.46515,6271.53288 C1808.79253,6345.58596 1875.84078,6459.68987 1817.64309,6486.84087 C1759.44539,6513.99188 1762.19993,6565.35656 1643.03964,6565.35656 C1523.87936,6565.35656 1378.61075,6633.91284 1321.88592,6633.91284 C1265.1611,6633.91284 1254.62922,6691.77464 1163.17237,6662.84374 C1071.71552,6633.91284 1000.36314,6669.59198 953.980827,6613.54024 C907.598511,6557.48851 921.629047,6573.20437 884.673464,6493.93341 C847.717881,6414.66245 889.479629,6411.21252 831.628136,6282.1682 Z" id="Mask-Copy-7" transform="translate(1290.491945, 6163.944388) scale(-1, -1) rotate(-86.000000) translate(-1290.491945, -6163.944388) "></path>
        </g>
    </g>
</svg>