<?xml version="1.0" encoding="UTF-8"?>
<svg width="441px" height="796px" viewBox="0 0 441 796" version="1.1" xmlns="http://www.w3.org/2000/svg" xmlns:xlink="http://www.w3.org/1999/xlink">
    <!-- Generator: Sketch 64 (93537) - https://sketch.com -->
    <title>Path 3 Copy</title>
    <desc>Created with Sketch.</desc>
    <g id="Page-1" stroke="none" stroke-width="1" fill="none" fill-rule="evenodd">
        <g id="Home" transform="translate(0.000000, -5122.000000)" fill="#F8F1EB">
            <path d="M-121.880963,5996.6086 C-185.595084,5996.6086 -234.518964,5985.39915 -275.375831,5967.62329 C-316.232699,5949.84743 -379.23255,5835.0939 -388.065544,5776.29759 C-396.898538,5717.50128 -442.878767,5760.3465 -460.869514,5666.47955 C-478.860261,5572.6126 -552.775456,5576.7768 -544.330626,5518.50353 C-535.885797,5460.23026 -567.960369,5398.16361 -488.396175,5365.2472 C-408.831981,5332.33079 -309.635041,5200.11206 -184.469455,5226.44519 C-59.3038688,5252.77831 -42.2821071,5337.57179 44.4808486,5389.99522 C131.243804,5442.41864 118.694885,5449.23126 181.655375,5438.9921 C244.615865,5428.75294 244.615865,5389.99522 322.378682,5389.99522 C400.141499,5389.99522 464.658001,5473.06225 464.658001,5518.50353 C464.658001,5563.94481 550.379697,5632.77641 540.152609,5717.69171 C528.289415,5798.75421 545.406053,5837.58712 464.658001,5880.58613 C383.909949,5923.58514 372.058129,5754.80359 244.243867,5813.65313 C116.429605,5872.50267 166.514588,5862.21385 100.333038,5915.20598 C34.1514877,5968.1981 -58.1668432,5996.6086 -121.880963,5996.6086 Z" id="Path-3-Copy" transform="translate(-2.000000, 5609.804298) scale(-1, 1) rotate(-324.000000) translate(2.000000, -5609.804298) "></path>
        </g>
    </g>
</svg>