<?xml version="1.0" encoding="UTF-8"?>
<svg width="641px" height="882px" viewBox="0 0 641 882" version="1.1" xmlns="http://www.w3.org/2000/svg" xmlns:xlink="http://www.w3.org/1999/xlink">
    <!-- Generator: Sketch 64 (93537) - https://sketch.com -->
    <title>Path 3 Copy</title>
    <desc>Created with Sketch.</desc>
    <g id="Page-1" stroke="none" stroke-width="1" fill="none" fill-rule="evenodd">
        <g id="Home" transform="translate(0.000000, -6999.000000)" fill="#F8F1EB">
            <path d="M-70.4694547,7949 C-134.183575,7949 -183.107455,7937.79055 -223.964323,7920.01469 C-264.82119,7902.23883 -306.193475,7866.67392 -306.193475,7806.23724 C-306.193475,7745.80056 -265.23255,7704.0939 -274.065544,7645.29759 C-282.898538,7586.50128 -328.878767,7629.3465 -346.869514,7535.47955 C-364.860261,7441.6126 -438.775456,7445.7768 -430.330626,7387.50353 C-421.885797,7329.23026 -453.960369,7267.16361 -374.396175,7234.2472 C-294.831981,7201.33079 -195.635041,7069.11206 -70.4694547,7095.44519 C54.6961312,7121.77831 71.7178929,7206.57179 158.480849,7258.99522 C245.243804,7311.41864 232.694885,7318.23126 295.655375,7307.9921 C358.615865,7297.75294 358.615865,7258.99522 436.378682,7258.99522 C514.141499,7258.99522 578.658001,7342.06225 578.658001,7387.50353 C578.658001,7432.94481 664.379697,7501.77641 654.152609,7586.69171 C642.289415,7667.75421 659.406053,7706.58712 578.658001,7749.58613 C497.909949,7792.58514 423.469637,7707.195 295.655375,7766.04454 C167.841113,7824.89408 217.926097,7814.60525 151.744547,7867.59738 C85.5629964,7920.58951 -6.75533448,7949 -70.4694547,7949 Z" id="Path-3-Copy" transform="translate(112.000000, 7520.500000) scale(-1, 1) rotate(-324.000000) translate(-112.000000, -7520.500000) "></path>
        </g>
    </g>
</svg>