<?xml version="1.0" encoding="UTF-8"?>
<svg width="561px" height="797px" viewBox="0 0 561 797" version="1.1" xmlns="http://www.w3.org/2000/svg" xmlns:xlink="http://www.w3.org/1999/xlink">
    <!-- Generator: Sketch 64 (93537) - https://sketch.com -->
    <title>Path 3 Copy</title>
    <desc>Created with Sketch.</desc>
    <g id="Page-1" stroke="none" stroke-width="1" fill="none" fill-rule="evenodd">
        <g id="Home" transform="translate(-148.000000, -5791.000000)" fill="#F8F1EB">
            <path d="M464.52844,6562.68703 C400.81432,6562.68703 351.890439,6551.47758 311.033572,6533.70172 C270.176704,6515.92587 207.176853,6401.17234 198.343859,6342.37603 C189.510865,6283.57972 143.530636,6326.42494 125.539889,6232.55799 C107.549142,6138.69104 33.6339475,6142.85523 42.078777,6084.58197 C50.5236066,6026.3087 18.4490342,5964.24205 98.0132282,5931.32564 C177.577422,5898.40923 276.774363,5766.1905 401.939949,5792.52362 C527.105535,5818.85675 479.68728,5942.03137 566.450236,5994.45479 C653.213192,6046.87822 806.206388,6245.9496 771.049705,6374.14316 C735.893023,6502.33673 528.24256,6562.68703 464.52844,6562.68703 Z" id="Path-3-Copy" transform="translate(408.808010, 6175.882733) scale(-1, 1) rotate(-324.000000) translate(-408.808010, -6175.882733) "></path>
        </g>
    </g>
</svg>