<?xml version="1.0" encoding="UTF-8"?>
<svg width="507px" height="704px" viewBox="0 0 507 704" version="1.1" xmlns="http://www.w3.org/2000/svg" xmlns:xlink="http://www.w3.org/1999/xlink">
    <!-- Generator: Sketch 64 (93537) - https://sketch.com -->
    <title>Path 3</title>
    <desc>Created with Sketch.</desc>
    <g id="Page-1" stroke="none" stroke-width="1" fill="none" fill-rule="evenodd">
        <g id="Home" transform="translate(0.000000, -18198.000000)" fill="#F8F1EB">
            <path d="M-420.932211,19038 C-504.710999,19038 -569.041847,19023.2459 -622.765242,18999.849 C-676.488637,18976.452 -730.889763,18929.6408 -730.889763,18850.0929 C-730.889763,18770.545 -677.029541,18715.6499 -688.644196,18638.261 C-700.258851,18560.8722 -760.719042,18617.2659 -784.375383,18493.7164 C-808.031725,18370.1669 -905.22408,18375.6479 -894.119829,18298.9475 C-883.015578,18222.2471 -925.190983,18140.5537 -820.570661,18097.2285 C-715.95034,18053.9033 -585.514584,17879.8744 -420.932211,17914.5346 C-256.349839,17949.1948 -233.967633,18060.8016 -119.881536,18129.8023 C-5.7954398,18198.8031 -22.2962282,18207.77 60.4915985,18194.293 C143.279425,18180.816 143.279425,18129.8023 245.531085,18129.8023 C347.782745,18129.8023 432.616598,18239.1368 432.616598,18298.9475 C432.616598,18358.7582 545.333524,18449.3557 531.885751,18561.1228 C516.286634,18667.8188 538.793594,18718.9315 432.616598,18775.5276 C326.439602,18832.1237 228.556761,18719.7316 60.4915985,18797.1905 C-107.573564,18874.6494 -41.7159606,18861.107 -128.739215,18930.8563 C-215.762469,19000.6056 -337.153423,19038 -420.932211,19038 Z" id="Path-3" transform="translate(-181.000000, 18474.000000) rotate(12.000000) translate(181.000000, -18474.000000) "></path>
        </g>
    </g>
</svg>