<?xml version="1.0" encoding="UTF-8"?>
<svg width="500px" height="697px" viewBox="0 0 500 697" version="1.1" xmlns="http://www.w3.org/2000/svg" xmlns:xlink="http://www.w3.org/1999/xlink">
    <!-- Generator: Sketch 64 (93537) - https://sketch.com -->
    <title>Path 3</title>
    <desc>Created with Sketch.</desc>
    <g id="Page-1" stroke="none" stroke-width="1" fill="none" fill-rule="evenodd">
        <g id="Home" transform="translate(-940.000000, -18205.000000)" fill="#F8F1EB">
            <path d="M1388.06779,19038 C1304.289,19038 1239.95815,19023.2459 1186.23476,18999.849 C1132.51136,18976.452 1078.11024,18929.6408 1078.11024,18850.0929 C1078.11024,18770.545 1131.97046,18715.6499 1120.3558,18638.261 C1108.74115,18560.8722 1048.28096,18617.2659 1024.62462,18493.7164 C1000.96828,18370.1669 903.77592,18375.6479 914.880171,18298.9475 C925.984422,18222.2471 883.809017,18140.5537 988.429339,18097.2285 C1093.04966,18053.9033 1223.48542,17879.8744 1388.06779,17914.5346 C1552.65016,17949.1948 1575.03237,18060.8016 1689.11846,18129.8023 C1803.20456,18198.8031 1786.70377,18207.77 1869.4916,18194.293 C1952.27943,18180.816 1952.27943,18129.8023 2054.53109,18129.8023 C2156.78274,18129.8023 2241.6166,18239.1368 2241.6166,18298.9475 C2241.6166,18358.7582 2354.33352,18449.3557 2340.88575,18561.1228 C2325.28663,18667.8188 2347.79359,18718.9315 2241.6166,18775.5276 C2135.4396,18832.1237 2037.55676,18719.7316 1869.4916,18797.1905 C1701.42644,18874.6494 1767.28404,18861.107 1680.26079,18930.8563 C1593.23753,19000.6056 1471.84658,19038 1388.06779,19038 Z" id="Path-3" transform="translate(1628.000000, 18474.000000) scale(-1, 1) rotate(12.000000) translate(-1628.000000, -18474.000000) "></path>
        </g>
    </g>
</svg>