<?xml version="1.0" encoding="UTF-8"?>
<svg width="395px" height="527px" viewBox="0 0 395 527" version="1.1" xmlns="http://www.w3.org/2000/svg" xmlns:xlink="http://www.w3.org/1999/xlink">
    <!-- Generator: Sketch 64 (93537) - https://sketch.com -->
    <title>Path 3</title>
    <desc>Created with Sketch.</desc>
    <g id="Page-1" stroke="none" stroke-width="1" fill="none" fill-rule="evenodd">
        <g id="Home" transform="translate(-1045.000000, -7485.000000)" fill="#F8F1EB">
            <path d="M1512.06779,8297 C1428.289,8297 1363.95815,8282.24591 1310.23476,8258.84898 C1256.51136,8235.45205 1202.11024,8188.64082 1202.11024,8109.09289 C1202.11024,8029.54496 1255.97046,7974.64985 1244.3558,7897.26101 C1232.74115,7819.87216 1172.28096,7876.26587 1148.62462,7752.71638 C1124.96828,7629.16688 1027.77592,7634.64788 1038.88017,7557.94747 C1049.98442,7481.24707 1007.80902,7399.55374 1112.42934,7356.22852 C1217.04966,7312.90331 1347.48542,7138.87445 1512.06779,7173.53462 C1676.65016,7208.19479 1699.03237,7319.80161 1813.11846,7388.80234 C1927.20456,7457.80307 1910.70377,7466.76997 1993.4916,7453.29298 C2076.27943,7439.816 2076.27943,7388.80234 2178.53109,7388.80234 C2280.78274,7388.80234 2365.6166,7498.13678 2365.6166,7557.94747 C2365.6166,7617.75817 2420.06273,7639.06244 2406.61496,7750.8296 C2391.01584,7857.52563 2306.87252,7854.01828 2200.69553,7910.61441 C2094.51853,7967.21054 1996.63569,7854.81838 1828.57053,7932.27729 C1660.50536,8009.73619 1891.28404,8120.10703 1804.26079,8189.8563 C1717.23753,8259.60556 1595.84658,8297 1512.06779,8297 Z" id="Path-3" transform="translate(1723.375506, 7733.000000) scale(-1, 1) rotate(12.000000) translate(-1723.375506, -7733.000000) "></path>
        </g>
    </g>
</svg>