<?xml version="1.0" encoding="UTF-8"?>
<svg width="708px" height="1086px" viewBox="0 0 708 1086" version="1.1" xmlns="http://www.w3.org/2000/svg" xmlns:xlink="http://www.w3.org/1999/xlink">
    <!-- Generator: Sketch 64 (93537) - https://sketch.com -->
    <title>Path 3 Copy 3</title>
    <desc>Created with Sketch.</desc>
    <g id="Page-1" stroke="none" stroke-width="1" fill="none" fill-rule="evenodd">
        <g id="Home" transform="translate(-732.000000, -19185.000000)" fill="#F8F1EB">
            <path d="M1146.10838,20370 C1064.08965,20370 1001.11029,20355.5598 948.51554,20332.6607 C895.920788,20309.7616 842.662543,20263.9463 842.662543,20186.0909 C842.662543,20108.2355 895.391247,20054.5084 884.020598,19978.7661 C872.649948,19903.0238 813.459929,19958.2177 790.30057,19837.2969 C767.141211,19716.3761 671.990711,19721.7405 682.86168,19646.672 C693.732648,19571.6035 652.443282,19491.6483 754.865697,19449.2449 C857.288113,19406.8415 984.983622,19236.5154 1146.10838,19270.4381 C1307.23314,19304.3609 1329.14513,19413.5931 1440.83446,19481.1257 C1552.52379,19548.6583 1536.36966,19557.4344 1617.41825,19544.2442 C1698.46683,19531.054 1698.46683,19481.1257 1798.57035,19481.1257 C1898.67386,19481.1257 1981.72549,19588.1339 1981.72549,19646.672 C1981.72549,19705.2101 2092.07442,19793.88 2078.90916,19903.2691 C2063.63775,20007.695 2085.67188,20057.7202 1981.72549,20113.1121 C1877.77911,20168.5041 1781.95263,20058.5032 1617.41825,20134.3141 C1452.88386,20210.1249 1517.3579,20196.8707 1432.16287,20265.1359 C1346.96784,20333.4012 1228.12711,20370 1146.10838,20370 Z" id="Path-3-Copy-3" transform="translate(1381.000000, 19818.000000) rotate(22.000000) translate(-1381.000000, -19818.000000) "></path>
        </g>
    </g>
</svg>