<?xml version="1.0" encoding="UTF-8"?>
<svg width="604px" height="846px" viewBox="0 0 604 846" version="1.1" xmlns="http://www.w3.org/2000/svg" xmlns:xlink="http://www.w3.org/1999/xlink">
    <!-- Generator: Sketch 64 (93537) - https://sketch.com -->
    <title>Path 3 Copy 3</title>
    <desc>Created with Sketch.</desc>
    <g id="Page-1" stroke="none" stroke-width="1" fill="none" fill-rule="evenodd">
        <g id="Home" transform="translate(-161.000000, -8532.000000)" fill="#F8F1EB">
            <path d="M554.711739,9344.32085 C490.762945,9344.32085 441.658866,9333.05587 400.651513,9315.19704 C359.644159,9297.33822 330.481508,9292.20438 330.481508,9231.48561 C330.481508,9170.76684 305.378011,9135.95082 296.512483,9076.88008 C287.646955,9017.80934 241.49737,9060.85454 223.440359,8966.54947 C205.383347,8872.2444 131.195905,8876.42803 139.671839,8817.88278 C148.147773,8759.33752 115.955062,8696.98118 195.81231,8663.91113 C275.669559,8630.84109 375.231865,8498.00523 500.858466,8524.46127 C626.485067,8550.9173 624.743222,8656.22985 711.825746,8708.89796 C761.124816,8738.71437 799.172808,8846.75372 815.901444,8961.00186 C828.722489,9048.56313 829.020778,9139.77138 812.263744,9202.20708 C773.642478,9346.10759 618.660534,9344.32085 554.711739,9344.32085 Z" id="Path-3-Copy-3" transform="translate(482.104911, 8932.660426) scale(-1, 1) rotate(22.000000) translate(-482.104911, -8932.660426) "></path>
        </g>
    </g>
</svg>