<?xml version="1.0" encoding="UTF-8"?>
<svg width="580px" height="847px" viewBox="0 0 580 847" version="1.1" xmlns="http://www.w3.org/2000/svg" xmlns:xlink="http://www.w3.org/1999/xlink">
    <!-- Generator: Sketch 64 (93537) - https://sketch.com -->
    <title>Path 3 Copy 3</title>
    <desc>Created with Sketch.</desc>
    <g id="Page-1" stroke="none" stroke-width="1" fill="none" fill-rule="evenodd">
        <g id="Home" transform="translate(0.000000, -19250.000000)" fill="#F8F1EB">
            <path d="M-109.141534,20174 C-173.090328,20174 -222.194407,20162.7382 -263.20176,20144.8794 C-304.209114,20127.0206 -345.733783,20091.2897 -345.733783,20030.5709 C-345.733783,19969.8521 -304.621989,19927.9508 -313.487517,19868.8801 C-322.353045,19809.8093 -368.50263,19852.8545 -386.559641,19758.5495 C-404.616653,19664.2444 -478.804095,19668.428 -470.328161,19609.8828 C-461.852227,19551.3375 -494.044938,19488.9812 -414.18769,19455.9111 C-334.330441,19422.8411 -234.768135,19290.0052 -109.141534,19316.4613 C16.4850672,19342.9173 33.5695242,19428.1065 120.652049,19480.7747 C207.734573,19533.4428 195.139434,19540.2872 258.331822,19530.0002 C321.524211,19519.7133 321.524211,19480.7747 399.573447,19480.7747 C477.622683,19480.7747 542.376815,19564.2294 542.376815,19609.8828 C542.376815,19655.5362 628.414244,19724.689 618.149488,19810.0007 C606.242599,19891.4415 623.422281,19930.4557 542.376815,19973.6554 C461.331349,20016.8551 386.616855,19931.0664 258.331822,19990.1906 C130.04679,20049.3148 180.316249,20038.978 113.890936,20092.2174 C47.4656225,20145.4569 -45.192739,20174 -109.141534,20174 Z" id="Path-3-Copy-3" transform="translate(74.000000, 19743.500000) scale(-1, 1) rotate(22.000000) translate(-74.000000, -19743.500000) "></path>
        </g>
    </g>
</svg>