<?xml version="1.0" encoding="UTF-8"?>
<svg width="463px" height="828px" viewBox="0 0 463 828" version="1.1" xmlns="http://www.w3.org/2000/svg" xmlns:xlink="http://www.w3.org/1999/xlink">
    <!-- Generator: Sketch 64 (93537) - https://sketch.com -->
    <title>Path 3 Copy 3</title>
    <desc>Created with Sketch.</desc>
    <g id="Page-1" stroke="none" stroke-width="1" fill="none" fill-rule="evenodd">
        <g id="Home" transform="translate(0.000000, -8448.000000)" fill="#F8F1EB">
            <path d="M-136.346292,9335.68958 C-200.295086,9335.68958 -249.399165,9324.42781 -290.406518,9306.56899 C-331.413871,9288.71016 -360.576523,9283.57632 -360.576523,9222.85755 C-360.576523,9162.13878 -385.68002,9127.32276 -394.545548,9068.25202 C-403.411076,9009.18128 -449.560661,9052.22648 -467.617672,8957.92141 C-485.674683,8863.61634 -559.862126,8867.79998 -551.386192,8809.25472 C-542.910258,8750.70946 -575.102969,8688.35312 -495.24572,8655.28308 C-415.388472,8622.21303 -315.826165,8489.37717 -190.199565,8515.83321 C-64.5729636,8542.28924 -47.4885066,8627.47849 39.5940179,8680.1466 C126.676542,8732.81471 114.081403,8739.65912 177.273792,8729.37217 C240.46618,8719.08522 240.46618,8680.1466 318.515416,8680.1466 C396.564653,8680.1466 461.318784,8763.60134 461.318784,8809.25472 C461.318784,8854.90809 547.356214,8924.06096 537.091457,9009.37259 C525.184568,9090.81345 542.36425,9129.82761 461.318784,9173.02732 C380.273318,9216.22702 328.971389,9087.49908 200.686356,9146.6233 C72.401323,9205.74751 109.049672,9210.14128 42.6243591,9263.38074 C-23.8009539,9316.62021 -72.3974969,9335.68958 -136.346292,9335.68958 Z" id="Path-3-Copy-3" transform="translate(-7.058031, 8924.030761) scale(-1, 1) rotate(22.000000) translate(7.058031, -8924.030761) "></path>
        </g>
    </g>
</svg>