<?xml version="1.0" encoding="UTF-8"?>
<svg width="442px" height="860px" viewBox="0 0 442 860" version="1.1" xmlns="http://www.w3.org/2000/svg" xmlns:xlink="http://www.w3.org/1999/xlink">
    <!-- Generator: Sketch 64 (93537) - https://sketch.com -->
    <title>Path 3</title>
    <desc>Created with Sketch.</desc>
    <g id="Page-1" stroke="none" stroke-width="1" fill="none" fill-rule="evenodd">
        <g id="Home" transform="translate(-998.000000, -11249.000000)" fill="#F8F1EB">
            <path d="M1322.90718,12177 C1261.07045,12177 1213.58816,12166.1045 1173.93518,12148.8264 C1134.2822,12131.5484 1094.12898,12096.9794 1094.12898,12038.2353 C1094.12898,11979.4911 1133.88296,11938.9524 1125.31024,11881.8027 C1116.73751,11824.6529 1072.11214,11866.2983 1054.6515,11775.0601 C1037.19087,11683.8218 965.453655,11687.8694 973.64965,11631.2281 C981.845645,11574.5867 950.716179,11514.2582 1027.93594,11482.2636 C1105.1557,11450.269 1201.42971,11321.753 1322.90718,11347.3487 C1444.38464,11372.9444 1460.90484,11455.3632 1545.11125,11506.3186 C1629.31765,11557.2739 1617.1385,11563.8957 1678.2438,11553.9433 C1739.3491,11543.9909 1739.3491,11506.3186 1814.82056,11506.3186 C1890.29203,11506.3186 1952.90749,11587.0593 1952.90749,11631.2281 C1952.90749,11675.3968 1880.21249,11494.1897 1870.28676,11576.727 C1858.77312,11655.5193 1965.70365,11709.1785 1887.33492,11750.9734 C1808.96618,11792.7682 1802.29189,11941.9667 1678.2438,11999.1681 C1554.1957,12056.3696 1602.80489,12046.3689 1538.57344,12097.877 C1474.34199,12149.3851 1384.7439,12177 1322.90718,12177 Z" id="Path-3" transform="translate(1462.953745, 11760.500000) rotate(-290.000000) translate(-1462.953745, -11760.500000) "></path>
        </g>
    </g>
</svg>