<?xml version="1.0" encoding="UTF-8"?>
<svg width="537px" height="898px" viewBox="0 0 537 898" version="1.1" xmlns="http://www.w3.org/2000/svg" xmlns:xlink="http://www.w3.org/1999/xlink">
    <!-- Generator: Sketch 64 (93537) - https://sketch.com -->
    <title>Path 3</title>
    <desc>Created with Sketch.</desc>
    <g id="Page-1" stroke="none" stroke-width="1" fill="none" fill-rule="evenodd">
        <g id="Home" transform="translate(-903.000000, -11220.000000)" fill="#F8F1EB">
            <path d="M1227.90718,12171 C1166.07045,12171 1118.58816,12160.1045 1078.93518,12142.8264 C1039.2822,12125.5484 999.128984,12090.9794 999.128984,12032.2353 C999.128984,11973.4911 1038.88296,11932.9524 1030.31024,11875.8027 C1021.73751,11818.6529 977.112136,11860.2983 959.651503,11769.0601 C942.19087,11677.8218 870.453655,11681.8694 878.64965,11625.2281 C886.845645,11568.5867 855.716179,11508.2582 932.935941,11476.2636 C1010.1557,11444.269 1106.42971,11315.753 1227.90718,11341.3487 C1349.38464,11366.9444 1365.90484,11449.3632 1450.11125,11500.3186 C1534.31765,11551.2739 1522.1385,11557.8957 1583.2438,11547.9433 C1644.3491,11537.9909 1644.3491,11500.3186 1719.82056,11500.3186 C1795.29203,11500.3186 1857.90749,11581.0593 1857.90749,11625.2281 C1857.90749,11669.3968 1785.21249,11488.1897 1775.28676,11570.727 C1763.77312,11649.5193 1870.70365,11703.1785 1792.33492,11744.9734 C1713.96618,11786.7682 1707.29189,11935.9667 1583.2438,11993.1681 C1459.1957,12050.3696 1507.80489,12040.3689 1443.57344,12091.877 C1379.34199,12143.3851 1289.7439,12171 1227.90718,12171 Z" id="Path-3" transform="translate(1367.953745, 11754.500000) rotate(-290.000000) translate(-1367.953745, -11754.500000) "></path>
        </g>
    </g>
</svg>