<?xml version="1.0" encoding="UTF-8"?>
<svg width="537px" height="634px" viewBox="0 0 537 634" version="1.1" xmlns="http://www.w3.org/2000/svg" xmlns:xlink="http://www.w3.org/1999/xlink">
    <!-- Generator: Sketch 64 (93537) - https://sketch.com -->
    <title>Path 3</title>
    <desc>Created with Sketch.</desc>
    <g id="Page-1" stroke="none" stroke-width="1" fill="none" fill-rule="evenodd">
        <g id="Home" transform="translate(-427.000000, -11342.000000)" fill="#F8F1EB">
            <path d="M619.973284,11959.9409 C561.18082,11959.9409 516.036111,11949.5747 478.33527,11933.1361 C440.634429,11916.6975 402.457985,11883.8081 402.457985,11827.9179 C402.457985,11772.0278 440.254845,11733.4586 432.104164,11679.0855 C423.953483,11624.7123 381.52504,11664.3343 364.924005,11577.5288 C348.32297,11490.7233 386.434773,11457.9982 459.852957,11427.558 C533.27114,11397.1178 548.200963,11461.4575 663.698017,11485.8096 C779.19507,11510.1617 933.017639,11468.3853 970.038894,11597.3086 C1007.06015,11726.2318 886.091452,11835.6564 825.022157,11884.6621 C763.952863,11933.6677 678.765747,11959.9409 619.973284,11959.9409 Z" id="Path-3" transform="translate(669.011062, 11689.741423) scale(-1, 1) rotate(-290.000000) translate(-669.011062, -11689.741423) "></path>
        </g>
    </g>
</svg>