<?xml version="1.0" encoding="UTF-8"?>
<svg width="909px" height="757px" viewBox="0 0 909 757" version="1.1" xmlns="http://www.w3.org/2000/svg" xmlns:xlink="http://www.w3.org/1999/xlink">
    <!-- Generator: Sketch 64 (93537) - https://sketch.com -->
    <title>Group 15</title>
    <desc>Created with Sketch.</desc>
    <g id="Page-1" stroke="none" stroke-width="1" fill="none" fill-rule="evenodd">
        <g id="Home" transform="translate(-226.000000, -16459.000000)" fill="#F8F1EB">
            <g id="Group-15" transform="translate(169.000000, 16377.000000)">
                <path d="M150.787725,640.983763 C127.58406,627.120042 109.223949,602.846146 95.7073924,568.162073 C75.4325571,516.135963 69.6054516,497.176444 77.2003307,468.022413 C84.7952098,438.868381 93.1452119,402.2171 121.355386,370.496954 C149.565561,338.776809 173.210078,341.766966 182.638204,308.372507 C192.06633,274.978048 263.798653,248.372645 288.940322,237.185786 C314.081991,225.998926 438.184061,197.190249 533.181158,278.571483 C628.178255,359.952716 664.847553,397.473941 674.005057,456.953586 C683.16256,516.43323 804.885775,507.519589 817.456609,533.749037 C830.027444,559.978485 889.511933,644.437307 859.769688,679.060178 C830.027444,713.683049 851.533173,737.993375 795.029892,780.830435 C738.52661,823.667495 706.759064,842.373463 665.458635,859.422604 C624.158207,876.471745 584.145415,859.422604 544.136989,859.422604 C504.128563,859.422604 497.993198,864.414942 471,822.622689 C444.006802,780.830435 464.948503,756.865463 448.419688,717.962821 C431.890873,679.060178 425.988606,652.44166 381.859739,652.44166 C337.730873,652.44166 315.173209,652.44166 281.860498,652.44166 C259.652024,652.44166 215.9611,648.622361 150.787725,640.983763 Z" id="Path-2-Copy" transform="translate(471.000000, 545.000000) scale(-1, -1) rotate(-16.000000) translate(-471.000000, -545.000000) "></path>
                <path d="M368.227897,489.041176 C347.157566,476.469107 330.485475,454.456753 318.211625,423.004116 C299.800848,375.825159 294.509484,358.632055 301.406094,332.194237 C308.302703,305.75642 315.88501,272.519854 341.501554,243.755002 C367.118097,214.990149 388.588749,217.70172 397.150057,187.418547 C405.711365,157.135373 470.848651,133.008734 493.678806,122.864129 C516.508961,112.719523 629.201143,86.5948846 715.46425,160.394015 C801.727357,234.193146 835.025297,268.218605 843.340864,322.156668 C851.656431,376.09473 962.188468,368.011553 973.603546,391.797264 C985.018623,415.582974 1039.03414,492.172961 1012.02638,523.570099 C985.018623,554.967237 1004.54713,577.012626 953.23873,615.858656 C901.930335,654.704685 873.083483,671.667861 835.580197,687.128573 C798.076911,702.589284 761.742877,687.128573 725.412808,687.128573 C689.082738,687.128573 683.511456,691.655786 659,653.757221 C634.488544,615.858656 653.504875,594.126445 638.495712,558.848272 C623.486549,523.570099 618.126933,499.431567 578.055254,499.431567 C537.983576,499.431567 517.499853,499.431567 487.249898,499.431567 C467.083261,499.431567 427.40926,495.968104 368.227897,489.041176 Z" id="Path-2-Copy-3" transform="translate(659.000000, 402.000000) scale(-1, -1) rotate(-159.000000) translate(-659.000000, -402.000000) "></path>
            </g>
        </g>
    </g>
</svg>