<?xml version="1.0" encoding="UTF-8"?>
<svg width="661px" height="384px" viewBox="0 0 661 384" version="1.1" xmlns="http://www.w3.org/2000/svg" xmlns:xlink="http://www.w3.org/1999/xlink">
    <!-- Generator: Sketch 64 (93537) - https://sketch.com -->
    <title>Mask</title>
    <desc>Created with Sketch.</desc>
    <g id="Page-1" stroke="none" stroke-width="1" fill="none" fill-rule="evenodd">
        <g id="Home" transform="translate(-390.000000, -941.000000)" fill="#F8F1EB">
            <path d="M408.127609,1315.18543 C389.941131,1300.74443 408.127609,1269.77072 401.498625,1235.48546 C394.869641,1201.2002 390,1137.62643 390,1127.62643 C390,1117.62643 399.063804,1044.86565 399.063804,1033.85735 C399.063804,1022.84904 384.181035,987.52301 399.063804,970.912687 C413.946574,954.302365 434.609896,951.636249 479,944.272692 C523.390104,936.909135 569.942099,944.272692 611.721049,944.272692 C653.5,944.272692 733.907429,944.272692 806.051245,944.272692 C878.195061,944.272692 927.486458,970.912687 946.51427,970.912687 C965.542083,970.912687 1038.86555,968.109034 1038.86555,994.378736 C1038.86555,1020.64844 1052.5241,1012.97189 1038.86555,1070.5323 C1025.207,1128.09271 1048.44558,1210.76741 1048.44558,1223.12643 C1048.44558,1235.48546 1058.22663,1296.06744 1031.72946,1305.62643 C1005.23229,1315.18543 979.174185,1329.51051 946.51427,1322.34797 C913.854355,1315.18543 788.599826,1322.34797 780.188867,1322.34797 C771.777907,1322.34797 694.233092,1315.18543 680.362943,1315.18543 C666.492795,1315.18543 557.76395,1322.34797 535.435233,1322.34797 C513.106516,1322.34797 426.314087,1329.62643 408.127609,1315.18543 Z" id="Mask"></path>
        </g>
    </g>
</svg>