<?xml version="1.0" encoding="UTF-8"?>
<svg width="1440px" height="1022px" viewBox="0 0 1440 1022" version="1.1" xmlns="http://www.w3.org/2000/svg" xmlns:xlink="http://www.w3.org/1999/xlink">
    <!-- Generator: Sketch 64 (93537) - https://sketch.com -->
    <title>Path 3 Copy 2</title>
    <desc>Created with Sketch.</desc>
    <g id="Page-1" stroke="none" stroke-width="1" fill="none" fill-rule="evenodd">
        <g id="Home" transform="translate(0.000000, -24387.000000)" fill="#F8F1EB">
            <path d="M-321.707986,25133.9916 C-319.389538,25053.6195 -304.511348,24986.3752 -277.073413,24932.2587 C-235.916512,24851.0839 -185.356523,24835.7533 -122.758441,24783.7281 C-60.1603588,24731.7029 -53.6062862,24723.1146 33.0679812,24636.0136 C119.742248,24548.9126 211.900536,24590.7173 326.663686,24523.0404 C441.426836,24455.3636 634.932488,24396.6363 735.249927,24396.6363 C835.567366,24396.6363 983.997049,24328.3039 1182.30456,24460.6477 C1380.61208,24592.9915 1374.74848,24710.93 1467.82137,24730.9538 C1560.89426,24750.9776 1714.52202,24932.2587 1783.50029,24932.2587 C1852.47856,24932.2587 2040.04542,25084.8025 1997.89872,25172.2914 C1955.75202,25259.7804 1973.88941,25416.0298 1878.69485,25465.6737 C1783.50029,25515.3177 1595.90341,25559.3297 1560.89426,25577.7907 C1525.8851,25596.2517 1434.56948,25765.2766 1367.24979,25765.2766 C1299.9301,25765.2766 1219.12775,25892.9516 1096.87423,25910.6099 C974.620713,25928.2682 904.960283,25945.9266 772.126618,25910.6099 C639.292953,25875.2933 677.629134,25886.0354 574.135442,25782.6674 C470.641751,25679.2993 385.382827,25577.7907 282.430383,25577.7907 C179.47794,25577.7907 216.956535,25619.5152 61.2906207,25577.7907 C-94.3752934,25536.0662 -189.288966,25610.579 -250.067959,25538.1264 C-310.846951,25465.6737 -355,25451.0521 -355,25379.7633 C-355,25332.2375 -343.902662,25250.3136 -321.707986,25133.9916 Z" id="Path-3-Copy-2" transform="translate(824.500000, 25155.000000) rotate(9.000000) translate(-824.500000, -25155.000000) "></path>
        </g>
    </g>
</svg>